<ttFont>
    <TTGlyph name="A" xMin="-79" yMin="9" xMax="631" yMax="711">
      <contour>
        <pt x="72" y="327" on="1"/>
        <pt x="-11" y="327" on="0"/>
        <pt x="-47" y="275" on="1"/>
        <pt x="-53" y="266" on="0"/>
        <pt x="-53" y="260" on="1"/>
        <pt x="-53" y="251" on="0"/>
        <pt x="-44" y="251" on="1"/>
        <pt x="-36" y="251" on="0"/>
        <pt x="-29" y="266" on="1"/>
        <pt x="-12" y="290" on="0"/>
        <pt x="49" y="290" on="0"/>
        <pt x="84" y="250" on="0"/>
        <pt x="84" y="186" on="0"/>
        <pt x="39" y="144" on="0"/>
        <pt x="-33" y="144" on="0"/>
        <pt x="-79" y="196" on="0"/>
        <pt x="-79" y="278" on="0"/>
        <pt x="-1" y="346" on="0"/>
        <pt x="71" y="346" on="1"/>
        <pt x="108" y="346" on="0"/>
        <pt x="144" y="335" on="1"/>
        <pt x="246" y="629" on="1"/>
        <pt x="260" y="671" on="0"/>
        <pt x="277" y="687" on="1"/>
        <pt x="304" y="711" on="0"/>
        <pt x="350" y="711" on="1"/>
        <pt x="593" y="25" on="1"/>
        <pt x="631" y="25" on="1"/>
        <pt x="631" y="9" on="1"/>
        <pt x="383" y="9" on="1"/>
        <pt x="361" y="70" on="1"/>
        <pt x="278" y="263" on="0"/>
        <pt x="156" y="311" on="1"/>
        <pt x="95" y="138" on="1"/>
        <pt x="85" y="111" on="0"/>
        <pt x="85" y="87" on="1"/>
        <pt x="85" y="25" on="0"/>
        <pt x="175" y="25" on="1"/>
        <pt x="208" y="25" on="1"/>
        <pt x="208" y="9" on="1"/>
        <pt x="-48" y="9" on="1"/>
        <pt x="-48" y="25" on="1"/>
        <pt x="-18" y="25" on="0"/>
        <pt x="22" y="38" on="0"/>
        <pt x="50" y="76" on="0"/>
        <pt x="64" y="109" on="0"/>
        <pt x="77" y="145" on="1"/>
        <pt x="137" y="317" on="1"/>
        <pt x="104" y="327" on="0"/>
      </contour>
      <contour>
        <pt x="162" y="329" on="1"/>
        <pt x="252" y="296" on="0"/>
        <pt x="317" y="195" on="1"/>
        <pt x="216" y="482" on="1"/>
      </contour>
    </TTGlyph>
    <TTGlyph name="AE" xMin="-91" yMin="9" xMax="894" yMax="700">
      <contour>
        <pt x="226" y="347" on="1"/>
        <pt x="226" y="349" on="1"/>
        <pt x="101" y="138" on="1"/>
        <pt x="82" y="105" on="0"/>
        <pt x="82" y="82" on="1"/>
        <pt x="82" y="51" on="0"/>
        <pt x="126" y="25" on="0"/>
        <pt x="157" y="25" on="1"/>
        <pt x="195" y="25" on="1"/>
        <pt x="195" y="9" on="1"/>
        <pt x="-91" y="9" on="1"/>
        <pt x="-91" y="25" on="1"/>
        <pt x="-25" y="25" on="0"/>
        <pt x="41" y="63" on="0"/>
        <pt x="74" y="120" on="1"/>
        <pt x="379" y="636" on="1"/>
        <pt x="399" y="671" on="0"/>
        <pt x="454" y="700" on="0"/>
        <pt x="498" y="700" on="1"/>
        <pt x="875" y="700" on="1"/>
        <pt x="875" y="469" on="1"/>
        <pt x="861" y="469" on="1"/>
        <pt x="861" y="580" on="0"/>
        <pt x="767" y="684" on="0"/>
        <pt x="651" y="684" on="1"/>
        <pt x="576" y="684" on="1"/>
        <pt x="576" y="361" on="1"/>
        <pt x="613" y="361" on="1"/>
        <pt x="748" y="361" on="0"/>
        <pt x="748" y="507" on="1"/>
        <pt x="762" y="507" on="1"/>
        <pt x="762" y="198" on="1"/>
        <pt x="748" y="198" on="1"/>
        <pt x="748" y="271" on="0"/>
        <pt x="674" y="347" on="0"/>
        <pt x="609" y="347" on="1"/>
        <pt x="576" y="347" on="1"/>
        <pt x="576" y="25" on="1"/>
        <pt x="637" y="25" on="1"/>
        <pt x="789" y="25" on="0"/>
        <pt x="838" y="104" on="1"/>
        <pt x="862" y="144" on="0"/>
        <pt x="880" y="234" on="0"/>
        <pt x="880" y="300" on="1"/>
        <pt x="894" y="300" on="1"/>
        <pt x="894" y="9" on="1"/>
        <pt x="298" y="9" on="1"/>
        <pt x="298" y="25" on="1"/>
        <pt x="372" y="25" on="1"/>
        <pt x="372" y="347" on="1"/>
      </contour>
      <contour>
        <pt x="372" y="361" on="1"/>
        <pt x="372" y="585" on="1"/>
        <pt x="365" y="585" on="1"/>
        <pt x="233" y="361" on="1"/>
      </contour>
    </TTGlyph>
    <TTGlyph name="Aacute" xMin="-47" yMin="9" xMax="632" yMax="856">
      <contour>
        <pt x="632" y="25" on="1"/>
        <pt x="632" y="9" on="1"/>
        <pt x="310" y="9" on="1"/>
        <pt x="310" y="25" on="1"/>
        <pt x="378" y="25" on="1"/>
        <pt x="298" y="251" on="1"/>
        <pt x="135" y="251" on="1"/>
        <pt x="96" y="138" on="1"/>
        <pt x="86" y="111" on="0"/>
        <pt x="86" y="87" on="1"/>
        <pt x="86" y="25" on="0"/>
        <pt x="176" y="25" on="1"/>
        <pt x="209" y="25" on="1"/>
        <pt x="209" y="9" on="1"/>
        <pt x="-47" y="9" on="1"/>
        <pt x="-47" y="25" on="1"/>
        <pt x="-17" y="25" on="0"/>
        <pt x="23" y="38" on="0"/>
        <pt x="51" y="76" on="0"/>
        <pt x="65" y="109" on="0"/>
        <pt x="78" y="145" on="1"/>
        <pt x="247" y="629" on="1"/>
        <pt x="261" y="671" on="0"/>
        <pt x="278" y="687" on="1"/>
        <pt x="305" y="711" on="0"/>
        <pt x="351" y="711" on="1"/>
        <pt x="594" y="25" on="1"/>
      </contour>
      <contour>
        <pt x="217" y="482" on="1"/>
        <pt x="140" y="265" on="1"/>
        <pt x="293" y="265" on="1"/>
      </contour>
      <contour>
        <pt x="502" y="856" on="1"/>
        <pt x="507" y="838" on="1"/>
        <pt x="209" y="757" on="1"/>
        <pt x="204" y="774" on="1"/>
      </contour>
    </TTGlyph>
    <TTGlyph name="Acircumflex" xMin="-47" yMin="9" xMax="632" yMax="856">
      <contour>
        <pt x="632" y="25" on="1"/>
        <pt x="632" y="9" on="1"/>
        <pt x="310" y="9" on="1"/>
        <pt x="310" y="25" on="1"/>
        <pt x="375" y="25" on="1"/>
        <pt x="298" y="247" on="1"/>
        <pt x="133" y="247" on="1"/>
        <pt x="98" y="144" on="1"/>
        <pt x="85" y="105" on="0"/>
        <pt x="85" y="86" on="1"/>
        <pt x="85" y="51" on="0"/>
        <pt x="132" y="25" on="0"/>
        <pt x="175" y="25" on="1"/>
        <pt x="210" y="25" on="1"/>
        <pt x="210" y="9" on="1"/>
        <pt x="-47" y="9" on="1"/>
        <pt x="-47" y="25" on="1"/>
        <pt x="-17" y="25" on="0"/>
        <pt x="22" y="38" on="0"/>
        <pt x="50" y="77" on="0"/>
        <pt x="63" y="107" on="0"/>
        <pt x="76" y="145" on="1"/>
        <pt x="249" y="635" on="1"/>
        <pt x="257" y="658" on="0"/>
        <pt x="271" y="684" on="0"/>
        <pt x="316" y="711" on="0"/>
        <pt x="351" y="711" on="1"/>
        <pt x="590" y="25" on="1"/>
      </contour>
      <contour>
        <pt x="216" y="485" on="1"/>
        <pt x="139" y="263" on="1"/>
        <pt x="293" y="263" on="1"/>
      </contour>
      <contour>
        <pt x="304" y="836" on="1"/>
        <pt x="304" y="856" on="1"/>
        <pt x="489" y="779" on="1"/>
        <pt x="483" y="762" on="1"/>
      </contour>
      <contour>
        <pt x="304" y="856" on="1"/>
        <pt x="304" y="836" on="1"/>
        <pt x="125" y="762" on="1"/>
        <pt x="119" y="779" on="1"/>
      </contour>
    </TTGlyph>
    <TTGlyph name="Adieresis" xMin="-47" yMin="9" xMax="632" yMax="876">
      <contour>
        <pt x="632" y="25" on="1"/>
        <pt x="632" y="9" on="1"/>
        <pt x="310" y="9" on="1"/>
        <pt x="310" y="25" on="1"/>
        <pt x="378" y="25" on="1"/>
        <pt x="298" y="251" on="1"/>
        <pt x="135" y="251" on="1"/>
        <pt x="96" y="138" on="1"/>
        <pt x="86" y="111" on="0"/>
        <pt x="86" y="87" on="1"/>
        <pt x="86" y="25" on="0"/>
        <pt x="176" y="25" on="1"/>
        <pt x="209" y="25" on="1"/>
        <pt x="209" y="9" on="1"/>
        <pt x="-47" y="9" on="1"/>
        <pt x="-47" y="25" on="1"/>
        <pt x="-17" y="25" on="0"/>
        <pt x="23" y="38" on="0"/>
        <pt x="51" y="76" on="0"/>
        <pt x="65" y="109" on="0"/>
        <pt x="78" y="145" on="1"/>
        <pt x="247" y="629" on="1"/>
        <pt x="261" y="671" on="0"/>
        <pt x="278" y="687" on="1"/>
        <pt x="305" y="711" on="0"/>
        <pt x="351" y="711" on="1"/>
        <pt x="594" y="25" on="1"/>
      </contour>
      <contour>
        <pt x="217" y="482" on="1"/>
        <pt x="140" y="265" on="1"/>
        <pt x="293" y="265" on="1"/>
      </contour>
      <contour>
        <pt x="333" y="791" on="0"/>
        <pt x="333" y="841" on="0"/>
        <pt x="369" y="876" on="0"/>
        <pt x="419" y="876" on="0"/>
        <pt x="454" y="841" on="0"/>
        <pt x="454" y="791" on="0"/>
        <pt x="419" y="755" on="0"/>
        <pt x="369" y="755" on="0"/>
      </contour>
      <contour>
        <pt x="153" y="791" on="0"/>
        <pt x="153" y="841" on="0"/>
        <pt x="188" y="876" on="0"/>
        <pt x="238" y="876" on="0"/>
        <pt x="274" y="841" on="0"/>
        <pt x="274" y="791" on="0"/>
        <pt x="238" y="755" on="0"/>
        <pt x="188" y="755" on="0"/>
      </contour>
    </TTGlyph>
    <TTGlyph name="Agrave" xMin="-47" yMin="9" xMax="632" yMax="856">
      <contour>
        <pt x="632" y="25" on="1"/>
        <pt x="632" y="9" on="1"/>
        <pt x="310" y="9" on="1"/>
        <pt x="310" y="25" on="1"/>
        <pt x="378" y="25" on="1"/>
        <pt x="298" y="251" on="1"/>
        <pt x="135" y="251" on="1"/>
        <pt x="96" y="138" on="1"/>
        <pt x="86" y="111" on="0"/>
        <pt x="86" y="87" on="1"/>
        <pt x="86" y="25" on="0"/>
        <pt x="176" y="25" on="1"/>
        <pt x="209" y="25" on="1"/>
        <pt x="209" y="9" on="1"/>
        <pt x="-47" y="9" on="1"/>
        <pt x="-47" y="25" on="1"/>
        <pt x="-17" y="25" on="0"/>
        <pt x="23" y="38" on="0"/>
        <pt x="51" y="76" on="0"/>
        <pt x="65" y="109" on="0"/>
        <pt x="78" y="145" on="1"/>
        <pt x="247" y="629" on="1"/>
        <pt x="261" y="671" on="0"/>
        <pt x="278" y="687" on="1"/>
        <pt x="305" y="711" on="0"/>
        <pt x="351" y="711" on="1"/>
        <pt x="594" y="25" on="1"/>
      </contour>
      <contour>
        <pt x="217" y="482" on="1"/>
        <pt x="140" y="265" on="1"/>
        <pt x="293" y="265" on="1"/>
      </contour>
      <contour>
        <pt x="158" y="838" on="1"/>
        <pt x="163" y="856" on="1"/>
        <pt x="461" y="774" on="1"/>
        <pt x="456" y="757" on="1"/>
      </contour>
    </TTGlyph>
    <TTGlyph name="Aring" xMin="-47" yMin="9" xMax="632" yMax="876">
      <contour>
        <pt x="632" y="25" on="1"/>
        <pt x="632" y="9" on="1"/>
        <pt x="310" y="9" on="1"/>
        <pt x="310" y="25" on="1"/>
        <pt x="378" y="25" on="1"/>
        <pt x="298" y="251" on="1"/>
        <pt x="135" y="251" on="1"/>
        <pt x="96" y="138" on="1"/>
        <pt x="86" y="111" on="0"/>
        <pt x="86" y="87" on="1"/>
        <pt x="86" y="25" on="0"/>
        <pt x="176" y="25" on="1"/>
        <pt x="209" y="25" on="1"/>
        <pt x="209" y="9" on="1"/>
        <pt x="-47" y="9" on="1"/>
        <pt x="-47" y="25" on="1"/>
        <pt x="-17" y="25" on="0"/>
        <pt x="23" y="38" on="0"/>
        <pt x="51" y="76" on="0"/>
        <pt x="65" y="109" on="0"/>
        <pt x="78" y="145" on="1"/>
        <pt x="247" y="629" on="1"/>
        <pt x="261" y="671" on="0"/>
        <pt x="278" y="687" on="1"/>
        <pt x="305" y="711" on="0"/>
        <pt x="351" y="711" on="1"/>
        <pt x="594" y="25" on="1"/>
      </contour>
      <contour>
        <pt x="217" y="482" on="1"/>
        <pt x="140" y="265" on="1"/>
        <pt x="293" y="265" on="1"/>
      </contour>
      <contour>
        <pt x="264" y="833" on="0"/>
        <pt x="264" y="799" on="0"/>
        <pt x="289" y="773" on="0"/>
        <pt x="322" y="773" on="0"/>
        <pt x="347" y="799" on="0"/>
        <pt x="347" y="833" on="0"/>
        <pt x="322" y="858" on="0"/>
        <pt x="289" y="858" on="0"/>
      </contour>
      <contour>
        <pt x="280" y="755" on="0"/>
        <pt x="246" y="790" on="0"/>
        <pt x="246" y="841" on="0"/>
        <pt x="280" y="876" on="0"/>
        <pt x="330" y="876" on="0"/>
        <pt x="365" y="841" on="0"/>
        <pt x="365" y="790" on="0"/>
        <pt x="330" y="755" on="0"/>
      </contour>
    </TTGlyph>
    <TTGlyph name="Atilde" xMin="-47" yMin="9" xMax="632" yMax="828">
      <contour>
        <pt x="632" y="25" on="1"/>
        <pt x="632" y="9" on="1"/>
        <pt x="310" y="9" on="1"/>
        <pt x="310" y="25" on="1"/>
        <pt x="378" y="25" on="1"/>
        <pt x="298" y="251" on="1"/>
        <pt x="135" y="251" on="1"/>
        <pt x="96" y="138" on="1"/>
        <pt x="86" y="111" on="0"/>
        <pt x="86" y="87" on="1"/>
        <pt x="86" y="25" on="0"/>
        <pt x="176" y="25" on="1"/>
        <pt x="209" y="25" on="1"/>
        <pt x="209" y="9" on="1"/>
        <pt x="-47" y="9" on="1"/>
        <pt x="-47" y="25" on="1"/>
        <pt x="-17" y="25" on="0"/>
        <pt x="23" y="38" on="0"/>
        <pt x="51" y="76" on="0"/>
        <pt x="65" y="109" on="0"/>
        <pt x="78" y="145" on="1"/>
        <pt x="247" y="629" on="1"/>
        <pt x="261" y="671" on="0"/>
        <pt x="278" y="687" on="1"/>
        <pt x="305" y="711" on="0"/>
        <pt x="351" y="711" on="1"/>
        <pt x="594" y="25" on="1"/>
      </contour>
      <contour>
        <pt x="217" y="482" on="1"/>
        <pt x="140" y="265" on="1"/>
        <pt x="293" y="265" on="1"/>
      </contour>
      <contour>
        <pt x="373" y="775" on="1"/>
        <pt x="346" y="775" on="0"/>
        <pt x="252" y="807" on="0"/>
        <pt x="200" y="807" on="0"/>
        <pt x="159" y="790" on="0"/>
        <pt x="150" y="782" on="1"/>
        <pt x="140" y="774" on="1"/>
        <pt x="126" y="789" on="1"/>
        <pt x="166" y="827" on="0"/>
        <pt x="223" y="827" on="1"/>
        <pt x="258" y="827" on="0"/>
        <pt x="349" y="795" on="0"/>
        <pt x="398" y="795" on="0"/>
        <pt x="439" y="812" on="0"/>
        <pt x="448" y="820" on="1"/>
        <pt x="458" y="828" on="1"/>
        <pt x="472" y="813" on="1"/>
        <pt x="434" y="775" on="0"/>
      </contour>
    </TTGlyph>
    <TTGlyph name="B" xMin="29" yMin="9" xMax="694" yMax="719">
      <contour>
        <pt x="337" y="719" on="1"/>
        <pt x="500" y="719" on="0"/>
        <pt x="656" y="647" on="0"/>
        <pt x="656" y="570" on="1"/>
        <pt x="656" y="505" on="0"/>
        <pt x="553" y="408" on="0"/>
        <pt x="437" y="393" on="1"/>
        <pt x="437" y="387" on="1"/>
        <pt x="536" y="385" on="0"/>
        <pt x="610" y="346" on="1"/>
        <pt x="649" y="326" on="0"/>
        <pt x="694" y="256" on="0"/>
        <pt x="694" y="211" on="1"/>
        <pt x="694" y="9" on="0"/>
        <pt x="370" y="9" on="1"/>
        <pt x="29" y="9" on="1"/>
        <pt x="29" y="25" on="1"/>
        <pt x="103" y="25" on="1"/>
        <pt x="103" y="463" on="1"/>
        <pt x="151" y="411" on="0"/>
        <pt x="332" y="411" on="0"/>
        <pt x="452" y="491" on="0"/>
        <pt x="452" y="571" on="1"/>
        <pt x="452" y="629" on="0"/>
        <pt x="381" y="695" on="0"/>
        <pt x="230" y="695" on="0"/>
        <pt x="129" y="647" on="0"/>
        <pt x="117" y="607" on="1"/>
        <pt x="115" y="599" on="0"/>
        <pt x="115" y="596" on="1"/>
        <pt x="115" y="587" on="0"/>
        <pt x="132" y="587" on="0"/>
        <pt x="141" y="616" on="0"/>
        <pt x="177" y="646" on="0"/>
        <pt x="251" y="646" on="0"/>
        <pt x="298" y="596" on="0"/>
        <pt x="298" y="515" on="0"/>
        <pt x="241" y="461" on="0"/>
        <pt x="153" y="461" on="0"/>
        <pt x="91" y="525" on="0"/>
        <pt x="91" y="571" on="1"/>
        <pt x="91" y="647" on="0"/>
        <pt x="226" y="719" on="0"/>
      </contour>
      <contour>
        <pt x="421" y="25" on="0"/>
        <pt x="484" y="120" on="0"/>
        <pt x="484" y="303" on="0"/>
        <pt x="400" y="377" on="0"/>
        <pt x="331" y="377" on="1"/>
        <pt x="307" y="377" on="1"/>
        <pt x="307" y="25" on="1"/>
        <pt x="337" y="25" on="1"/>
      </contour>
    </TTGlyph>
    <TTGlyph name="C" xMin="38" yMin="-10" xMax="629" yMax="719">
      <contour>
        <pt x="608" y="552" on="1"/>
        <pt x="608" y="513" on="0"/>
        <pt x="557" y="442" on="0"/>
        <pt x="450" y="442" on="0"/>
        <pt x="395" y="501" on="0"/>
        <pt x="395" y="581" on="0"/>
        <pt x="441" y="635" on="0"/>
        <pt x="482" y="635" on="1"/>
        <pt x="555" y="635" on="0"/>
        <pt x="568" y="554" on="1"/>
        <pt x="569" y="545" on="0"/>
        <pt x="577" y="545" on="1"/>
        <pt x="588" y="545" on="0"/>
        <pt x="588" y="555" on="1"/>
        <pt x="588" y="603" on="0"/>
        <pt x="492" y="694" on="0"/>
        <pt x="325" y="694" on="0"/>
        <pt x="260" y="545" on="0"/>
        <pt x="260" y="187" on="0"/>
        <pt x="328" y="13" on="0"/>
        <pt x="404" y="13" on="1"/>
        <pt x="466" y="13" on="0"/>
        <pt x="563" y="94" on="0"/>
        <pt x="608" y="199" on="0"/>
        <pt x="608" y="246" on="1"/>
        <pt x="629" y="246" on="1"/>
        <pt x="622" y="127" on="0"/>
        <pt x="482" y="-10" on="0"/>
        <pt x="386" y="-10" on="1"/>
        <pt x="213" y="-10" on="0"/>
        <pt x="38" y="189" on="0"/>
        <pt x="38" y="357" on="1"/>
        <pt x="38" y="491" on="0"/>
        <pt x="119" y="600" on="1"/>
        <pt x="159" y="653" on="0"/>
        <pt x="295" y="719" on="0"/>
        <pt x="489" y="719" on="0"/>
        <pt x="608" y="614" on="0"/>
      </contour>
    </TTGlyph>
    <TTGlyph name="Ccedilla" xMin="30" yMin="-249" xMax="621" yMax="719">
      <contour>
        <pt x="319" y="700" on="0"/>
        <pt x="252" y="536" on="0"/>
        <pt x="252" y="184" on="0"/>
        <pt x="319" y="13" on="0"/>
        <pt x="396" y="13" on="1"/>
        <pt x="458" y="13" on="0"/>
        <pt x="555" y="94" on="0"/>
        <pt x="600" y="199" on="0"/>
        <pt x="600" y="246" on="1"/>
        <pt x="621" y="246" on="1"/>
        <pt x="614" y="127" on="0"/>
        <pt x="474" y="-10" on="0"/>
        <pt x="378" y="-10" on="1"/>
        <pt x="205" y="-10" on="0"/>
        <pt x="30" y="189" on="0"/>
        <pt x="30" y="357" on="1"/>
        <pt x="30" y="491" on="0"/>
        <pt x="111" y="600" on="1"/>
        <pt x="151" y="653" on="0"/>
        <pt x="287" y="719" on="0"/>
        <pt x="373" y="719" on="1"/>
        <pt x="426" y="719" on="0"/>
        <pt x="519" y="684" on="0"/>
        <pt x="557" y="684" on="0"/>
        <pt x="580" y="701" on="0"/>
        <pt x="587" y="719" on="1"/>
        <pt x="600" y="719" on="1"/>
        <pt x="600" y="435" on="1"/>
        <pt x="587" y="435" on="1"/>
        <pt x="577" y="469" on="0"/>
        <pt x="569" y="498" on="0"/>
        <pt x="545" y="566" on="0"/>
        <pt x="527" y="601" on="0"/>
        <pt x="495" y="654" on="0"/>
        <pt x="480" y="667" on="1"/>
        <pt x="440" y="700" on="0"/>
        <pt x="396" y="700" on="1"/>
      </contour>
      <contour>
        <pt x="294" y="-70" on="1"/>
        <pt x="320" y="-53" on="0"/>
        <pt x="399" y="-53" on="0"/>
        <pt x="459" y="-112" on="0"/>
        <pt x="459" y="-195" on="0"/>
        <pt x="401" y="-249" on="0"/>
        <pt x="329" y="-249" on="0"/>
        <pt x="285" y="-198" on="0"/>
        <pt x="285" y="-134" on="0"/>
        <pt x="330" y="-94" on="0"/>
        <pt x="380" y="-94" on="0"/>
        <pt x="420" y="-130" on="0"/>
        <pt x="422" y="-172" on="0"/>
        <pt x="440" y="-172" on="0"/>
        <pt x="440" y="-160" on="1"/>
        <pt x="440" y="-130" on="0"/>
        <pt x="398" y="-72" on="0"/>
        <pt x="358" y="-72" on="1"/>
        <pt x="335" y="-72" on="0"/>
        <pt x="290" y="-95" on="0"/>
        <pt x="279" y="-112" on="1"/>
        <pt x="262" y="-94" on="1"/>
        <pt x="299" y="4" on="1"/>
        <pt x="319" y="-4" on="1"/>
      </contour>
    </TTGlyph>
    <TTGlyph name="D" xMin="33" yMin="9" xMax="734" yMax="719">
      <contour>
        <pt x="418" y="666" on="0"/>
        <pt x="347" y="695" on="0"/>
        <pt x="224" y="695" on="0"/>
        <pt x="123" y="647" on="0"/>
        <pt x="111" y="607" on="1"/>
        <pt x="109" y="599" on="0"/>
        <pt x="109" y="596" on="1"/>
        <pt x="109" y="587" on="0"/>
        <pt x="126" y="587" on="0"/>
        <pt x="135" y="616" on="0"/>
        <pt x="171" y="646" on="0"/>
        <pt x="245" y="646" on="0"/>
        <pt x="292" y="596" on="0"/>
        <pt x="292" y="515" on="0"/>
        <pt x="235" y="461" on="0"/>
        <pt x="147" y="461" on="0"/>
        <pt x="85" y="525" on="0"/>
        <pt x="85" y="571" on="1"/>
        <pt x="85" y="646" on="0"/>
        <pt x="221" y="719" on="0"/>
        <pt x="421" y="719" on="0"/>
        <pt x="583" y="663" on="0"/>
        <pt x="633" y="614" on="1"/>
        <pt x="734" y="514" on="0"/>
        <pt x="734" y="363" on="1"/>
        <pt x="734" y="210" on="0"/>
        <pt x="648" y="114" on="1"/>
        <pt x="604" y="64" on="0"/>
        <pt x="454" y="9" on="0"/>
        <pt x="354" y="9" on="1"/>
        <pt x="33" y="9" on="1"/>
        <pt x="33" y="25" on="1"/>
        <pt x="97" y="25" on="1"/>
        <pt x="97" y="464" on="1"/>
        <pt x="136" y="422" on="0"/>
        <pt x="196" y="422" on="1"/>
        <pt x="231" y="422" on="0"/>
        <pt x="291" y="453" on="0"/>
        <pt x="301" y="469" on="1"/>
        <pt x="301" y="25" on="1"/>
        <pt x="334" y="25" on="1"/>
        <pt x="424" y="25" on="0"/>
        <pt x="512" y="178" on="0"/>
        <pt x="512" y="363" on="1"/>
        <pt x="512" y="558" on="0"/>
        <pt x="448" y="631" on="1"/>
      </contour>
    </TTGlyph>
    <TTGlyph name="Delta" xMin="45" yMin="9" xMax="646" yMax="709">
      <contour>
        <pt x="646" y="9" on="1"/>
        <pt x="45" y="9" on="1"/>
        <pt x="45" y="28" on="1"/>
        <pt x="288" y="709" on="1"/>
        <pt x="367" y="709" on="1"/>
        <pt x="646" y="28" on="1"/>
      </contour>
      <contour>
        <pt x="423" y="28" on="1"/>
        <pt x="235" y="502" on="1"/>
        <pt x="65" y="28" on="1"/>
      </contour>
    </TTGlyph>
    <TTGlyph name="E" xMin="36" yMin="-10" xMax="542" yMax="719">
      <contour>
        <pt x="309" y="719" on="1"/>
        <pt x="387" y="719" on="0"/>
        <pt x="510" y="652" on="0"/>
        <pt x="510" y="581" on="1"/>
        <pt x="510" y="537" on="0"/>
        <pt x="455" y="486" on="0"/>
        <pt x="380" y="486" on="0"/>
        <pt x="330" y="530" on="0"/>
        <pt x="330" y="600" on="0"/>
        <pt x="372" y="644" on="0"/>
        <pt x="434" y="644" on="0"/>
        <pt x="472" y="609" on="0"/>
        <pt x="472" y="591" on="1"/>
        <pt x="472" y="572" on="0"/>
        <pt x="460" y="552" on="0"/>
        <pt x="460" y="547" on="1"/>
        <pt x="460" y="538" on="0"/>
        <pt x="478" y="538" on="0"/>
        <pt x="491" y="564" on="0"/>
        <pt x="491" y="582" on="1"/>
        <pt x="491" y="624" on="0"/>
        <pt x="426" y="686" on="0"/>
        <pt x="319" y="686" on="0"/>
        <pt x="240" y="604" on="0"/>
        <pt x="240" y="486" on="0"/>
        <pt x="304" y="404" on="0"/>
        <pt x="358" y="404" on="1"/>
        <pt x="373" y="404" on="0"/>
        <pt x="422" y="426" on="1"/>
        <pt x="430" y="409" on="1"/>
        <pt x="330" y="360" on="0"/>
        <pt x="257" y="267" on="0"/>
        <pt x="257" y="126" on="0"/>
        <pt x="312" y="29" on="0"/>
        <pt x="443" y="29" on="0"/>
        <pt x="523" y="107" on="0"/>
        <pt x="523" y="162" on="1"/>
        <pt x="523" y="190" on="0"/>
        <pt x="510" y="190" on="1"/>
        <pt x="500" y="190" on="0"/>
        <pt x="500" y="181" on="1"/>
        <pt x="500" y="179" on="0"/>
        <pt x="504" y="169" on="0"/>
        <pt x="504" y="158" on="1"/>
        <pt x="504" y="131" on="0"/>
        <pt x="464" y="102" on="0"/>
        <pt x="408" y="102" on="0"/>
        <pt x="365" y="146" on="0"/>
        <pt x="365" y="216" on="0"/>
        <pt x="412" y="263" on="0"/>
        <pt x="490" y="263" on="0"/>
        <pt x="542" y="208" on="0"/>
        <pt x="542" y="164" on="1"/>
        <pt x="542" y="88" on="0"/>
        <pt x="411" y="-10" on="0"/>
        <pt x="163" y="-10" on="0"/>
        <pt x="36" y="108" on="0"/>
        <pt x="36" y="262" on="0"/>
        <pt x="148" y="364" on="0"/>
        <pt x="253" y="379" on="1"/>
        <pt x="250" y="388" on="1"/>
        <pt x="156" y="391" on="0"/>
        <pt x="58" y="482" on="0"/>
        <pt x="58" y="542" on="1"/>
        <pt x="58" y="620" on="0"/>
        <pt x="201" y="719" on="0"/>
      </contour>
    </TTGlyph>
    <TTGlyph name="Eacute" xMin="30" yMin="9" xMax="616" yMax="856">
      <contour>
        <pt x="30" y="9" on="1"/>
        <pt x="30" y="23" on="1"/>
        <pt x="94" y="23" on="1"/>
        <pt x="94" y="686" on="1"/>
        <pt x="30" y="686" on="1"/>
        <pt x="30" y="700" on="1"/>
        <pt x="597" y="700" on="1"/>
        <pt x="597" y="472" on="1"/>
        <pt x="583" y="472" on="1"/>
        <pt x="583" y="582" on="0"/>
        <pt x="489" y="686" on="0"/>
        <pt x="373" y="686" on="1"/>
        <pt x="298" y="686" on="1"/>
        <pt x="298" y="375" on="1"/>
        <pt x="335" y="375" on="1"/>
        <pt x="470" y="375" on="0"/>
        <pt x="470" y="519" on="1"/>
        <pt x="484" y="519" on="1"/>
        <pt x="484" y="214" on="1"/>
        <pt x="470" y="214" on="1"/>
        <pt x="470" y="286" on="0"/>
        <pt x="396" y="361" on="0"/>
        <pt x="331" y="361" on="1"/>
        <pt x="298" y="361" on="1"/>
        <pt x="298" y="23" on="1"/>
        <pt x="359" y="23" on="1"/>
        <pt x="532" y="23" on="0"/>
        <pt x="577" y="132" on="1"/>
        <pt x="602" y="192" on="0"/>
        <pt x="602" y="294" on="1"/>
        <pt x="616" y="294" on="1"/>
        <pt x="616" y="9" on="1"/>
      </contour>
      <contour>
        <pt x="502" y="856" on="1"/>
        <pt x="507" y="838" on="1"/>
        <pt x="209" y="757" on="1"/>
        <pt x="204" y="774" on="1"/>
      </contour>
    </TTGlyph>
    <TTGlyph name="Ecircumflex" xMin="30" yMin="9" xMax="616" yMax="856">
      <contour>
        <pt x="30" y="9" on="1"/>
        <pt x="30" y="25" on="1"/>
        <pt x="94" y="25" on="1"/>
        <pt x="94" y="684" on="1"/>
        <pt x="30" y="684" on="1"/>
        <pt x="30" y="700" on="1"/>
        <pt x="597" y="700" on="1"/>
        <pt x="597" y="472" on="1"/>
        <pt x="581" y="472" on="1"/>
        <pt x="581" y="582" on="0"/>
        <pt x="489" y="684" on="0"/>
        <pt x="373" y="684" on="1"/>
        <pt x="298" y="684" on="1"/>
        <pt x="298" y="376" on="1"/>
        <pt x="335" y="376" on="1"/>
        <pt x="467" y="376" on="0"/>
        <pt x="467" y="519" on="1"/>
        <pt x="484" y="519" on="1"/>
        <pt x="484" y="214" on="1"/>
        <pt x="467" y="214" on="1"/>
        <pt x="467" y="286" on="0"/>
        <pt x="396" y="360" on="0"/>
        <pt x="331" y="360" on="1"/>
        <pt x="298" y="360" on="1"/>
        <pt x="298" y="25" on="1"/>
        <pt x="359" y="25" on="1"/>
        <pt x="510" y="25" on="0"/>
        <pt x="558" y="102" on="1"/>
        <pt x="583" y="141" on="0"/>
        <pt x="600" y="229" on="0"/>
        <pt x="600" y="294" on="1"/>
        <pt x="616" y="294" on="1"/>
        <pt x="616" y="9" on="1"/>
      </contour>
      <contour>
        <pt x="361" y="836" on="1"/>
        <pt x="361" y="856" on="1"/>
        <pt x="546" y="779" on="1"/>
        <pt x="540" y="762" on="1"/>
      </contour>
      <contour>
        <pt x="361" y="856" on="1"/>
        <pt x="361" y="836" on="1"/>
        <pt x="182" y="762" on="1"/>
        <pt x="176" y="779" on="1"/>
      </contour>
    </TTGlyph>
    <TTGlyph name="Edieresis" xMin="30" yMin="9" xMax="616" yMax="876">
      <contour>
        <pt x="30" y="9" on="1"/>
        <pt x="30" y="23" on="1"/>
        <pt x="94" y="23" on="1"/>
        <pt x="94" y="686" on="1"/>
        <pt x="30" y="686" on="1"/>
        <pt x="30" y="700" on="1"/>
        <pt x="597" y="700" on="1"/>
        <pt x="597" y="472" on="1"/>
        <pt x="583" y="472" on="1"/>
        <pt x="583" y="582" on="0"/>
        <pt x="489" y="686" on="0"/>
        <pt x="373" y="686" on="1"/>
        <pt x="298" y="686" on="1"/>
        <pt x="298" y="375" on="1"/>
        <pt x="335" y="375" on="1"/>
        <pt x="470" y="375" on="0"/>
        <pt x="470" y="519" on="1"/>
        <pt x="484" y="519" on="1"/>
        <pt x="484" y="214" on="1"/>
        <pt x="470" y="214" on="1"/>
        <pt x="470" y="286" on="0"/>
        <pt x="396" y="361" on="0"/>
        <pt x="331" y="361" on="1"/>
        <pt x="298" y="361" on="1"/>
        <pt x="298" y="23" on="1"/>
        <pt x="359" y="23" on="1"/>
        <pt x="532" y="23" on="0"/>
        <pt x="577" y="132" on="1"/>
        <pt x="602" y="192" on="0"/>
        <pt x="602" y="294" on="1"/>
        <pt x="616" y="294" on="1"/>
        <pt x="616" y="9" on="1"/>
      </contour>
      <contour>
        <pt x="373" y="791" on="0"/>
        <pt x="373" y="841" on="0"/>
        <pt x="409" y="876" on="0"/>
        <pt x="459" y="876" on="0"/>
        <pt x="494" y="841" on="0"/>
        <pt x="494" y="791" on="0"/>
        <pt x="459" y="755" on="0"/>
        <pt x="409" y="755" on="0"/>
      </contour>
      <contour>
        <pt x="193" y="791" on="0"/>
        <pt x="193" y="841" on="0"/>
        <pt x="228" y="876" on="0"/>
        <pt x="278" y="876" on="0"/>
        <pt x="314" y="841" on="0"/>
        <pt x="314" y="791" on="0"/>
        <pt x="278" y="755" on="0"/>
        <pt x="228" y="755" on="0"/>
      </contour>
    </TTGlyph>
    <TTGlyph name="Egrave" xMin="30" yMin="9" xMax="616" yMax="864">
      <contour>
        <pt x="30" y="9" on="1"/>
        <pt x="30" y="25" on="1"/>
        <pt x="94" y="25" on="1"/>
        <pt x="94" y="684" on="1"/>
        <pt x="30" y="684" on="1"/>
        <pt x="30" y="700" on="1"/>
        <pt x="597" y="700" on="1"/>
        <pt x="597" y="472" on="1"/>
        <pt x="581" y="472" on="1"/>
        <pt x="581" y="582" on="0"/>
        <pt x="489" y="684" on="0"/>
        <pt x="373" y="684" on="1"/>
        <pt x="298" y="684" on="1"/>
        <pt x="298" y="376" on="1"/>
        <pt x="335" y="376" on="1"/>
        <pt x="467" y="376" on="0"/>
        <pt x="467" y="519" on="1"/>
        <pt x="484" y="519" on="1"/>
        <pt x="484" y="214" on="1"/>
        <pt x="467" y="214" on="1"/>
        <pt x="467" y="286" on="0"/>
        <pt x="396" y="360" on="0"/>
        <pt x="331" y="360" on="1"/>
        <pt x="298" y="360" on="1"/>
        <pt x="298" y="25" on="1"/>
        <pt x="359" y="25" on="1"/>
        <pt x="510" y="25" on="0"/>
        <pt x="558" y="102" on="1"/>
        <pt x="583" y="141" on="0"/>
        <pt x="600" y="229" on="0"/>
        <pt x="600" y="294" on="1"/>
        <pt x="616" y="294" on="1"/>
        <pt x="616" y="9" on="1"/>
      </contour>
      <contour>
        <pt x="191" y="846" on="1"/>
        <pt x="196" y="864" on="1"/>
        <pt x="494" y="782" on="1"/>
        <pt x="489" y="765" on="1"/>
      </contour>
    </TTGlyph>
    <TTGlyph name="Eth" xMin="30" yMin="0" xMax="732" yMax="700">
      <contour>
        <pt x="351" y="0" on="1"/>
        <pt x="30" y="0" on="1"/>
        <pt x="30" y="14" on="1"/>
        <pt x="94" y="14" on="1"/>
        <pt x="94" y="356" on="1"/>
        <pt x="30" y="356" on="1"/>
        <pt x="30" y="377" on="1"/>
        <pt x="94" y="377" on="1"/>
        <pt x="94" y="686" on="1"/>
        <pt x="30" y="686" on="1"/>
        <pt x="30" y="700" on="1"/>
        <pt x="341" y="700" on="1"/>
        <pt x="551" y="700" on="0"/>
        <pt x="644" y="602" on="1"/>
        <pt x="732" y="509" on="0"/>
        <pt x="732" y="198" on="0"/>
        <pt x="547" y="0" on="0"/>
      </contour>
      <contour>
        <pt x="298" y="14" on="1"/>
        <pt x="331" y="14" on="1"/>
        <pt x="421" y="14" on="0"/>
        <pt x="510" y="170" on="0"/>
        <pt x="510" y="538" on="0"/>
        <pt x="420" y="686" on="0"/>
        <pt x="338" y="686" on="1"/>
        <pt x="298" y="686" on="1"/>
        <pt x="298" y="377" on="1"/>
        <pt x="406" y="377" on="1"/>
        <pt x="406" y="356" on="1"/>
        <pt x="298" y="356" on="1"/>
      </contour>
    </TTGlyph>
    <TTGlyph name="Euro" xMin="10" yMin="-10" xMax="485" yMax="508">
      <contour>
        <pt x="466" y="154" on="1"/>
        <pt x="467" y="164" on="1"/>
        <pt x="485" y="164" on="1"/>
        <pt x="477" y="99" on="0"/>
        <pt x="413" y="17" on="0"/>
        <pt x="338" y="-10" on="0"/>
        <pt x="293" y="-10" on="1"/>
        <pt x="201" y="-10" on="0"/>
        <pt x="78" y="113" on="0"/>
        <pt x="68" y="220" on="1"/>
        <pt x="10" y="220" on="1"/>
        <pt x="10" y="236" on="1"/>
        <pt x="66" y="236" on="1"/>
        <pt x="66" y="280" on="1"/>
        <pt x="10" y="280" on="1"/>
        <pt x="10" y="296" on="1"/>
        <pt x="68" y="296" on="1"/>
        <pt x="80" y="396" on="0"/>
        <pt x="226" y="508" on="0"/>
        <pt x="330" y="508" on="1"/>
        <pt x="365" y="508" on="0"/>
        <pt x="414" y="487" on="1"/>
        <pt x="425" y="483" on="0"/>
        <pt x="438" y="483" on="1"/>
        <pt x="462" y="483" on="0"/>
        <pt x="462" y="508" on="1"/>
        <pt x="478" y="508" on="1"/>
        <pt x="478" y="315" on="1"/>
        <pt x="462" y="315" on="1"/>
        <pt x="456" y="345" on="0"/>
        <pt x="451" y="373" on="0"/>
        <pt x="432" y="432" on="0"/>
        <pt x="412" y="462" on="0"/>
        <pt x="376" y="488" on="0"/>
        <pt x="353" y="488" on="1"/>
        <pt x="306" y="488" on="0"/>
        <pt x="269" y="400" on="0"/>
        <pt x="267" y="296" on="1"/>
        <pt x="393" y="296" on="1"/>
        <pt x="393" y="280" on="1"/>
        <pt x="267" y="280" on="1"/>
        <pt x="267" y="236" on="1"/>
        <pt x="393" y="236" on="1"/>
        <pt x="393" y="220" on="1"/>
        <pt x="267" y="220" on="1"/>
        <pt x="267" y="66" on="0"/>
        <pt x="302" y="32" on="1"/>
        <pt x="318" y="18" on="0"/>
        <pt x="342" y="18" on="1"/>
        <pt x="392" y="18" on="0"/>
        <pt x="462" y="109" on="0"/>
      </contour>
    </TTGlyph>
    <TTGlyph name="F" xMin="29" yMin="9" xMax="625" yMax="719">
      <contour>
        <pt x="362" y="25" on="1"/>
        <pt x="362" y="9" on="1"/>
        <pt x="30" y="9" on="1"/>
        <pt x="30" y="25" on="1"/>
        <pt x="94" y="25" on="1"/>
        <pt x="94" y="671" on="1"/>
        <pt x="29" y="683" on="1"/>
        <pt x="33" y="699" on="1"/>
        <pt x="115" y="682" on="0"/>
        <pt x="282" y="682" on="0"/>
        <pt x="461" y="719" on="0"/>
        <pt x="555" y="719" on="0"/>
        <pt x="625" y="659" on="0"/>
        <pt x="625" y="558" on="0"/>
        <pt x="563" y="493" on="0"/>
        <pt x="480" y="493" on="0"/>
        <pt x="423" y="546" on="0"/>
        <pt x="423" y="622" on="0"/>
        <pt x="470" y="676" on="0"/>
        <pt x="507" y="676" on="1"/>
        <pt x="563" y="676" on="0"/>
        <pt x="581" y="633" on="1"/>
        <pt x="581" y="631" on="0"/>
        <pt x="584" y="626" on="1"/>
        <pt x="587" y="619" on="0"/>
        <pt x="592" y="619" on="1"/>
        <pt x="601" y="619" on="0"/>
        <pt x="601" y="629" on="1"/>
        <pt x="601" y="651" on="0"/>
        <pt x="549" y="700" on="0"/>
        <pt x="474" y="700" on="0"/>
        <pt x="423" y="692" on="0"/>
        <pt x="338" y="674" on="0"/>
        <pt x="298" y="668" on="1"/>
        <pt x="298" y="356" on="1"/>
        <pt x="338" y="356" on="1"/>
        <pt x="397" y="356" on="0"/>
        <pt x="450" y="414" on="0"/>
        <pt x="450" y="479" on="1"/>
        <pt x="466" y="479" on="1"/>
        <pt x="466" y="217" on="1"/>
        <pt x="450" y="217" on="1"/>
        <pt x="450" y="282" on="0"/>
        <pt x="397" y="340" on="0"/>
        <pt x="338" y="340" on="1"/>
        <pt x="298" y="340" on="1"/>
        <pt x="298" y="25" on="1"/>
      </contour>
    </TTGlyph>
    <TTGlyph name="G" xMin="28" yMin="-274" xMax="698" yMax="719">
      <contour>
        <pt x="441" y="-274" on="1"/>
        <pt x="392" y="-274" on="0"/>
        <pt x="310" y="-210" on="0"/>
        <pt x="310" y="-109" on="0"/>
        <pt x="372" y="-45" on="0"/>
        <pt x="454" y="-45" on="0"/>
        <pt x="510" y="-97" on="0"/>
        <pt x="510" y="-174" on="0"/>
        <pt x="463" y="-227" on="0"/>
        <pt x="380" y="-227" on="0"/>
        <pt x="359" y="-190" on="1"/>
        <pt x="353" y="-178" on="0"/>
        <pt x="347" y="-178" on="1"/>
        <pt x="337" y="-178" on="0"/>
        <pt x="337" y="-189" on="1"/>
        <pt x="337" y="-193" on="0"/>
        <pt x="351" y="-220" on="0"/>
        <pt x="404" y="-254" on="0"/>
        <pt x="437" y="-254" on="1"/>
        <pt x="494" y="-254" on="0"/>
        <pt x="553" y="-184" on="0"/>
        <pt x="553" y="-102" on="0"/>
        <pt x="533" y="-50" on="0"/>
        <pt x="519" y="-36" on="1"/>
        <pt x="491" y="-6" on="0"/>
        <pt x="467" y="1" on="1"/>
        <pt x="457" y="4" on="1"/>
        <pt x="417" y="-10" on="0"/>
        <pt x="376" y="-10" on="1"/>
        <pt x="203" y="-10" on="0"/>
        <pt x="28" y="189" on="0"/>
        <pt x="28" y="357" on="1"/>
        <pt x="28" y="467" on="0"/>
        <pt x="82" y="556" on="1"/>
        <pt x="143" y="657" on="0"/>
        <pt x="259" y="697" on="1"/>
        <pt x="323" y="719" on="0"/>
        <pt x="401" y="719" on="1"/>
        <pt x="509" y="719" on="0"/>
        <pt x="628" y="614" on="0"/>
        <pt x="628" y="552" on="1"/>
        <pt x="628" y="513" on="0"/>
        <pt x="577" y="442" on="0"/>
        <pt x="470" y="442" on="0"/>
        <pt x="415" y="501" on="0"/>
        <pt x="415" y="581" on="0"/>
        <pt x="461" y="635" on="0"/>
        <pt x="502" y="635" on="1"/>
        <pt x="575" y="635" on="0"/>
        <pt x="588" y="554" on="1"/>
        <pt x="589" y="545" on="0"/>
        <pt x="597" y="545" on="1"/>
        <pt x="608" y="545" on="0"/>
        <pt x="608" y="555" on="1"/>
        <pt x="608" y="603" on="0"/>
        <pt x="512" y="694" on="0"/>
        <pt x="423" y="694" on="1"/>
        <pt x="381" y="694" on="0"/>
        <pt x="323" y="668" on="0"/>
        <pt x="298" y="633" on="1"/>
        <pt x="250" y="564" on="0"/>
        <pt x="250" y="360" on="1"/>
        <pt x="250" y="13" on="0"/>
        <pt x="394" y="13" on="1"/>
        <pt x="428" y="13" on="0"/>
        <pt x="457" y="25" on="1"/>
        <pt x="457" y="271" on="1"/>
        <pt x="409" y="271" on="1"/>
        <pt x="409" y="287" on="1"/>
        <pt x="698" y="287" on="1"/>
        <pt x="698" y="271" on="1"/>
        <pt x="646" y="271" on="1"/>
        <pt x="646" y="-29" on="1"/>
        <pt x="646" y="-147" on="0"/>
        <pt x="535" y="-274" on="0"/>
      </contour>
    </TTGlyph>
    <TTGlyph name="H" xMin="-34" yMin="-10" xMax="764" yMax="719">
      <contour>
        <pt x="321" y="361" on="1"/>
        <pt x="391" y="364" on="0"/>
        <pt x="470" y="370" on="1"/>
        <pt x="470" y="495" on="1"/>
        <pt x="470" y="597" on="0"/>
        <pt x="498" y="654" on="1"/>
        <pt x="530" y="719" on="0"/>
        <pt x="630" y="719" on="1"/>
        <pt x="695" y="719" on="0"/>
        <pt x="764" y="644" on="0"/>
        <pt x="764" y="585" on="1"/>
        <pt x="764" y="461" on="0"/>
        <pt x="674" y="404" on="1"/>
        <pt x="674" y="25" on="1"/>
        <pt x="738" y="25" on="1"/>
        <pt x="738" y="9" on="1"/>
        <pt x="406" y="9" on="1"/>
        <pt x="406" y="25" on="1"/>
        <pt x="470" y="25" on="1"/>
        <pt x="470" y="350" on="1"/>
        <pt x="419" y="346" on="0"/>
        <pt x="396" y="345" on="1"/>
        <pt x="321" y="342" on="1"/>
        <pt x="321" y="204" on="1"/>
        <pt x="321" y="101" on="0"/>
        <pt x="236" y="-10" on="0"/>
        <pt x="131" y="-10" on="1"/>
        <pt x="52" y="-10" on="0"/>
        <pt x="-34" y="84" on="0"/>
        <pt x="-34" y="234" on="0"/>
        <pt x="44" y="319" on="0"/>
        <pt x="117" y="338" on="1"/>
        <pt x="117" y="684" on="1"/>
        <pt x="43" y="684" on="1"/>
        <pt x="43" y="700" on="1"/>
        <pt x="385" y="700" on="1"/>
        <pt x="385" y="684" on="1"/>
        <pt x="321" y="684" on="1"/>
      </contour>
      <contour>
        <pt x="80" y="23" on="1"/>
        <pt x="117" y="23" on="0"/>
        <pt x="117" y="80" on="1"/>
        <pt x="117" y="318" on="1"/>
        <pt x="-14" y="282" on="0"/>
        <pt x="-14" y="161" on="1"/>
        <pt x="-14" y="103" on="0"/>
        <pt x="39" y="23" on="0"/>
      </contour>
      <contour>
        <pt x="674" y="622" on="1"/>
        <pt x="674" y="430" on="1"/>
        <pt x="744" y="482" on="0"/>
        <pt x="744" y="587" on="1"/>
        <pt x="744" y="625" on="0"/>
        <pt x="715" y="675" on="0"/>
        <pt x="683" y="675" on="0"/>
        <pt x="674" y="655" on="0"/>
      </contour>
    </TTGlyph>
    <TTGlyph name="I" xMin="30" yMin="9" xMax="394" yMax="878">
      <contour>
        <pt x="122" y="612" on="1"/>
        <pt x="215" y="612" on="0"/>
        <pt x="322" y="679" on="0"/>
        <pt x="322" y="750" on="1"/>
        <pt x="322" y="798" on="0"/>
        <pt x="258" y="859" on="0"/>
        <pt x="173" y="859" on="0"/>
        <pt x="156" y="842" on="1"/>
        <pt x="153" y="839" on="0"/>
        <pt x="153" y="834" on="1"/>
        <pt x="153" y="825" on="0"/>
        <pt x="161" y="825" on="1"/>
        <pt x="164" y="825" on="0"/>
        <pt x="191" y="839" on="0"/>
        <pt x="208" y="839" on="1"/>
        <pt x="244" y="839" on="0"/>
        <pt x="295" y="791" on="0"/>
        <pt x="295" y="706" on="0"/>
        <pt x="235" y="653" on="0"/>
        <pt x="142" y="653" on="0"/>
        <pt x="85" y="717" on="0"/>
        <pt x="85" y="805" on="0"/>
        <pt x="152" y="878" on="0"/>
        <pt x="267" y="878" on="0"/>
        <pt x="341" y="807" on="0"/>
        <pt x="341" y="693" on="0"/>
        <pt x="308" y="655" on="1"/>
        <pt x="308" y="25" on="1"/>
        <pt x="394" y="25" on="1"/>
        <pt x="394" y="9" on="1"/>
        <pt x="30" y="9" on="1"/>
        <pt x="30" y="25" on="1"/>
        <pt x="104" y="25" on="1"/>
        <pt x="104" y="592" on="1"/>
        <pt x="73" y="592" on="0"/>
        <pt x="40" y="598" on="1"/>
        <pt x="40" y="617" on="1"/>
        <pt x="75" y="612" on="0"/>
      </contour>
    </TTGlyph>
    <TTGlyph name="Iacute" xMin="30" yMin="9" xMax="394" yMax="856">
      <contour>
        <pt x="394" y="25" on="1"/>
        <pt x="394" y="9" on="1"/>
        <pt x="30" y="9" on="1"/>
        <pt x="30" y="25" on="1"/>
        <pt x="104" y="25" on="1"/>
        <pt x="104" y="684" on="1"/>
        <pt x="30" y="684" on="1"/>
        <pt x="30" y="700" on="1"/>
        <pt x="392" y="700" on="1"/>
        <pt x="392" y="684" on="1"/>
        <pt x="308" y="684" on="1"/>
        <pt x="308" y="25" on="1"/>
      </contour>
      <contour>
        <pt x="372" y="856" on="1"/>
        <pt x="377" y="838" on="1"/>
        <pt x="79" y="757" on="1"/>
        <pt x="74" y="774" on="1"/>
      </contour>
    </TTGlyph>
    <TTGlyph name="Icircumflex" xMin="25" yMin="9" xMax="395" yMax="856">
      <contour>
        <pt x="394" y="25" on="1"/>
        <pt x="394" y="9" on="1"/>
        <pt x="30" y="9" on="1"/>
        <pt x="30" y="25" on="1"/>
        <pt x="104" y="25" on="1"/>
        <pt x="104" y="684" on="1"/>
        <pt x="30" y="684" on="1"/>
        <pt x="30" y="700" on="1"/>
        <pt x="392" y="700" on="1"/>
        <pt x="392" y="684" on="1"/>
        <pt x="308" y="684" on="1"/>
        <pt x="308" y="25" on="1"/>
      </contour>
      <contour>
        <pt x="210" y="836" on="1"/>
        <pt x="210" y="856" on="1"/>
        <pt x="395" y="779" on="1"/>
        <pt x="389" y="762" on="1"/>
      </contour>
      <contour>
        <pt x="210" y="856" on="1"/>
        <pt x="210" y="836" on="1"/>
        <pt x="31" y="762" on="1"/>
        <pt x="25" y="779" on="1"/>
      </contour>
    </TTGlyph>
    <TTGlyph name="Idieresis" xMin="30" yMin="9" xMax="394" yMax="876">
      <contour>
        <pt x="394" y="23" on="1"/>
        <pt x="394" y="9" on="1"/>
        <pt x="30" y="9" on="1"/>
        <pt x="30" y="23" on="1"/>
        <pt x="104" y="23" on="1"/>
        <pt x="104" y="686" on="1"/>
        <pt x="30" y="686" on="1"/>
        <pt x="30" y="700" on="1"/>
        <pt x="392" y="700" on="1"/>
        <pt x="392" y="686" on="1"/>
        <pt x="308" y="686" on="1"/>
        <pt x="308" y="23" on="1"/>
      </contour>
      <contour>
        <pt x="235" y="791" on="0"/>
        <pt x="235" y="841" on="0"/>
        <pt x="271" y="876" on="0"/>
        <pt x="321" y="876" on="0"/>
        <pt x="356" y="841" on="0"/>
        <pt x="356" y="791" on="0"/>
        <pt x="321" y="755" on="0"/>
        <pt x="271" y="755" on="0"/>
      </contour>
      <contour>
        <pt x="55" y="791" on="0"/>
        <pt x="55" y="841" on="0"/>
        <pt x="90" y="876" on="0"/>
        <pt x="140" y="876" on="0"/>
        <pt x="176" y="841" on="0"/>
        <pt x="176" y="791" on="0"/>
        <pt x="140" y="755" on="0"/>
        <pt x="90" y="755" on="0"/>
      </contour>
    </TTGlyph>
    <TTGlyph name="Igrave" xMin="30" yMin="9" xMax="394" yMax="868">
      <contour>
        <pt x="394" y="25" on="1"/>
        <pt x="394" y="9" on="1"/>
        <pt x="30" y="9" on="1"/>
        <pt x="30" y="25" on="1"/>
        <pt x="104" y="25" on="1"/>
        <pt x="104" y="684" on="1"/>
        <pt x="30" y="684" on="1"/>
        <pt x="30" y="700" on="1"/>
        <pt x="392" y="700" on="1"/>
        <pt x="392" y="684" on="1"/>
        <pt x="308" y="684" on="1"/>
        <pt x="308" y="25" on="1"/>
      </contour>
      <contour>
        <pt x="60" y="850" on="1"/>
        <pt x="65" y="868" on="1"/>
        <pt x="363" y="786" on="1"/>
        <pt x="358" y="769" on="1"/>
      </contour>
    </TTGlyph>
    <TTGlyph name="Itilde" xMin="30" yMin="9" xMax="394" yMax="828">
      <contour>
        <pt x="394" y="25" on="1"/>
        <pt x="394" y="9" on="1"/>
        <pt x="30" y="9" on="1"/>
        <pt x="30" y="25" on="1"/>
        <pt x="104" y="25" on="1"/>
        <pt x="104" y="684" on="1"/>
        <pt x="30" y="684" on="1"/>
        <pt x="30" y="700" on="1"/>
        <pt x="392" y="700" on="1"/>
        <pt x="392" y="684" on="1"/>
        <pt x="308" y="684" on="1"/>
        <pt x="308" y="25" on="1"/>
      </contour>
      <contour>
        <pt x="283" y="775" on="1"/>
        <pt x="256" y="775" on="0"/>
        <pt x="162" y="807" on="0"/>
        <pt x="110" y="807" on="0"/>
        <pt x="69" y="790" on="0"/>
        <pt x="60" y="782" on="1"/>
        <pt x="50" y="774" on="1"/>
        <pt x="36" y="789" on="1"/>
        <pt x="76" y="827" on="0"/>
        <pt x="133" y="827" on="1"/>
        <pt x="168" y="827" on="0"/>
        <pt x="259" y="795" on="0"/>
        <pt x="308" y="795" on="0"/>
        <pt x="349" y="812" on="0"/>
        <pt x="358" y="820" on="1"/>
        <pt x="368" y="828" on="1"/>
        <pt x="382" y="813" on="1"/>
        <pt x="344" y="775" on="0"/>
      </contour>
    </TTGlyph>
    <TTGlyph name="J" xMin="-67" yMin="-110" xMax="484" yMax="700">
      <contour>
        <pt x="147" y="-110" on="1"/>
        <pt x="37" y="-110" on="0"/>
        <pt x="-67" y="-9" on="0"/>
        <pt x="-67" y="55" on="1"/>
        <pt x="-67" y="103" on="0"/>
        <pt x="-3" y="184" on="0"/>
        <pt x="98" y="184" on="0"/>
        <pt x="162" y="122" on="0"/>
        <pt x="162" y="40" on="0"/>
        <pt x="110" y="-16" on="0"/>
        <pt x="33" y="-16" on="0"/>
        <pt x="-20" y="31" on="0"/>
        <pt x="-20" y="72" on="1"/>
        <pt x="-20" y="118" on="0"/>
        <pt x="17" y="136" on="1"/>
        <pt x="26" y="140" on="0"/>
        <pt x="26" y="146" on="1"/>
        <pt x="26" y="156" on="0"/>
        <pt x="15" y="156" on="1"/>
        <pt x="8" y="156" on="0"/>
        <pt x="-5" y="146" on="1"/>
        <pt x="-48" y="112" on="0"/>
        <pt x="-48" y="-2" on="0"/>
        <pt x="37" y="-77" on="0"/>
        <pt x="149" y="-77" on="0"/>
        <pt x="195" y="1" on="0"/>
        <pt x="195" y="76" on="1"/>
        <pt x="195" y="684" on="1"/>
        <pt x="122" y="684" on="1"/>
        <pt x="122" y="700" on="1"/>
        <pt x="484" y="700" on="1"/>
        <pt x="484" y="684" on="1"/>
        <pt x="400" y="684" on="1"/>
        <pt x="400" y="138" on="1"/>
        <pt x="400" y="25" on="0"/>
        <pt x="278" y="-110" on="0"/>
      </contour>
    </TTGlyph>
    <TTGlyph name="Jcircumflex" xMin="10" yMin="-205" xMax="435" yMax="877">
      <contour>
        <pt x="64" y="800" on="1"/>
        <pt x="249" y="877" on="1"/>
        <pt x="435" y="800" on="1"/>
        <pt x="429" y="783" on="1"/>
        <pt x="249" y="855" on="1"/>
        <pt x="70" y="783" on="1"/>
      </contour>
      <contour>
        <pt x="141" y="-205" on="1"/>
        <pt x="92" y="-205" on="0"/>
        <pt x="10" y="-141" on="0"/>
        <pt x="10" y="-40" on="0"/>
        <pt x="72" y="24" on="0"/>
        <pt x="154" y="24" on="0"/>
        <pt x="210" y="-28" on="0"/>
        <pt x="210" y="-105" on="0"/>
        <pt x="163" y="-158" on="0"/>
        <pt x="124" y="-158" on="1"/>
        <pt x="102" y="-158" on="0"/>
        <pt x="70" y="-142" on="0"/>
        <pt x="65" y="-134" on="1"/>
        <pt x="60" y="-125" on="1"/>
        <pt x="54" y="-113" on="0"/>
        <pt x="48" y="-113" on="1"/>
        <pt x="39" y="-113" on="0"/>
        <pt x="39" y="-122" on="1"/>
        <pt x="39" y="-124" on="0"/>
        <pt x="52" y="-153" on="0"/>
        <pt x="104" y="-186" on="0"/>
        <pt x="137" y="-186" on="1"/>
        <pt x="194" y="-186" on="0"/>
        <pt x="253" y="-115" on="0"/>
        <pt x="253" y="-33" on="0"/>
        <pt x="230" y="19" on="0"/>
        <pt x="214" y="34" on="1"/>
        <pt x="180" y="63" on="0"/>
        <pt x="152" y="70" on="1"/>
        <pt x="141" y="73" on="1"/>
        <pt x="141" y="686" on="1"/>
        <pt x="68" y="686" on="1"/>
        <pt x="68" y="700" on="1"/>
        <pt x="430" y="700" on="1"/>
        <pt x="430" y="686" on="1"/>
        <pt x="346" y="686" on="1"/>
        <pt x="346" y="40" on="1"/>
        <pt x="346" y="-78" on="0"/>
        <pt x="235" y="-205" on="0"/>
      </contour>
    </TTGlyph>
    <TTGlyph name="K" xMin="47" yMin="-10" xMax="712" yMax="712">
      <contour>
        <pt x="440" y="189" on="1"/>
        <pt x="440" y="363" on="0"/>
        <pt x="323" y="363" on="1"/>
        <pt x="319" y="363" on="0"/>
        <pt x="315" y="363" on="1"/>
        <pt x="315" y="22" on="1"/>
        <pt x="378" y="22" on="1"/>
        <pt x="378" y="9" on="1"/>
        <pt x="47" y="9" on="1"/>
        <pt x="47" y="22" on="1"/>
        <pt x="111" y="22" on="1"/>
        <pt x="111" y="687" on="1"/>
        <pt x="47" y="687" on="1"/>
        <pt x="47" y="700" on="1"/>
        <pt x="362" y="700" on="1"/>
        <pt x="362" y="687" on="1"/>
        <pt x="315" y="687" on="1"/>
        <pt x="315" y="382" on="1"/>
        <pt x="438" y="383" on="0"/>
        <pt x="609" y="495" on="0"/>
        <pt x="609" y="584" on="1"/>
        <pt x="609" y="633" on="0"/>
        <pt x="552" y="693" on="0"/>
        <pt x="504" y="693" on="1"/>
        <pt x="488" y="693" on="0"/>
        <pt x="452" y="680" on="0"/>
        <pt x="452" y="661" on="0"/>
        <pt x="461" y="661" on="1"/>
        <pt x="463" y="661" on="0"/>
        <pt x="489" y="672" on="0"/>
        <pt x="502" y="672" on="1"/>
        <pt x="537" y="672" on="0"/>
        <pt x="583" y="624" on="0"/>
        <pt x="583" y="551" on="0"/>
        <pt x="530" y="496" on="0"/>
        <pt x="444" y="496" on="0"/>
        <pt x="389" y="560" on="0"/>
        <pt x="389" y="647" on="0"/>
        <pt x="457" y="712" on="0"/>
        <pt x="559" y="712" on="0"/>
        <pt x="628" y="641" on="0"/>
        <pt x="628" y="530" on="0"/>
        <pt x="557" y="423" on="0"/>
        <pt x="476" y="391" on="1"/>
        <pt x="478" y="386" on="1"/>
        <pt x="652" y="348" on="0"/>
        <pt x="652" y="143" on="1"/>
        <pt x="652" y="82" on="0"/>
        <pt x="659" y="44" on="0"/>
        <pt x="671" y="44" on="1"/>
        <pt x="695" y="44" on="0"/>
        <pt x="695" y="126" on="1"/>
        <pt x="712" y="126" on="1"/>
        <pt x="712" y="52" on="0"/>
        <pt x="657" y="-10" on="0"/>
        <pt x="504" y="-10" on="0"/>
        <pt x="440" y="91" on="0"/>
      </contour>
    </TTGlyph>
    <TTGlyph name="L" xMin="30" yMin="-23" xMax="638" yMax="700">
      <contour>
        <pt x="298" y="684" on="1"/>
        <pt x="298" y="19" on="1"/>
        <pt x="308" y="18" on="0"/>
        <pt x="440" y="-4" on="0"/>
        <pt x="546" y="-4" on="0"/>
        <pt x="619" y="56" on="0"/>
        <pt x="619" y="110" on="1"/>
        <pt x="619" y="140" on="0"/>
        <pt x="603" y="165" on="1"/>
        <pt x="577" y="205" on="0"/>
        <pt x="538" y="205" on="1"/>
        <pt x="529" y="205" on="0"/>
        <pt x="529" y="186" on="0"/>
        <pt x="557" y="185" on="0"/>
        <pt x="598" y="149" on="0"/>
        <pt x="598" y="74" on="0"/>
        <pt x="543" y="27" on="0"/>
        <pt x="467" y="27" on="0"/>
        <pt x="414" y="84" on="0"/>
        <pt x="414" y="167" on="0"/>
        <pt x="478" y="226" on="0"/>
        <pt x="577" y="226" on="0"/>
        <pt x="638" y="158" on="0"/>
        <pt x="638" y="55" on="0"/>
        <pt x="562" y="-23" on="0"/>
        <pt x="484" y="-23" on="1"/>
        <pt x="435" y="-23" on="0"/>
        <pt x="252" y="9" on="0"/>
        <pt x="151" y="9" on="1"/>
        <pt x="30" y="9" on="1"/>
        <pt x="30" y="25" on="1"/>
        <pt x="94" y="25" on="1"/>
        <pt x="94" y="684" on="1"/>
        <pt x="30" y="684" on="1"/>
        <pt x="30" y="700" on="1"/>
        <pt x="382" y="700" on="1"/>
        <pt x="382" y="684" on="1"/>
      </contour>
    </TTGlyph>
    <TTGlyph name="Lslash" xMin="30" yMin="9" xMax="579" yMax="700">
      <contour>
        <pt x="30" y="9" on="1"/>
        <pt x="30" y="23" on="1"/>
        <pt x="94" y="23" on="1"/>
        <pt x="94" y="318" on="1"/>
        <pt x="31" y="293" on="1"/>
        <pt x="31" y="315" on="1"/>
        <pt x="94" y="340" on="1"/>
        <pt x="94" y="686" on="1"/>
        <pt x="30" y="686" on="1"/>
        <pt x="30" y="700" on="1"/>
        <pt x="382" y="700" on="1"/>
        <pt x="382" y="686" on="1"/>
        <pt x="298" y="686" on="1"/>
        <pt x="298" y="422" on="1"/>
        <pt x="463" y="488" on="1"/>
        <pt x="463" y="466" on="1"/>
        <pt x="298" y="400" on="1"/>
        <pt x="298" y="23" on="1"/>
        <pt x="333" y="23" on="1"/>
        <pt x="443" y="23" on="0"/>
        <pt x="566" y="205" on="0"/>
        <pt x="566" y="354" on="1"/>
        <pt x="579" y="354" on="1"/>
        <pt x="579" y="9" on="1"/>
      </contour>
    </TTGlyph>
    <TTGlyph name="M" xMin="-39" yMin="9" xMax="869" yMax="700">
      <contour>
        <pt x="105" y="636" on="1"/>
        <pt x="105" y="203" on="1"/>
        <pt x="105" y="117" on="0"/>
        <pt x="119" y="55" on="0"/>
        <pt x="132" y="46" on="1"/>
        <pt x="158" y="25" on="0"/>
        <pt x="218" y="25" on="1"/>
        <pt x="242" y="25" on="1"/>
        <pt x="242" y="9" on="1"/>
        <pt x="-39" y="9" on="1"/>
        <pt x="-39" y="25" on="1"/>
        <pt x="-28" y="25" on="1"/>
        <pt x="30" y="27" on="0"/>
        <pt x="58" y="50" on="1"/>
        <pt x="79" y="68" on="0"/>
        <pt x="84" y="134" on="1"/>
        <pt x="85" y="158" on="0"/>
        <pt x="85" y="204" on="1"/>
        <pt x="85" y="612" on="1"/>
        <pt x="85" y="654" on="0"/>
        <pt x="41" y="684" on="0"/>
        <pt x="-7" y="684" on="1"/>
        <pt x="-7" y="700" on="1"/>
        <pt x="292" y="700" on="1"/>
        <pt x="426" y="381" on="1"/>
        <pt x="613" y="700" on="1"/>
        <pt x="869" y="700" on="1"/>
        <pt x="869" y="684" on="1"/>
        <pt x="805" y="684" on="1"/>
        <pt x="805" y="25" on="1"/>
        <pt x="869" y="25" on="1"/>
        <pt x="869" y="9" on="1"/>
        <pt x="543" y="9" on="1"/>
        <pt x="543" y="25" on="1"/>
        <pt x="607" y="25" on="1"/>
        <pt x="607" y="636" on="1"/>
        <pt x="600" y="636" on="1"/>
        <pt x="435" y="361" on="1"/>
        <pt x="492" y="226" on="1"/>
        <pt x="515" y="174" on="0"/>
        <pt x="515" y="85" on="0"/>
        <pt x="447" y="18" on="0"/>
        <pt x="390" y="18" on="1"/>
        <pt x="272" y="18" on="0"/>
        <pt x="272" y="104" on="1"/>
        <pt x="272" y="130" on="0"/>
        <pt x="307" y="187" on="1"/>
        <pt x="112" y="636" on="1"/>
      </contour>
      <contour>
        <pt x="316" y="165" on="1"/>
        <pt x="291" y="125" on="0"/>
        <pt x="291" y="81" on="0"/>
        <pt x="315" y="51" on="0"/>
        <pt x="337" y="51" on="0"/>
        <pt x="350" y="65" on="0"/>
        <pt x="350" y="95" on="0"/>
        <pt x="335" y="125" on="1"/>
        <pt x="317" y="166" on="1"/>
      </contour>
    </TTGlyph>
    <TTGlyph name="N" xMin="-109" yMin="0" xMax="719" yMax="700">
      <contour>
        <pt x="116" y="505" on="1"/>
        <pt x="116" y="119" on="1"/>
        <pt x="116" y="71" on="0"/>
        <pt x="57" y="0" on="0"/>
        <pt x="-44" y="0" on="0"/>
        <pt x="-109" y="62" on="0"/>
        <pt x="-109" y="144" on="0"/>
        <pt x="-57" y="200" on="0"/>
        <pt x="20" y="200" on="0"/>
        <pt x="73" y="153" on="0"/>
        <pt x="73" y="114" on="1"/>
        <pt x="73" y="92" on="0"/>
        <pt x="58" y="60" on="0"/>
        <pt x="50" y="55" on="1"/>
        <pt x="38" y="48" on="0"/>
        <pt x="36" y="46" on="1"/>
        <pt x="28" y="42" on="0"/>
        <pt x="28" y="37" on="1"/>
        <pt x="28" y="27" on="0"/>
        <pt x="37" y="27" on="1"/>
        <pt x="41" y="27" on="0"/>
        <pt x="49" y="31" on="1"/>
        <pt x="96" y="54" on="0"/>
        <pt x="96" y="117" on="1"/>
        <pt x="96" y="509" on="1"/>
        <pt x="96" y="565" on="0"/>
        <pt x="75" y="612" on="1"/>
        <pt x="65" y="631" on="0"/>
        <pt x="49" y="650" on="1"/>
        <pt x="22" y="684" on="0"/>
        <pt x="-11" y="684" on="1"/>
        <pt x="-11" y="700" on="1"/>
        <pt x="194" y="700" on="1"/>
        <pt x="235" y="700" on="0"/>
        <pt x="288" y="673" on="0"/>
        <pt x="317" y="627" on="1"/>
        <pt x="570" y="220" on="1"/>
        <pt x="574" y="220" on="1"/>
        <pt x="574" y="466" on="1"/>
        <pt x="574" y="618" on="0"/>
        <pt x="548" y="650" on="1"/>
        <pt x="519" y="684" on="0"/>
        <pt x="461" y="684" on="1"/>
        <pt x="428" y="684" on="1"/>
        <pt x="428" y="700" on="1"/>
        <pt x="719" y="700" on="1"/>
        <pt x="719" y="684" on="1"/>
        <pt x="707" y="684" on="1"/>
        <pt x="650" y="682" on="0"/>
        <pt x="629" y="654" on="1"/>
        <pt x="617" y="639" on="0"/>
        <pt x="602" y="608" on="0"/>
        <pt x="599" y="579" on="1"/>
        <pt x="594" y="531" on="0"/>
        <pt x="594" y="465" on="1"/>
        <pt x="594" y="9" on="1"/>
        <pt x="535" y="9" on="1"/>
        <pt x="494" y="9" on="0"/>
        <pt x="441" y="36" on="0"/>
        <pt x="412" y="82" on="1"/>
        <pt x="112" y="554" on="1"/>
        <pt x="116" y="535" on="0"/>
      </contour>
    </TTGlyph>
    <TTGlyph name="Nacute" xMin="-30" yMin="9" xMax="719" yMax="856">
      <contour>
        <pt x="114" y="546" on="1"/>
        <pt x="114" y="223" on="1"/>
        <pt x="114" y="154" on="0"/>
        <pt x="129" y="72" on="0"/>
        <pt x="170" y="33" on="0"/>
        <pt x="217" y="23" on="0"/>
        <pt x="261" y="23" on="1"/>
        <pt x="261" y="9" on="1"/>
        <pt x="-30" y="9" on="1"/>
        <pt x="-30" y="23" on="1"/>
        <pt x="52" y="23" on="0"/>
        <pt x="72" y="54" on="1"/>
        <pt x="80" y="68" on="0"/>
        <pt x="91" y="91" on="0"/>
        <pt x="93" y="117" on="1"/>
        <pt x="96" y="156" on="0"/>
        <pt x="96" y="221" on="1"/>
        <pt x="96" y="581" on="1"/>
        <pt x="78" y="609" on="1"/>
        <pt x="77" y="610" on="0"/>
        <pt x="65" y="631" on="0"/>
        <pt x="59" y="640" on="0"/>
        <pt x="45" y="659" on="0"/>
        <pt x="33" y="669" on="0"/>
        <pt x="25" y="675" on="1"/>
        <pt x="10" y="686" on="0"/>
        <pt x="-12" y="686" on="1"/>
        <pt x="-12" y="700" on="1"/>
        <pt x="193" y="700" on="1"/>
        <pt x="234" y="700" on="0"/>
        <pt x="287" y="673" on="0"/>
        <pt x="316" y="627" on="1"/>
        <pt x="569" y="220" on="1"/>
        <pt x="575" y="220" on="1"/>
        <pt x="575" y="486" on="1"/>
        <pt x="575" y="555" on="0"/>
        <pt x="560" y="637" on="0"/>
        <pt x="519" y="676" on="0"/>
        <pt x="472" y="686" on="0"/>
        <pt x="428" y="686" on="1"/>
        <pt x="428" y="700" on="1"/>
        <pt x="719" y="700" on="1"/>
        <pt x="719" y="686" on="1"/>
        <pt x="672" y="686" on="0"/>
        <pt x="638" y="662" on="1"/>
        <pt x="618" y="647" on="0"/>
        <pt x="602" y="600" on="1"/>
        <pt x="593" y="571" on="0"/>
        <pt x="593" y="540" on="1"/>
        <pt x="593" y="9" on="1"/>
        <pt x="534" y="9" on="1"/>
        <pt x="493" y="9" on="0"/>
        <pt x="440" y="36" on="0"/>
        <pt x="411" y="82" on="1"/>
        <pt x="118" y="546" on="1"/>
      </contour>
      <contour>
        <pt x="542" y="856" on="1"/>
        <pt x="547" y="838" on="1"/>
        <pt x="249" y="757" on="1"/>
        <pt x="244" y="774" on="1"/>
      </contour>
    </TTGlyph>
    <TTGlyph name="Ntilde" xMin="-109" yMin="0" xMax="719" yMax="834">
      <contour>
        <pt x="116" y="505" on="1"/>
        <pt x="116" y="119" on="1"/>
        <pt x="116" y="71" on="0"/>
        <pt x="57" y="0" on="0"/>
        <pt x="-44" y="0" on="0"/>
        <pt x="-109" y="62" on="0"/>
        <pt x="-109" y="144" on="0"/>
        <pt x="-57" y="200" on="0"/>
        <pt x="20" y="200" on="0"/>
        <pt x="73" y="153" on="0"/>
        <pt x="73" y="114" on="1"/>
        <pt x="73" y="92" on="0"/>
        <pt x="58" y="60" on="0"/>
        <pt x="50" y="55" on="1"/>
        <pt x="38" y="48" on="0"/>
        <pt x="36" y="46" on="1"/>
        <pt x="28" y="42" on="0"/>
        <pt x="28" y="37" on="1"/>
        <pt x="28" y="27" on="0"/>
        <pt x="37" y="27" on="1"/>
        <pt x="41" y="27" on="0"/>
        <pt x="49" y="31" on="1"/>
        <pt x="96" y="54" on="0"/>
        <pt x="96" y="117" on="1"/>
        <pt x="96" y="509" on="1"/>
        <pt x="96" y="565" on="0"/>
        <pt x="75" y="612" on="1"/>
        <pt x="65" y="631" on="0"/>
        <pt x="49" y="650" on="1"/>
        <pt x="22" y="684" on="0"/>
        <pt x="-11" y="684" on="1"/>
        <pt x="-11" y="700" on="1"/>
        <pt x="194" y="700" on="1"/>
        <pt x="235" y="700" on="0"/>
        <pt x="288" y="673" on="0"/>
        <pt x="317" y="627" on="1"/>
        <pt x="570" y="220" on="1"/>
        <pt x="574" y="220" on="1"/>
        <pt x="574" y="466" on="1"/>
        <pt x="574" y="618" on="0"/>
        <pt x="548" y="650" on="1"/>
        <pt x="519" y="684" on="0"/>
        <pt x="461" y="684" on="1"/>
        <pt x="428" y="684" on="1"/>
        <pt x="428" y="700" on="1"/>
        <pt x="719" y="700" on="1"/>
        <pt x="719" y="684" on="1"/>
        <pt x="707" y="684" on="1"/>
        <pt x="650" y="682" on="0"/>
        <pt x="629" y="654" on="1"/>
        <pt x="617" y="639" on="0"/>
        <pt x="602" y="608" on="0"/>
        <pt x="599" y="579" on="1"/>
        <pt x="594" y="531" on="0"/>
        <pt x="594" y="465" on="1"/>
        <pt x="594" y="9" on="1"/>
        <pt x="535" y="9" on="1"/>
        <pt x="494" y="9" on="0"/>
        <pt x="441" y="36" on="0"/>
        <pt x="412" y="82" on="1"/>
        <pt x="112" y="554" on="1"/>
        <pt x="116" y="535" on="0"/>
      </contour>
      <contour>
        <pt x="426" y="781" on="1"/>
        <pt x="399" y="781" on="0"/>
        <pt x="305" y="813" on="0"/>
        <pt x="253" y="813" on="0"/>
        <pt x="212" y="796" on="0"/>
        <pt x="202" y="788" on="1"/>
        <pt x="193" y="780" on="1"/>
        <pt x="179" y="795" on="1"/>
        <pt x="219" y="833" on="0"/>
        <pt x="276" y="833" on="1"/>
        <pt x="311" y="833" on="0"/>
        <pt x="402" y="801" on="0"/>
        <pt x="451" y="801" on="0"/>
        <pt x="492" y="818" on="0"/>
        <pt x="502" y="826" on="1"/>
        <pt x="511" y="834" on="1"/>
        <pt x="525" y="819" on="1"/>
        <pt x="487" y="781" on="0"/>
      </contour>
    </TTGlyph>
    <TTGlyph name="O" xMin="33" yMin="-10" xMax="719" yMax="719">
      <contour>
        <pt x="536" y="427" on="1"/>
        <pt x="582" y="427" on="0"/>
        <pt x="658" y="487" on="0"/>
        <pt x="672" y="554" on="1"/>
        <pt x="719" y="466" on="0"/>
        <pt x="719" y="357" on="1"/>
        <pt x="719" y="243" on="0"/>
        <pt x="667" y="152" on="1"/>
        <pt x="610" y="51" on="0"/>
        <pt x="503" y="12" on="1"/>
        <pt x="445" y="-10" on="0"/>
        <pt x="307" y="-10" on="0"/>
        <pt x="191" y="33" on="0"/>
        <pt x="112" y="104" on="0"/>
        <pt x="85" y="152" on="1"/>
        <pt x="33" y="243" on="0"/>
        <pt x="33" y="357" on="1"/>
        <pt x="33" y="519" on="0"/>
        <pt x="233" y="719" on="0"/>
        <pt x="424" y="719" on="1"/>
        <pt x="513" y="719" on="0"/>
        <pt x="638" y="636" on="0"/>
        <pt x="638" y="570" on="1"/>
        <pt x="638" y="528" on="0"/>
        <pt x="578" y="464" on="0"/>
        <pt x="492" y="464" on="0"/>
        <pt x="434" y="519" on="0"/>
        <pt x="434" y="596" on="0"/>
        <pt x="481" y="650" on="0"/>
        <pt x="560" y="650" on="0"/>
        <pt x="583" y="615" on="1"/>
        <pt x="588" y="606" on="0"/>
        <pt x="595" y="606" on="1"/>
        <pt x="605" y="606" on="0"/>
        <pt x="605" y="622" on="0"/>
        <pt x="597" y="632" on="1"/>
        <pt x="579" y="658" on="0"/>
        <pt x="497" y="697" on="0"/>
        <pt x="373" y="697" on="0"/>
        <pt x="334" y="670" on="1"/>
        <pt x="255" y="616" on="0"/>
        <pt x="255" y="357" on="1"/>
        <pt x="255" y="99" on="0"/>
        <pt x="309" y="38" on="1"/>
        <pt x="334" y="9" on="0"/>
        <pt x="418" y="9" on="0"/>
        <pt x="443" y="38" on="1"/>
        <pt x="497" y="99" on="0"/>
        <pt x="497" y="357" on="1"/>
        <pt x="497" y="412" on="0"/>
        <pt x="496" y="433" on="1"/>
        <pt x="520" y="427" on="0"/>
      </contour>
    </TTGlyph>
    <TTGlyph name="OE" xMin="62" yMin="9" xMax="1047" yMax="700">
      <contour>
        <pt x="403" y="700" on="1"/>
        <pt x="1028" y="700" on="1"/>
        <pt x="1028" y="469" on="1"/>
        <pt x="1013" y="469" on="1"/>
        <pt x="1013" y="581" on="0"/>
        <pt x="920" y="684" on="0"/>
        <pt x="804" y="684" on="1"/>
        <pt x="729" y="684" on="1"/>
        <pt x="729" y="372" on="1"/>
        <pt x="766" y="372" on="1"/>
        <pt x="900" y="372" on="0"/>
        <pt x="900" y="517" on="1"/>
        <pt x="915" y="517" on="1"/>
        <pt x="915" y="208" on="1"/>
        <pt x="900" y="208" on="1"/>
        <pt x="900" y="281" on="0"/>
        <pt x="827" y="356" on="0"/>
        <pt x="762" y="356" on="1"/>
        <pt x="729" y="356" on="1"/>
        <pt x="729" y="25" on="1"/>
        <pt x="790" y="25" on="1"/>
        <pt x="942" y="25" on="0"/>
        <pt x="990" y="98" on="1"/>
        <pt x="1015" y="136" on="0"/>
        <pt x="1032" y="223" on="0"/>
        <pt x="1032" y="289" on="1"/>
        <pt x="1047" y="289" on="1"/>
        <pt x="1047" y="9" on="1"/>
        <pt x="404" y="9" on="1"/>
        <pt x="318" y="9" on="0"/>
        <pt x="183" y="70" on="0"/>
        <pt x="143" y="120" on="1"/>
        <pt x="62" y="223" on="0"/>
        <pt x="62" y="356" on="1"/>
        <pt x="62" y="484" on="0"/>
        <pt x="142" y="586" on="1"/>
        <pt x="182" y="637" on="0"/>
        <pt x="318" y="700" on="0"/>
      </contour>
      <contour>
        <pt x="362" y="27" on="0"/>
        <pt x="446" y="27" on="0"/>
        <pt x="471" y="54" on="1"/>
        <pt x="524" y="111" on="0"/>
        <pt x="524" y="601" on="0"/>
        <pt x="471" y="656" on="1"/>
        <pt x="446" y="682" on="0"/>
        <pt x="362" y="682" on="0"/>
        <pt x="337" y="656" on="1"/>
        <pt x="283" y="601" on="0"/>
        <pt x="283" y="356" on="1"/>
        <pt x="283" y="112" on="0"/>
        <pt x="337" y="54" on="1"/>
      </contour>
    </TTGlyph>
    <TTGlyph name="Oacute" xMin="30" yMin="-10" xMax="716" yMax="856">
      <contour>
        <pt x="442" y="-10" on="0"/>
        <pt x="304" y="-10" on="0"/>
        <pt x="188" y="33" on="0"/>
        <pt x="109" y="104" on="0"/>
        <pt x="82" y="152" on="1"/>
        <pt x="30" y="243" on="0"/>
        <pt x="30" y="357" on="1"/>
        <pt x="30" y="491" on="0"/>
        <pt x="111" y="600" on="1"/>
        <pt x="151" y="653" on="0"/>
        <pt x="287" y="719" on="0"/>
        <pt x="459" y="719" on="0"/>
        <pt x="595" y="656" on="0"/>
        <pt x="635" y="604" on="1"/>
        <pt x="716" y="497" on="0"/>
        <pt x="716" y="357" on="1"/>
        <pt x="716" y="243" on="0"/>
        <pt x="664" y="152" on="1"/>
        <pt x="607" y="51" on="0"/>
        <pt x="500" y="12" on="1"/>
      </contour>
      <contour>
        <pt x="331" y="9" on="0"/>
        <pt x="415" y="9" on="0"/>
        <pt x="465" y="66" on="0"/>
        <pt x="494" y="221" on="0"/>
        <pt x="494" y="493" on="0"/>
        <pt x="465" y="646" on="0"/>
        <pt x="415" y="700" on="0"/>
        <pt x="331" y="700" on="0"/>
        <pt x="281" y="646" on="0"/>
        <pt x="252" y="493" on="0"/>
        <pt x="252" y="221" on="0"/>
        <pt x="281" y="66" on="0"/>
      </contour>
      <contour>
        <pt x="492" y="856" on="1"/>
        <pt x="497" y="838" on="1"/>
        <pt x="199" y="757" on="1"/>
        <pt x="194" y="774" on="1"/>
      </contour>
    </TTGlyph>
    <TTGlyph name="Ocircumflex" xMin="30" yMin="-10" xMax="716" yMax="856">
      <contour>
        <pt x="442" y="-10" on="0"/>
        <pt x="304" y="-10" on="0"/>
        <pt x="188" y="33" on="0"/>
        <pt x="109" y="104" on="0"/>
        <pt x="82" y="152" on="1"/>
        <pt x="30" y="243" on="0"/>
        <pt x="30" y="357" on="1"/>
        <pt x="30" y="491" on="0"/>
        <pt x="111" y="600" on="1"/>
        <pt x="151" y="653" on="0"/>
        <pt x="287" y="719" on="0"/>
        <pt x="459" y="719" on="0"/>
        <pt x="595" y="656" on="0"/>
        <pt x="635" y="604" on="1"/>
        <pt x="716" y="497" on="0"/>
        <pt x="716" y="357" on="1"/>
        <pt x="716" y="243" on="0"/>
        <pt x="664" y="152" on="1"/>
        <pt x="607" y="51" on="0"/>
        <pt x="500" y="12" on="1"/>
      </contour>
      <contour>
        <pt x="331" y="9" on="0"/>
        <pt x="415" y="9" on="0"/>
        <pt x="465" y="66" on="0"/>
        <pt x="494" y="221" on="0"/>
        <pt x="494" y="493" on="0"/>
        <pt x="465" y="646" on="0"/>
        <pt x="415" y="700" on="0"/>
        <pt x="331" y="700" on="0"/>
        <pt x="281" y="646" on="0"/>
        <pt x="252" y="493" on="0"/>
        <pt x="252" y="221" on="0"/>
        <pt x="281" y="66" on="0"/>
      </contour>
      <contour>
        <pt x="374" y="836" on="1"/>
        <pt x="374" y="856" on="1"/>
        <pt x="559" y="779" on="1"/>
        <pt x="553" y="762" on="1"/>
      </contour>
      <contour>
        <pt x="374" y="856" on="1"/>
        <pt x="374" y="836" on="1"/>
        <pt x="195" y="762" on="1"/>
        <pt x="189" y="779" on="1"/>
      </contour>
    </TTGlyph>
    <TTGlyph name="Odieresis" xMin="30" yMin="-10" xMax="716" yMax="876">
      <contour>
        <pt x="442" y="-10" on="0"/>
        <pt x="304" y="-10" on="0"/>
        <pt x="188" y="33" on="0"/>
        <pt x="109" y="104" on="0"/>
        <pt x="82" y="152" on="1"/>
        <pt x="30" y="243" on="0"/>
        <pt x="30" y="357" on="1"/>
        <pt x="30" y="491" on="0"/>
        <pt x="111" y="600" on="1"/>
        <pt x="151" y="653" on="0"/>
        <pt x="287" y="719" on="0"/>
        <pt x="459" y="719" on="0"/>
        <pt x="595" y="656" on="0"/>
        <pt x="635" y="604" on="1"/>
        <pt x="716" y="497" on="0"/>
        <pt x="716" y="357" on="1"/>
        <pt x="716" y="243" on="0"/>
        <pt x="664" y="152" on="1"/>
        <pt x="607" y="51" on="0"/>
        <pt x="500" y="12" on="1"/>
      </contour>
      <contour>
        <pt x="331" y="9" on="0"/>
        <pt x="415" y="9" on="0"/>
        <pt x="465" y="66" on="0"/>
        <pt x="494" y="221" on="0"/>
        <pt x="494" y="493" on="0"/>
        <pt x="465" y="646" on="0"/>
        <pt x="415" y="700" on="0"/>
        <pt x="331" y="700" on="0"/>
        <pt x="281" y="646" on="0"/>
        <pt x="252" y="493" on="0"/>
        <pt x="252" y="221" on="0"/>
        <pt x="281" y="66" on="0"/>
      </contour>
      <contour>
        <pt x="403" y="791" on="0"/>
        <pt x="403" y="841" on="0"/>
        <pt x="439" y="876" on="0"/>
        <pt x="489" y="876" on="0"/>
        <pt x="524" y="841" on="0"/>
        <pt x="524" y="791" on="0"/>
        <pt x="489" y="755" on="0"/>
        <pt x="439" y="755" on="0"/>
      </contour>
      <contour>
        <pt x="223" y="791" on="0"/>
        <pt x="223" y="841" on="0"/>
        <pt x="258" y="876" on="0"/>
        <pt x="308" y="876" on="0"/>
        <pt x="344" y="841" on="0"/>
        <pt x="344" y="791" on="0"/>
        <pt x="308" y="755" on="0"/>
        <pt x="258" y="755" on="0"/>
      </contour>
    </TTGlyph>
    <TTGlyph name="Ograve" xMin="30" yMin="-10" xMax="716" yMax="856">
      <contour>
        <pt x="442" y="-10" on="0"/>
        <pt x="304" y="-10" on="0"/>
        <pt x="188" y="33" on="0"/>
        <pt x="109" y="104" on="0"/>
        <pt x="82" y="152" on="1"/>
        <pt x="30" y="243" on="0"/>
        <pt x="30" y="357" on="1"/>
        <pt x="30" y="491" on="0"/>
        <pt x="111" y="600" on="1"/>
        <pt x="151" y="653" on="0"/>
        <pt x="287" y="719" on="0"/>
        <pt x="459" y="719" on="0"/>
        <pt x="595" y="656" on="0"/>
        <pt x="635" y="604" on="1"/>
        <pt x="716" y="497" on="0"/>
        <pt x="716" y="357" on="1"/>
        <pt x="716" y="243" on="0"/>
        <pt x="664" y="152" on="1"/>
        <pt x="607" y="51" on="0"/>
        <pt x="500" y="12" on="1"/>
      </contour>
      <contour>
        <pt x="331" y="9" on="0"/>
        <pt x="415" y="9" on="0"/>
        <pt x="465" y="66" on="0"/>
        <pt x="494" y="221" on="0"/>
        <pt x="494" y="493" on="0"/>
        <pt x="465" y="646" on="0"/>
        <pt x="415" y="700" on="0"/>
        <pt x="331" y="700" on="0"/>
        <pt x="281" y="646" on="0"/>
        <pt x="252" y="493" on="0"/>
        <pt x="252" y="221" on="0"/>
        <pt x="281" y="66" on="0"/>
      </contour>
      <contour>
        <pt x="235" y="838" on="1"/>
        <pt x="240" y="856" on="1"/>
        <pt x="538" y="774" on="1"/>
        <pt x="533" y="757" on="1"/>
      </contour>
    </TTGlyph>
    <TTGlyph name="Omega" xMin="60" yMin="9" xMax="802" yMax="719">
      <contour>
        <pt x="260" y="719" on="0"/>
        <pt x="602" y="719" on="0"/>
        <pt x="764" y="558" on="0"/>
        <pt x="764" y="420" on="1"/>
        <pt x="764" y="366" on="0"/>
        <pt x="722" y="281" on="0"/>
        <pt x="658" y="226" on="0"/>
        <pt x="593" y="183" on="0"/>
        <pt x="532" y="138" on="0"/>
        <pt x="521" y="116" on="1"/>
        <pt x="529" y="110" on="1"/>
        <pt x="581" y="147" on="0"/>
        <pt x="662" y="147" on="1"/>
        <pt x="712" y="147" on="1"/>
        <pt x="761" y="147" on="0"/>
        <pt x="776" y="228" on="1"/>
        <pt x="802" y="228" on="1"/>
        <pt x="770" y="9" on="1"/>
        <pt x="473" y="9" on="1"/>
        <pt x="456" y="32" on="1"/>
        <pt x="460" y="63" on="0"/>
        <pt x="482" y="116" on="1"/>
        <pt x="542" y="259" on="0"/>
        <pt x="542" y="563" on="0"/>
        <pt x="490" y="700" on="0"/>
        <pt x="372" y="700" on="0"/>
        <pt x="320" y="563" on="0"/>
        <pt x="320" y="317" on="0"/>
        <pt x="358" y="168" on="0"/>
        <pt x="402" y="63" on="0"/>
        <pt x="406" y="32" on="1"/>
        <pt x="389" y="9" on="1"/>
        <pt x="92" y="9" on="1"/>
        <pt x="60" y="228" on="1"/>
        <pt x="86" y="228" on="1"/>
        <pt x="101" y="147" on="0"/>
        <pt x="150" y="147" on="1"/>
        <pt x="200" y="147" on="1"/>
        <pt x="281" y="147" on="0"/>
        <pt x="333" y="110" on="1"/>
        <pt x="341" y="116" on="1"/>
        <pt x="330" y="138" on="0"/>
        <pt x="269" y="183" on="0"/>
        <pt x="204" y="226" on="0"/>
        <pt x="140" y="281" on="0"/>
        <pt x="98" y="366" on="0"/>
        <pt x="98" y="420" on="1"/>
        <pt x="98" y="558" on="0"/>
      </contour>
    </TTGlyph>
    <TTGlyph name="Oslash" xMin="30" yMin="-106" xMax="716" yMax="799">
      <contour>
        <pt x="111" y="600" on="1"/>
        <pt x="151" y="653" on="0"/>
        <pt x="287" y="719" on="0"/>
        <pt x="438" y="719" on="0"/>
        <pt x="493" y="700" on="1"/>
        <pt x="528" y="799" on="1"/>
        <pt x="550" y="792" on="1"/>
        <pt x="515" y="692" on="1"/>
        <pt x="613" y="651" on="0"/>
        <pt x="716" y="466" on="0"/>
        <pt x="716" y="357" on="1"/>
        <pt x="716" y="243" on="0"/>
        <pt x="664" y="152" on="1"/>
        <pt x="607" y="51" on="0"/>
        <pt x="500" y="12" on="1"/>
        <pt x="442" y="-10" on="0"/>
        <pt x="320" y="-10" on="0"/>
        <pt x="270" y="3" on="1"/>
        <pt x="232" y="-106" on="1"/>
        <pt x="211" y="-99" on="1"/>
        <pt x="249" y="10" on="1"/>
        <pt x="142" y="48" on="0"/>
        <pt x="30" y="242" on="0"/>
        <pt x="30" y="491" on="0"/>
      </contour>
      <contour>
        <pt x="281" y="646" on="0"/>
        <pt x="252" y="493" on="0"/>
        <pt x="252" y="174" on="0"/>
        <pt x="278" y="91" on="1"/>
        <pt x="466" y="624" on="1"/>
        <pt x="440" y="700" on="0"/>
        <pt x="373" y="700" on="1"/>
        <pt x="331" y="700" on="0"/>
      </contour>
      <contour>
        <pt x="373" y="9" on="1"/>
        <pt x="415" y="9" on="0"/>
        <pt x="440" y="38" on="1"/>
        <pt x="494" y="99" on="0"/>
        <pt x="494" y="357" on="1"/>
        <pt x="494" y="505" on="0"/>
        <pt x="477" y="585" on="1"/>
        <pt x="291" y="60" on="1"/>
        <pt x="318" y="9" on="0"/>
      </contour>
    </TTGlyph>
    <TTGlyph name="Otilde" xMin="30" yMin="-10" xMax="716" yMax="828">
      <contour>
        <pt x="442" y="-10" on="0"/>
        <pt x="304" y="-10" on="0"/>
        <pt x="188" y="33" on="0"/>
        <pt x="109" y="104" on="0"/>
        <pt x="82" y="152" on="1"/>
        <pt x="30" y="243" on="0"/>
        <pt x="30" y="357" on="1"/>
        <pt x="30" y="491" on="0"/>
        <pt x="111" y="600" on="1"/>
        <pt x="151" y="653" on="0"/>
        <pt x="287" y="719" on="0"/>
        <pt x="459" y="719" on="0"/>
        <pt x="595" y="656" on="0"/>
        <pt x="635" y="604" on="1"/>
        <pt x="716" y="497" on="0"/>
        <pt x="716" y="357" on="1"/>
        <pt x="716" y="243" on="0"/>
        <pt x="664" y="152" on="1"/>
        <pt x="607" y="51" on="0"/>
        <pt x="500" y="12" on="1"/>
      </contour>
      <contour>
        <pt x="331" y="9" on="0"/>
        <pt x="415" y="9" on="0"/>
        <pt x="465" y="66" on="0"/>
        <pt x="494" y="221" on="0"/>
        <pt x="494" y="493" on="0"/>
        <pt x="465" y="646" on="0"/>
        <pt x="415" y="700" on="0"/>
        <pt x="331" y="700" on="0"/>
        <pt x="281" y="646" on="0"/>
        <pt x="252" y="493" on="0"/>
        <pt x="252" y="221" on="0"/>
        <pt x="281" y="66" on="0"/>
      </contour>
      <contour>
        <pt x="450" y="775" on="1"/>
        <pt x="423" y="775" on="0"/>
        <pt x="329" y="807" on="0"/>
        <pt x="277" y="807" on="0"/>
        <pt x="236" y="790" on="0"/>
        <pt x="226" y="782" on="1"/>
        <pt x="217" y="774" on="1"/>
        <pt x="203" y="789" on="1"/>
        <pt x="243" y="827" on="0"/>
        <pt x="300" y="827" on="1"/>
        <pt x="335" y="827" on="0"/>
        <pt x="426" y="795" on="0"/>
        <pt x="475" y="795" on="0"/>
        <pt x="516" y="812" on="0"/>
        <pt x="526" y="820" on="1"/>
        <pt x="535" y="828" on="1"/>
        <pt x="549" y="813" on="1"/>
        <pt x="511" y="775" on="0"/>
      </contour>
    </TTGlyph>
    <TTGlyph name="P" xMin="30" yMin="9" xMax="667" yMax="719">
      <contour>
        <pt x="94" y="25" on="1"/>
        <pt x="94" y="464" on="1"/>
        <pt x="133" y="422" on="0"/>
        <pt x="193" y="422" on="1"/>
        <pt x="228" y="422" on="0"/>
        <pt x="288" y="453" on="0"/>
        <pt x="298" y="469" on="1"/>
        <pt x="298" y="324" on="1"/>
        <pt x="309" y="324" on="1"/>
        <pt x="398" y="324" on="0"/>
        <pt x="452" y="406" on="0"/>
        <pt x="452" y="515" on="1"/>
        <pt x="452" y="600" on="0"/>
        <pt x="360" y="694" on="0"/>
        <pt x="223" y="694" on="0"/>
        <pt x="126" y="647" on="0"/>
        <pt x="114" y="607" on="1"/>
        <pt x="112" y="599" on="0"/>
        <pt x="112" y="596" on="1"/>
        <pt x="112" y="587" on="0"/>
        <pt x="129" y="587" on="0"/>
        <pt x="138" y="616" on="0"/>
        <pt x="174" y="646" on="0"/>
        <pt x="248" y="646" on="0"/>
        <pt x="295" y="596" on="0"/>
        <pt x="295" y="515" on="0"/>
        <pt x="238" y="461" on="0"/>
        <pt x="150" y="461" on="0"/>
        <pt x="88" y="525" on="0"/>
        <pt x="88" y="571" on="1"/>
        <pt x="88" y="646" on="0"/>
        <pt x="224" y="719" on="0"/>
        <pt x="327" y="719" on="1"/>
        <pt x="501" y="719" on="0"/>
        <pt x="667" y="626" on="0"/>
        <pt x="667" y="515" on="1"/>
        <pt x="667" y="420" on="0"/>
        <pt x="553" y="305" on="0"/>
        <pt x="421" y="305" on="1"/>
        <pt x="298" y="305" on="1"/>
        <pt x="298" y="25" on="1"/>
        <pt x="361" y="25" on="1"/>
        <pt x="361" y="9" on="1"/>
        <pt x="30" y="9" on="1"/>
        <pt x="30" y="25" on="1"/>
      </contour>
    </TTGlyph>
    <TTGlyph name="Q" xMin="30" yMin="-175" xMax="754" yMax="719">
      <contour>
        <pt x="478" y="4" on="1"/>
        <pt x="428" y="-10" on="0"/>
        <pt x="304" y="-10" on="0"/>
        <pt x="188" y="33" on="0"/>
        <pt x="109" y="104" on="0"/>
        <pt x="82" y="152" on="1"/>
        <pt x="30" y="243" on="0"/>
        <pt x="30" y="357" on="1"/>
        <pt x="30" y="491" on="0"/>
        <pt x="111" y="600" on="1"/>
        <pt x="151" y="653" on="0"/>
        <pt x="287" y="719" on="0"/>
        <pt x="459" y="719" on="0"/>
        <pt x="595" y="656" on="0"/>
        <pt x="635" y="604" on="1"/>
        <pt x="716" y="497" on="0"/>
        <pt x="716" y="357" on="1"/>
        <pt x="716" y="250" on="0"/>
        <pt x="619" y="65" on="0"/>
        <pt x="525" y="21" on="1"/>
        <pt x="538" y="-74" on="0"/>
        <pt x="552" y="-103" on="1"/>
        <pt x="577" y="-157" on="0"/>
        <pt x="639" y="-157" on="1"/>
        <pt x="658" y="-157" on="0"/>
        <pt x="684" y="-145" on="0"/>
        <pt x="684" y="-129" on="0"/>
        <pt x="675" y="-129" on="1"/>
        <pt x="674" y="-129" on="0"/>
        <pt x="651" y="-138" on="0"/>
        <pt x="640" y="-138" on="1"/>
        <pt x="606" y="-138" on="0"/>
        <pt x="564" y="-86" on="0"/>
        <pt x="564" y="-18" on="0"/>
        <pt x="616" y="33" on="0"/>
        <pt x="701" y="33" on="0"/>
        <pt x="754" y="-25" on="0"/>
        <pt x="754" y="-111" on="0"/>
        <pt x="684" y="-175" on="0"/>
        <pt x="639" y="-175" on="1"/>
        <pt x="592" y="-175" on="0"/>
        <pt x="566" y="-153" on="1"/>
        <pt x="551" y="-141" on="0"/>
        <pt x="531" y="-120" on="0"/>
        <pt x="511" y="-79" on="0"/>
        <pt x="500" y="-56" on="0"/>
        <pt x="482" y="-5" on="0"/>
      </contour>
      <contour>
        <pt x="285" y="127" on="0"/>
        <pt x="349" y="189" on="0"/>
        <pt x="451" y="189" on="0"/>
        <pt x="482" y="153" on="1"/>
        <pt x="494" y="228" on="0"/>
        <pt x="494" y="493" on="0"/>
        <pt x="465" y="646" on="0"/>
        <pt x="415" y="700" on="0"/>
        <pt x="331" y="700" on="0"/>
        <pt x="306" y="673" on="1"/>
        <pt x="252" y="615" on="0"/>
        <pt x="252" y="357" on="1"/>
        <pt x="252" y="144" on="0"/>
        <pt x="287" y="68" on="1"/>
        <pt x="285" y="80" on="0"/>
        <pt x="285" y="86" on="1"/>
      </contour>
      <contour>
        <pt x="373" y="9" on="1"/>
        <pt x="426" y="9" on="0"/>
        <pt x="453" y="56" on="1"/>
        <pt x="421" y="107" on="0"/>
        <pt x="366" y="107" on="1"/>
        <pt x="346" y="107" on="0"/>
        <pt x="312" y="81" on="0"/>
        <pt x="312" y="30" on="0"/>
        <pt x="332" y="17" on="1"/>
        <pt x="348" y="9" on="0"/>
      </contour>
    </TTGlyph>
    <TTGlyph name="R" xMin="30" yMin="-11" xMax="741" yMax="719">
      <contour>
        <pt x="452" y="521" on="1"/>
        <pt x="452" y="605" on="0"/>
        <pt x="367" y="692" on="0"/>
        <pt x="287" y="692" on="1"/>
        <pt x="229" y="692" on="0"/>
        <pt x="129" y="645" on="0"/>
        <pt x="115" y="607" on="1"/>
        <pt x="113" y="600" on="0"/>
        <pt x="113" y="596" on="1"/>
        <pt x="113" y="587" on="0"/>
        <pt x="130" y="587" on="0"/>
        <pt x="139" y="616" on="0"/>
        <pt x="174" y="646" on="0"/>
        <pt x="246" y="646" on="0"/>
        <pt x="294" y="590" on="0"/>
        <pt x="294" y="514" on="0"/>
        <pt x="235" y="461" on="0"/>
        <pt x="152" y="461" on="0"/>
        <pt x="90" y="525" on="0"/>
        <pt x="90" y="616" on="0"/>
        <pt x="142" y="678" on="0"/>
        <pt x="186" y="692" on="1"/>
        <pt x="265" y="719" on="0"/>
        <pt x="356" y="719" on="1"/>
        <pt x="510" y="719" on="0"/>
        <pt x="664" y="630" on="0"/>
        <pt x="664" y="526" on="1"/>
        <pt x="664" y="376" on="0"/>
        <pt x="467" y="351" on="1"/>
        <pt x="467" y="347" on="1"/>
        <pt x="566" y="347" on="0"/>
        <pt x="620" y="301" on="1"/>
        <pt x="646" y="278" on="0"/>
        <pt x="664" y="195" on="0"/>
        <pt x="664" y="109" on="1"/>
        <pt x="664" y="93" on="1"/>
        <pt x="664" y="39" on="0"/>
        <pt x="686" y="39" on="1"/>
        <pt x="698" y="39" on="0"/>
        <pt x="718" y="94" on="0"/>
        <pt x="723" y="136" on="1"/>
        <pt x="741" y="134" on="1"/>
        <pt x="737" y="98" on="0"/>
        <pt x="725" y="54" on="0"/>
        <pt x="711" y="32" on="1"/>
        <pt x="684" y="-10" on="0"/>
        <pt x="520" y="-10" on="0"/>
        <pt x="479" y="45" on="1"/>
        <pt x="463" y="67" on="0"/>
        <pt x="451" y="122" on="0"/>
        <pt x="451" y="267" on="0"/>
        <pt x="432" y="297" on="1"/>
        <pt x="411" y="333" on="0"/>
        <pt x="346" y="333" on="1"/>
        <pt x="298" y="333" on="1"/>
        <pt x="298" y="25" on="1"/>
        <pt x="361" y="25" on="1"/>
        <pt x="361" y="9" on="1"/>
        <pt x="30" y="9" on="1"/>
        <pt x="30" y="25" on="1"/>
        <pt x="94" y="25" on="1"/>
        <pt x="94" y="464" on="1"/>
        <pt x="133" y="422" on="0"/>
        <pt x="193" y="422" on="1"/>
        <pt x="228" y="422" on="0"/>
        <pt x="288" y="453" on="0"/>
        <pt x="298" y="469" on="1"/>
        <pt x="298" y="350" on="1"/>
        <pt x="344" y="350" on="1"/>
        <pt x="401" y="350" on="0"/>
        <pt x="429" y="384" on="1"/>
        <pt x="452" y="413" on="0"/>
      </contour>
    </TTGlyph>
    <TTGlyph name="Racute" xMin="30" yMin="-11" xMax="741" yMax="856">
      <contour>
        <pt x="346" y="330" on="1"/>
        <pt x="298" y="330" on="1"/>
        <pt x="298" y="23" on="1"/>
        <pt x="361" y="23" on="1"/>
        <pt x="361" y="9" on="1"/>
        <pt x="30" y="9" on="1"/>
        <pt x="30" y="23" on="1"/>
        <pt x="94" y="23" on="1"/>
        <pt x="94" y="686" on="1"/>
        <pt x="30" y="686" on="1"/>
        <pt x="30" y="700" on="1"/>
        <pt x="372" y="700" on="1"/>
        <pt x="515" y="700" on="0"/>
        <pt x="664" y="620" on="0"/>
        <pt x="664" y="517" on="1"/>
        <pt x="664" y="362" on="0"/>
        <pt x="445" y="342" on="1"/>
        <pt x="453" y="342" on="0"/>
        <pt x="462" y="342" on="1"/>
        <pt x="557" y="342" on="0"/>
        <pt x="620" y="289" on="1"/>
        <pt x="647" y="265" on="0"/>
        <pt x="664" y="193" on="0"/>
        <pt x="664" y="109" on="1"/>
        <pt x="664" y="93" on="1"/>
        <pt x="664" y="39" on="0"/>
        <pt x="686" y="39" on="1"/>
        <pt x="698" y="39" on="0"/>
        <pt x="718" y="94" on="0"/>
        <pt x="723" y="136" on="1"/>
        <pt x="741" y="134" on="1"/>
        <pt x="737" y="98" on="0"/>
        <pt x="725" y="54" on="0"/>
        <pt x="711" y="32" on="1"/>
        <pt x="684" y="-10" on="0"/>
        <pt x="520" y="-10" on="0"/>
        <pt x="479" y="45" on="1"/>
        <pt x="463" y="67" on="0"/>
        <pt x="451" y="122" on="0"/>
        <pt x="451" y="264" on="0"/>
        <pt x="432" y="294" on="1"/>
        <pt x="411" y="330" on="0"/>
      </contour>
      <contour>
        <pt x="298" y="686" on="1"/>
        <pt x="298" y="344" on="1"/>
        <pt x="344" y="344" on="1"/>
        <pt x="399" y="344" on="0"/>
        <pt x="420" y="370" on="1"/>
        <pt x="432" y="383" on="0"/>
        <pt x="445" y="407" on="0"/>
        <pt x="448" y="431" on="1"/>
        <pt x="452" y="463" on="0"/>
        <pt x="452" y="512" on="1"/>
        <pt x="452" y="611" on="0"/>
        <pt x="390" y="686" on="0"/>
        <pt x="331" y="686" on="1"/>
      </contour>
      <contour>
        <pt x="502" y="856" on="1"/>
        <pt x="507" y="838" on="1"/>
        <pt x="209" y="757" on="1"/>
        <pt x="204" y="774" on="1"/>
      </contour>
    </TTGlyph>
    <TTGlyph name="Rcaron" xMin="30" yMin="-11" xMax="741" yMax="875">
      <contour>
        <pt x="346" y="330" on="1"/>
        <pt x="298" y="330" on="1"/>
        <pt x="298" y="23" on="1"/>
        <pt x="361" y="23" on="1"/>
        <pt x="361" y="9" on="1"/>
        <pt x="30" y="9" on="1"/>
        <pt x="30" y="23" on="1"/>
        <pt x="94" y="23" on="1"/>
        <pt x="94" y="686" on="1"/>
        <pt x="30" y="686" on="1"/>
        <pt x="30" y="700" on="1"/>
        <pt x="372" y="700" on="1"/>
        <pt x="515" y="700" on="0"/>
        <pt x="664" y="620" on="0"/>
        <pt x="664" y="517" on="1"/>
        <pt x="664" y="362" on="0"/>
        <pt x="445" y="342" on="1"/>
        <pt x="453" y="342" on="0"/>
        <pt x="462" y="342" on="1"/>
        <pt x="557" y="342" on="0"/>
        <pt x="620" y="289" on="1"/>
        <pt x="647" y="265" on="0"/>
        <pt x="664" y="193" on="0"/>
        <pt x="664" y="109" on="1"/>
        <pt x="664" y="93" on="1"/>
        <pt x="664" y="39" on="0"/>
        <pt x="686" y="39" on="1"/>
        <pt x="698" y="39" on="0"/>
        <pt x="718" y="94" on="0"/>
        <pt x="723" y="136" on="1"/>
        <pt x="741" y="134" on="1"/>
        <pt x="737" y="98" on="0"/>
        <pt x="725" y="54" on="0"/>
        <pt x="711" y="32" on="1"/>
        <pt x="684" y="-10" on="0"/>
        <pt x="520" y="-10" on="0"/>
        <pt x="479" y="45" on="1"/>
        <pt x="463" y="67" on="0"/>
        <pt x="451" y="122" on="0"/>
        <pt x="451" y="264" on="0"/>
        <pt x="432" y="294" on="1"/>
        <pt x="411" y="330" on="0"/>
      </contour>
      <contour>
        <pt x="298" y="686" on="1"/>
        <pt x="298" y="344" on="1"/>
        <pt x="344" y="344" on="1"/>
        <pt x="399" y="344" on="0"/>
        <pt x="420" y="370" on="1"/>
        <pt x="432" y="383" on="0"/>
        <pt x="445" y="407" on="0"/>
        <pt x="448" y="431" on="1"/>
        <pt x="452" y="463" on="0"/>
        <pt x="452" y="512" on="1"/>
        <pt x="452" y="611" on="0"/>
        <pt x="390" y="686" on="0"/>
        <pt x="331" y="686" on="1"/>
      </contour>
      <contour>
        <pt x="550" y="858" on="1"/>
        <pt x="365" y="781" on="1"/>
        <pt x="179" y="858" on="1"/>
        <pt x="185" y="875" on="1"/>
        <pt x="365" y="803" on="1"/>
        <pt x="544" y="875" on="1"/>
      </contour>
    </TTGlyph>
    <TTGlyph name="Rcommaaccent" xMin="30" yMin="-248" xMax="741" yMax="700">
      <contour>
        <pt x="444" y="-121" on="1"/>
        <pt x="448" y="-141" on="1"/>
        <pt x="448" y="-164" on="0"/>
        <pt x="417" y="-202" on="0"/>
        <pt x="355" y="-202" on="0"/>
        <pt x="310" y="-157" on="0"/>
        <pt x="310" y="-94" on="0"/>
        <pt x="361" y="-46" on="0"/>
        <pt x="432" y="-46" on="0"/>
        <pt x="485" y="-101" on="0"/>
        <pt x="485" y="-182" on="0"/>
        <pt x="418" y="-246" on="0"/>
        <pt x="375" y="-248" on="1"/>
        <pt x="371" y="-230" on="1"/>
        <pt x="374" y="-230" on="1"/>
        <pt x="413" y="-230" on="0"/>
        <pt x="467" y="-171" on="0"/>
        <pt x="467" y="-112" on="0"/>
        <pt x="454" y="-112" on="1"/>
        <pt x="444" y="-112" on="0"/>
      </contour>
      <contour>
        <pt x="467" y="342" on="1"/>
        <pt x="566" y="342" on="0"/>
        <pt x="620" y="296" on="1"/>
        <pt x="646" y="273" on="0"/>
        <pt x="664" y="194" on="0"/>
        <pt x="664" y="109" on="1"/>
        <pt x="664" y="93" on="1"/>
        <pt x="664" y="39" on="0"/>
        <pt x="686" y="39" on="1"/>
        <pt x="698" y="39" on="0"/>
        <pt x="718" y="94" on="0"/>
        <pt x="723" y="136" on="1"/>
        <pt x="741" y="134" on="1"/>
        <pt x="737" y="98" on="0"/>
        <pt x="725" y="54" on="0"/>
        <pt x="711" y="32" on="1"/>
        <pt x="684" y="-10" on="0"/>
        <pt x="520" y="-10" on="0"/>
        <pt x="479" y="45" on="1"/>
        <pt x="463" y="67" on="0"/>
        <pt x="451" y="122" on="0"/>
        <pt x="451" y="262" on="0"/>
        <pt x="432" y="292" on="1"/>
        <pt x="411" y="328" on="0"/>
        <pt x="346" y="328" on="1"/>
        <pt x="298" y="328" on="1"/>
        <pt x="298" y="25" on="1"/>
        <pt x="361" y="25" on="1"/>
        <pt x="361" y="9" on="1"/>
        <pt x="30" y="9" on="1"/>
        <pt x="30" y="25" on="1"/>
        <pt x="94" y="25" on="1"/>
        <pt x="94" y="684" on="1"/>
        <pt x="30" y="684" on="1"/>
        <pt x="30" y="700" on="1"/>
        <pt x="372" y="700" on="1"/>
        <pt x="515" y="700" on="0"/>
        <pt x="664" y="620" on="0"/>
        <pt x="664" y="517" on="1"/>
        <pt x="664" y="371" on="0"/>
        <pt x="467" y="346" on="1"/>
      </contour>
      <contour>
        <pt x="298" y="684" on="1"/>
        <pt x="298" y="345" on="1"/>
        <pt x="344" y="345" on="1"/>
        <pt x="401" y="345" on="0"/>
        <pt x="429" y="378" on="1"/>
        <pt x="452" y="405" on="0"/>
        <pt x="452" y="611" on="0"/>
        <pt x="390" y="684" on="0"/>
        <pt x="331" y="684" on="1"/>
      </contour>
    </TTGlyph>
    <TTGlyph name="S" xMin="47" yMin="-10" xMax="611" yMax="719">
      <contour>
        <pt x="90" y="64" on="1"/>
        <pt x="47" y="106" on="0"/>
        <pt x="47" y="210" on="0"/>
        <pt x="105" y="271" on="0"/>
        <pt x="191" y="271" on="0"/>
        <pt x="248" y="215" on="0"/>
        <pt x="248" y="139" on="0"/>
        <pt x="201" y="81" on="0"/>
        <pt x="124" y="81" on="0"/>
        <pt x="105" y="108" on="1"/>
        <pt x="104" y="110" on="0"/>
        <pt x="100" y="116" on="0"/>
        <pt x="99" y="118" on="1"/>
        <pt x="96" y="123" on="0"/>
        <pt x="91" y="123" on="1"/>
        <pt x="81" y="123" on="0"/>
        <pt x="81" y="105" on="0"/>
        <pt x="91" y="92" on="1"/>
        <pt x="119" y="56" on="0"/>
        <pt x="226" y="13" on="0"/>
        <pt x="353" y="13" on="0"/>
        <pt x="440" y="66" on="0"/>
        <pt x="440" y="119" on="1"/>
        <pt x="440" y="179" on="0"/>
        <pt x="363" y="220" on="1"/>
        <pt x="329" y="238" on="0"/>
        <pt x="247" y="273" on="0"/>
        <pt x="165" y="316" on="0"/>
        <pt x="97" y="369" on="0"/>
        <pt x="54" y="453" on="0"/>
        <pt x="54" y="506" on="1"/>
        <pt x="54" y="598" on="0"/>
        <pt x="220" y="719" on="0"/>
        <pt x="432" y="719" on="0"/>
        <pt x="576" y="641" on="0"/>
        <pt x="576" y="573" on="1"/>
        <pt x="576" y="526" on="0"/>
        <pt x="519" y="458" on="0"/>
        <pt x="429" y="458" on="0"/>
        <pt x="373" y="512" on="0"/>
        <pt x="373" y="592" on="0"/>
        <pt x="419" y="645" on="0"/>
        <pt x="501" y="645" on="0"/>
        <pt x="527" y="603" on="1"/>
        <pt x="532" y="595" on="0"/>
        <pt x="537" y="595" on="1"/>
        <pt x="547" y="595" on="0"/>
        <pt x="547" y="606" on="1"/>
        <pt x="547" y="612" on="0"/>
        <pt x="542" y="620" on="1"/>
        <pt x="525" y="649" on="0"/>
        <pt x="422" y="699" on="0"/>
        <pt x="288" y="699" on="0"/>
        <pt x="220" y="646" on="0"/>
        <pt x="220" y="559" on="0"/>
        <pt x="278" y="493" on="0"/>
        <pt x="365" y="454" on="0"/>
        <pt x="466" y="406" on="0"/>
        <pt x="553" y="358" on="0"/>
        <pt x="611" y="272" on="0"/>
        <pt x="611" y="215" on="1"/>
        <pt x="611" y="109" on="0"/>
        <pt x="436" y="-10" on="0"/>
        <pt x="169" y="-10" on="0"/>
      </contour>
    </TTGlyph>
    <TTGlyph name="Scaron" xMin="47" yMin="-10" xMax="603" yMax="875">
      <contour>
        <pt x="603" y="215" on="1"/>
        <pt x="603" y="105" on="0"/>
        <pt x="440" y="-10" on="0"/>
        <pt x="321" y="-10" on="1"/>
        <pt x="268" y="-10" on="0"/>
        <pt x="141" y="28" on="0"/>
        <pt x="103" y="28" on="0"/>
        <pt x="75" y="9" on="0"/>
        <pt x="69" y="0" on="1"/>
        <pt x="63" y="-10" on="1"/>
        <pt x="47" y="-10" on="1"/>
        <pt x="47" y="274" on="1"/>
        <pt x="63" y="274" on="1"/>
        <pt x="82" y="223" on="0"/>
        <pt x="109" y="161" on="0"/>
        <pt x="156" y="83" on="0"/>
        <pt x="204" y="39" on="0"/>
        <pt x="277" y="8" on="0"/>
        <pt x="367" y="8" on="0"/>
        <pt x="433" y="63" on="0"/>
        <pt x="433" y="119" on="1"/>
        <pt x="433" y="161" on="0"/>
        <pt x="397" y="191" on="1"/>
        <pt x="370" y="214" on="0"/>
        <pt x="304" y="247" on="0"/>
        <pt x="259" y="268" on="0"/>
        <pt x="204" y="294" on="0"/>
        <pt x="147" y="329" on="0"/>
        <pt x="116" y="356" on="1"/>
        <pt x="53" y="411" on="0"/>
        <pt x="53" y="603" on="0"/>
        <pt x="202" y="719" on="0"/>
        <pt x="315" y="719" on="1"/>
        <pt x="368" y="719" on="0"/>
        <pt x="487" y="684" on="0"/>
        <pt x="525" y="684" on="0"/>
        <pt x="548" y="701" on="0"/>
        <pt x="555" y="719" on="1"/>
        <pt x="571" y="719" on="1"/>
        <pt x="571" y="474" on="1"/>
        <pt x="555" y="474" on="1"/>
        <pt x="529" y="563" on="0"/>
        <pt x="407" y="701" on="0"/>
        <pt x="326" y="701" on="1"/>
        <pt x="219" y="701" on="0"/>
        <pt x="219" y="600" on="1"/>
        <pt x="219" y="549" on="0"/>
        <pt x="256" y="517" on="1"/>
        <pt x="298" y="481" on="0"/>
        <pt x="415" y="428" on="1"/>
        <pt x="519" y="381" on="0"/>
        <pt x="544" y="353" on="1"/>
        <pt x="558" y="338" on="0"/>
        <pt x="574" y="318" on="1"/>
        <pt x="603" y="280" on="0"/>
      </contour>
      <contour>
        <pt x="507" y="858" on="1"/>
        <pt x="322" y="781" on="1"/>
        <pt x="136" y="858" on="1"/>
        <pt x="142" y="875" on="1"/>
        <pt x="322" y="803" on="1"/>
        <pt x="501" y="875" on="1"/>
      </contour>
    </TTGlyph>
    <TTGlyph name="T" xMin="-43" yMin="9" xMax="713" yMax="848">
      <contour>
        <pt x="713" y="670" on="0"/>
        <pt x="633" y="599" on="0"/>
        <pt x="518" y="599" on="0"/>
        <pt x="438" y="621" on="1"/>
        <pt x="438" y="25" on="1"/>
        <pt x="512" y="25" on="1"/>
        <pt x="512" y="9" on="1"/>
        <pt x="160" y="9" on="1"/>
        <pt x="160" y="25" on="1"/>
        <pt x="234" y="25" on="1"/>
        <pt x="234" y="682" on="1"/>
        <pt x="164" y="700" on="0"/>
        <pt x="54" y="700" on="0"/>
        <pt x="-19" y="642" on="0"/>
        <pt x="-19" y="614" on="1"/>
        <pt x="-19" y="604" on="0"/>
        <pt x="-10" y="604" on="1"/>
        <pt x="-5" y="604" on="0"/>
        <pt x="-1" y="609" on="0"/>
        <pt x="1" y="611" on="0"/>
        <pt x="3" y="619" on="0"/>
        <pt x="4" y="620" on="1"/>
        <pt x="23" y="663" on="0"/>
        <pt x="76" y="663" on="1"/>
        <pt x="114" y="663" on="0"/>
        <pt x="162" y="610" on="0"/>
        <pt x="162" y="530" on="0"/>
        <pt x="108" y="479" on="0"/>
        <pt x="17" y="479" on="0"/>
        <pt x="-43" y="546" on="0"/>
        <pt x="-43" y="648" on="0"/>
        <pt x="45" y="719" on="0"/>
        <pt x="186" y="719" on="0"/>
        <pt x="511" y="618" on="0"/>
        <pt x="628" y="618" on="0"/>
        <pt x="694" y="680" on="0"/>
        <pt x="694" y="734" on="1"/>
        <pt x="694" y="770" on="0"/>
        <pt x="648" y="821" on="0"/>
        <pt x="620" y="821" on="0"/>
        <pt x="620" y="805" on="0"/>
        <pt x="630" y="801" on="1"/>
        <pt x="670" y="781" on="0"/>
        <pt x="670" y="696" on="0"/>
        <pt x="618" y="648" on="0"/>
        <pt x="542" y="648" on="0"/>
        <pt x="488" y="705" on="0"/>
        <pt x="488" y="791" on="0"/>
        <pt x="552" y="848" on="0"/>
        <pt x="649" y="848" on="0"/>
        <pt x="713" y="779" on="0"/>
      </contour>
    </TTGlyph>
    <TTGlyph name="T_h" xMin="30" yMin="9" xMax="1295" yMax="719">
      <contour>
        <pt x="160" y="9" on="1"/>
        <pt x="160" y="23" on="1"/>
        <pt x="234" y="23" on="1"/>
        <pt x="234" y="687" on="1"/>
        <pt x="189" y="687" on="0"/>
        <pt x="117" y="634" on="0"/>
        <pt x="78" y="561" on="0"/>
        <pt x="66" y="516" on="1"/>
        <pt x="45" y="442" on="0"/>
        <pt x="45" y="389" on="1"/>
        <pt x="30" y="389" on="1"/>
        <pt x="30" y="700" on="1"/>
        <pt x="642" y="700" on="1"/>
        <pt x="642" y="389" on="1"/>
        <pt x="627" y="389" on="1"/>
        <pt x="627" y="442" on="0"/>
        <pt x="594" y="561" on="0"/>
        <pt x="555" y="634" on="0"/>
        <pt x="483" y="687" on="0"/>
        <pt x="438" y="687" on="1"/>
        <pt x="438" y="23" on="1"/>
        <pt x="512" y="23" on="1"/>
        <pt x="512" y="9" on="1"/>
      </contour>
      <contour>
        <pt x="743" y="684" on="1"/>
        <pt x="672" y="684" on="1"/>
        <pt x="672" y="700" on="1"/>
        <pt x="732" y="700" on="1"/>
        <pt x="841" y="700" on="0"/>
        <pt x="932" y="719" on="1"/>
        <pt x="932" y="400" on="1"/>
        <pt x="937" y="400" on="1"/>
        <pt x="956" y="448" on="0"/>
        <pt x="1023" y="488" on="0"/>
        <pt x="1077" y="488" on="1"/>
        <pt x="1163" y="488" on="0"/>
        <pt x="1233" y="381" on="0"/>
        <pt x="1233" y="282" on="1"/>
        <pt x="1233" y="25" on="1"/>
        <pt x="1295" y="25" on="1"/>
        <pt x="1295" y="9" on="1"/>
        <pt x="986" y="9" on="1"/>
        <pt x="986" y="25" on="1"/>
        <pt x="1048" y="25" on="1"/>
        <pt x="1048" y="240" on="1"/>
        <pt x="1048" y="343" on="0"/>
        <pt x="1030" y="438" on="0"/>
        <pt x="999" y="438" on="1"/>
        <pt x="964" y="438" on="0"/>
        <pt x="928" y="311" on="0"/>
        <pt x="928" y="225" on="1"/>
        <pt x="928" y="9" on="1"/>
        <pt x="681" y="9" on="1"/>
        <pt x="681" y="25" on="1"/>
        <pt x="743" y="25" on="1"/>
      </contour>
    </TTGlyph>
    <TTGlyph name="Thorn" xMin="27" yMin="9" xMax="641" yMax="700">
      <contour>
        <pt x="95" y="684" on="1"/>
        <pt x="27" y="684" on="1"/>
        <pt x="27" y="700" on="1"/>
        <pt x="351" y="700" on="1"/>
        <pt x="351" y="684" on="1"/>
        <pt x="284" y="684" on="1"/>
        <pt x="284" y="570" on="1"/>
        <pt x="355" y="570" on="1"/>
        <pt x="505" y="570" on="0"/>
        <pt x="641" y="478" on="0"/>
        <pt x="641" y="278" on="0"/>
        <pt x="502" y="177" on="0"/>
        <pt x="380" y="177" on="1"/>
        <pt x="328" y="177" on="0"/>
        <pt x="284" y="188" on="1"/>
        <pt x="284" y="25" on="1"/>
        <pt x="352" y="25" on="1"/>
        <pt x="352" y="9" on="1"/>
        <pt x="28" y="9" on="1"/>
        <pt x="28" y="25" on="1"/>
        <pt x="95" y="25" on="1"/>
      </contour>
      <contour>
        <pt x="299" y="554" on="1"/>
        <pt x="284" y="554" on="1"/>
        <pt x="284" y="210" on="1"/>
        <pt x="310" y="202" on="0"/>
        <pt x="330" y="202" on="1"/>
        <pt x="439" y="202" on="0"/>
        <pt x="439" y="381" on="1"/>
        <pt x="439" y="478" on="0"/>
        <pt x="380" y="554" on="0"/>
      </contour>
    </TTGlyph>
    <TTGlyph name="U" xMin="30" yMin="-10" xMax="678" yMax="707">
      <contour>
        <pt x="516" y="666" on="1"/>
        <pt x="538" y="668" on="1"/>
        <pt x="568" y="668" on="0"/>
        <pt x="608" y="621" on="0"/>
        <pt x="608" y="550" on="0"/>
        <pt x="556" y="498" on="0"/>
        <pt x="471" y="498" on="0"/>
        <pt x="414" y="558" on="0"/>
        <pt x="414" y="644" on="0"/>
        <pt x="478" y="707" on="0"/>
        <pt x="530" y="707" on="1"/>
        <pt x="608" y="707" on="0"/>
        <pt x="678" y="576" on="0"/>
        <pt x="678" y="449" on="1"/>
        <pt x="678" y="294" on="0"/>
        <pt x="647" y="193" on="1"/>
        <pt x="619" y="101" on="0"/>
        <pt x="560" y="50" on="1"/>
        <pt x="491" y="-10" on="0"/>
        <pt x="383" y="-10" on="1"/>
        <pt x="242" y="-10" on="0"/>
        <pt x="174" y="52" on="1"/>
        <pt x="116" y="105" on="0"/>
        <pt x="100" y="226" on="1"/>
        <pt x="94" y="277" on="0"/>
        <pt x="94" y="349" on="1"/>
        <pt x="94" y="684" on="1"/>
        <pt x="30" y="684" on="1"/>
        <pt x="30" y="700" on="1"/>
        <pt x="362" y="700" on="1"/>
        <pt x="362" y="684" on="1"/>
        <pt x="298" y="684" on="1"/>
        <pt x="298" y="356" on="1"/>
        <pt x="298" y="197" on="0"/>
        <pt x="319" y="138" on="1"/>
        <pt x="345" y="66" on="0"/>
        <pt x="386" y="45" on="1"/>
        <pt x="411" y="32" on="0"/>
        <pt x="444" y="32" on="1"/>
        <pt x="505" y="32" on="0"/>
        <pt x="593" y="106" on="0"/>
        <pt x="616" y="170" on="1"/>
        <pt x="658" y="291" on="0"/>
        <pt x="658" y="449" on="1"/>
        <pt x="658" y="688" on="0"/>
        <pt x="537" y="688" on="1"/>
        <pt x="507" y="688" on="0"/>
        <pt x="507" y="666" on="0"/>
      </contour>
    </TTGlyph>
    <TTGlyph name="Uacute" xMin="30" yMin="-10" xMax="764" yMax="856">
      <contour>
        <pt x="764" y="700" on="1"/>
        <pt x="764" y="684" on="1"/>
        <pt x="633" y="684" on="0"/>
        <pt x="633" y="500" on="1"/>
        <pt x="633" y="302" on="1"/>
        <pt x="633" y="136" on="0"/>
        <pt x="525" y="-10" on="0"/>
        <pt x="242" y="-10" on="0"/>
        <pt x="174" y="52" on="1"/>
        <pt x="94" y="124" on="0"/>
        <pt x="94" y="349" on="1"/>
        <pt x="94" y="684" on="1"/>
        <pt x="30" y="684" on="1"/>
        <pt x="30" y="700" on="1"/>
        <pt x="362" y="700" on="1"/>
        <pt x="362" y="684" on="1"/>
        <pt x="298" y="684" on="1"/>
        <pt x="298" y="356" on="1"/>
        <pt x="298" y="279" on="0"/>
        <pt x="305" y="204" on="1"/>
        <pt x="309" y="162" on="0"/>
        <pt x="329" y="104" on="0"/>
        <pt x="360" y="50" on="0"/>
        <pt x="411" y="22" on="0"/>
        <pt x="481" y="22" on="0"/>
        <pt x="509" y="32" on="1"/>
        <pt x="558" y="51" on="0"/>
        <pt x="586" y="108" on="1"/>
        <pt x="615" y="168" on="0"/>
        <pt x="615" y="303" on="1"/>
        <pt x="615" y="500" on="1"/>
        <pt x="615" y="594" on="0"/>
        <pt x="535" y="684" on="0"/>
        <pt x="444" y="684" on="1"/>
        <pt x="444" y="700" on="1"/>
      </contour>
      <contour>
        <pt x="562" y="856" on="1"/>
        <pt x="567" y="838" on="1"/>
        <pt x="269" y="757" on="1"/>
        <pt x="264" y="774" on="1"/>
      </contour>
    </TTGlyph>
    <TTGlyph name="Ucircumflex" xMin="30" yMin="-10" xMax="764" yMax="856">
      <contour>
        <pt x="764" y="700" on="1"/>
        <pt x="764" y="684" on="1"/>
        <pt x="633" y="684" on="0"/>
        <pt x="633" y="500" on="1"/>
        <pt x="633" y="302" on="1"/>
        <pt x="633" y="136" on="0"/>
        <pt x="525" y="-10" on="0"/>
        <pt x="242" y="-10" on="0"/>
        <pt x="174" y="52" on="1"/>
        <pt x="94" y="124" on="0"/>
        <pt x="94" y="349" on="1"/>
        <pt x="94" y="684" on="1"/>
        <pt x="30" y="684" on="1"/>
        <pt x="30" y="700" on="1"/>
        <pt x="362" y="700" on="1"/>
        <pt x="362" y="684" on="1"/>
        <pt x="298" y="684" on="1"/>
        <pt x="298" y="356" on="1"/>
        <pt x="298" y="279" on="0"/>
        <pt x="305" y="204" on="1"/>
        <pt x="309" y="162" on="0"/>
        <pt x="329" y="104" on="0"/>
        <pt x="360" y="50" on="0"/>
        <pt x="411" y="22" on="0"/>
        <pt x="481" y="22" on="0"/>
        <pt x="509" y="32" on="1"/>
        <pt x="558" y="51" on="0"/>
        <pt x="586" y="108" on="1"/>
        <pt x="615" y="168" on="0"/>
        <pt x="615" y="303" on="1"/>
        <pt x="615" y="500" on="1"/>
        <pt x="615" y="594" on="0"/>
        <pt x="535" y="684" on="0"/>
        <pt x="444" y="684" on="1"/>
        <pt x="444" y="700" on="1"/>
      </contour>
      <contour>
        <pt x="413" y="836" on="1"/>
        <pt x="413" y="856" on="1"/>
        <pt x="598" y="779" on="1"/>
        <pt x="592" y="762" on="1"/>
      </contour>
      <contour>
        <pt x="413" y="856" on="1"/>
        <pt x="413" y="836" on="1"/>
        <pt x="234" y="762" on="1"/>
        <pt x="228" y="779" on="1"/>
      </contour>
    </TTGlyph>
    <TTGlyph name="Udieresis" xMin="30" yMin="-10" xMax="764" yMax="876">
      <contour>
        <pt x="764" y="700" on="1"/>
        <pt x="764" y="686" on="1"/>
        <pt x="633" y="686" on="0"/>
        <pt x="633" y="502" on="1"/>
        <pt x="633" y="302" on="1"/>
        <pt x="633" y="136" on="0"/>
        <pt x="525" y="-9" on="0"/>
        <pt x="243" y="-9" on="0"/>
        <pt x="174" y="52" on="1"/>
        <pt x="94" y="124" on="0"/>
        <pt x="94" y="349" on="1"/>
        <pt x="94" y="686" on="1"/>
        <pt x="30" y="686" on="1"/>
        <pt x="30" y="700" on="1"/>
        <pt x="362" y="700" on="1"/>
        <pt x="362" y="686" on="1"/>
        <pt x="298" y="686" on="1"/>
        <pt x="298" y="356" on="1"/>
        <pt x="298" y="278" on="0"/>
        <pt x="306" y="191" on="1"/>
        <pt x="312" y="134" on="0"/>
        <pt x="344" y="77" on="1"/>
        <pt x="376" y="23" on="0"/>
        <pt x="444" y="23" on="1"/>
        <pt x="529" y="23" on="0"/>
        <pt x="570" y="80" on="1"/>
        <pt x="615" y="142" on="0"/>
        <pt x="615" y="303" on="1"/>
        <pt x="615" y="502" on="1"/>
        <pt x="615" y="596" on="0"/>
        <pt x="535" y="686" on="0"/>
        <pt x="444" y="686" on="1"/>
        <pt x="444" y="700" on="1"/>
      </contour>
      <contour>
        <pt x="427" y="791" on="0"/>
        <pt x="427" y="841" on="0"/>
        <pt x="463" y="876" on="0"/>
        <pt x="513" y="876" on="0"/>
        <pt x="548" y="841" on="0"/>
        <pt x="548" y="791" on="0"/>
        <pt x="513" y="755" on="0"/>
        <pt x="463" y="755" on="0"/>
      </contour>
      <contour>
        <pt x="247" y="791" on="0"/>
        <pt x="247" y="841" on="0"/>
        <pt x="282" y="876" on="0"/>
        <pt x="332" y="876" on="0"/>
        <pt x="368" y="841" on="0"/>
        <pt x="368" y="791" on="0"/>
        <pt x="332" y="755" on="0"/>
        <pt x="282" y="755" on="0"/>
      </contour>
    </TTGlyph>
    <TTGlyph name="Ugrave" xMin="30" yMin="-10" xMax="764" yMax="856">
      <contour>
        <pt x="764" y="700" on="1"/>
        <pt x="764" y="684" on="1"/>
        <pt x="633" y="684" on="0"/>
        <pt x="633" y="500" on="1"/>
        <pt x="633" y="302" on="1"/>
        <pt x="633" y="136" on="0"/>
        <pt x="525" y="-10" on="0"/>
        <pt x="242" y="-10" on="0"/>
        <pt x="174" y="52" on="1"/>
        <pt x="94" y="124" on="0"/>
        <pt x="94" y="349" on="1"/>
        <pt x="94" y="684" on="1"/>
        <pt x="30" y="684" on="1"/>
        <pt x="30" y="700" on="1"/>
        <pt x="362" y="700" on="1"/>
        <pt x="362" y="684" on="1"/>
        <pt x="298" y="684" on="1"/>
        <pt x="298" y="356" on="1"/>
        <pt x="298" y="279" on="0"/>
        <pt x="305" y="204" on="1"/>
        <pt x="309" y="162" on="0"/>
        <pt x="329" y="104" on="0"/>
        <pt x="360" y="50" on="0"/>
        <pt x="411" y="22" on="0"/>
        <pt x="481" y="22" on="0"/>
        <pt x="509" y="32" on="1"/>
        <pt x="558" y="51" on="0"/>
        <pt x="586" y="108" on="1"/>
        <pt x="615" y="168" on="0"/>
        <pt x="615" y="303" on="1"/>
        <pt x="615" y="500" on="1"/>
        <pt x="615" y="594" on="0"/>
        <pt x="535" y="684" on="0"/>
        <pt x="444" y="684" on="1"/>
        <pt x="444" y="700" on="1"/>
      </contour>
      <contour>
        <pt x="218" y="838" on="1"/>
        <pt x="223" y="856" on="1"/>
        <pt x="521" y="774" on="1"/>
        <pt x="516" y="757" on="1"/>
      </contour>
    </TTGlyph>
    <TTGlyph name="V" xMin="-8" yMin="0" xMax="641" yMax="709">
      <contour>
        <pt x="368" y="0" on="1"/>
        <pt x="304" y="0" on="0"/>
        <pt x="277" y="73" on="1"/>
        <pt x="50" y="684" on="1"/>
        <pt x="-8" y="684" on="1"/>
        <pt x="-8" y="700" on="1"/>
        <pt x="347" y="700" on="1"/>
        <pt x="347" y="684" on="1"/>
        <pt x="266" y="684" on="1"/>
        <pt x="448" y="189" on="1"/>
        <pt x="463" y="189" on="1"/>
        <pt x="585" y="481" on="1"/>
        <pt x="622" y="568" on="0"/>
        <pt x="622" y="632" on="0"/>
        <pt x="587" y="678" on="0"/>
        <pt x="563" y="685" on="1"/>
        <pt x="555" y="687" on="0"/>
        <pt x="552" y="687" on="1"/>
        <pt x="543" y="687" on="0"/>
        <pt x="543" y="671" on="0"/>
        <pt x="551" y="668" on="1"/>
        <pt x="602" y="650" on="0"/>
        <pt x="602" y="597" on="1"/>
        <pt x="602" y="562" on="0"/>
        <pt x="558" y="513" on="0"/>
        <pt x="474" y="513" on="0"/>
        <pt x="416" y="570" on="0"/>
        <pt x="416" y="657" on="0"/>
        <pt x="480" y="709" on="0"/>
        <pt x="584" y="709" on="0"/>
        <pt x="641" y="641" on="0"/>
        <pt x="641" y="570" on="0"/>
        <pt x="619" y="516" on="1"/>
        <pt x="409" y="0" on="1"/>
      </contour>
    </TTGlyph>
    <TTGlyph name="W" xMin="0" yMin="9" xMax="1050" yMax="709">
      <contour>
        <pt x="0" y="684" on="1"/>
        <pt x="0" y="700" on="1"/>
        <pt x="371" y="700" on="1"/>
        <pt x="371" y="684" on="1"/>
        <pt x="290" y="684" on="1"/>
        <pt x="457" y="228" on="1"/>
        <pt x="472" y="228" on="1"/>
        <pt x="564" y="446" on="1"/>
        <pt x="474" y="684" on="1"/>
        <pt x="416" y="684" on="1"/>
        <pt x="416" y="700" on="1"/>
        <pt x="787" y="700" on="1"/>
        <pt x="787" y="684" on="1"/>
        <pt x="706" y="684" on="1"/>
        <pt x="873" y="228" on="1"/>
        <pt x="888" y="228" on="1"/>
        <pt x="994" y="481" on="1"/>
        <pt x="1031" y="568" on="0"/>
        <pt x="1031" y="632" on="0"/>
        <pt x="996" y="678" on="0"/>
        <pt x="972" y="685" on="1"/>
        <pt x="964" y="687" on="0"/>
        <pt x="961" y="687" on="1"/>
        <pt x="952" y="687" on="0"/>
        <pt x="952" y="671" on="0"/>
        <pt x="960" y="668" on="1"/>
        <pt x="1011" y="650" on="0"/>
        <pt x="1011" y="597" on="1"/>
        <pt x="1011" y="562" on="0"/>
        <pt x="967" y="513" on="0"/>
        <pt x="883" y="513" on="0"/>
        <pt x="825" y="570" on="0"/>
        <pt x="825" y="657" on="0"/>
        <pt x="889" y="709" on="0"/>
        <pt x="993" y="709" on="0"/>
        <pt x="1050" y="641" on="0"/>
        <pt x="1050" y="570" on="0"/>
        <pt x="1028" y="516" on="1"/>
        <pt x="822" y="9" on="1"/>
        <pt x="738" y="9" on="1"/>
        <pt x="573" y="421" on="1"/>
        <pt x="403" y="9" on="1"/>
        <pt x="322" y="9" on="1"/>
        <pt x="58" y="684" on="1"/>
      </contour>
    </TTGlyph>
    <TTGlyph name="X" xMin="-27" yMin="-10" xMax="696" yMax="709">
      <contour>
        <pt x="678" y="25" on="1"/>
        <pt x="678" y="9" on="1"/>
        <pt x="317" y="9" on="1"/>
        <pt x="317" y="25" on="1"/>
        <pt x="383" y="25" on="1"/>
        <pt x="276" y="238" on="1"/>
        <pt x="217" y="107" on="1"/>
        <pt x="192" y="51" on="0"/>
        <pt x="133" y="-10" on="0"/>
        <pt x="42" y="-10" on="0"/>
        <pt x="-27" y="43" on="0"/>
        <pt x="-27" y="100" on="1"/>
        <pt x="-27" y="135" on="0"/>
        <pt x="26" y="197" on="0"/>
        <pt x="110" y="197" on="0"/>
        <pt x="163" y="147" on="0"/>
        <pt x="163" y="77" on="0"/>
        <pt x="117" y="29" on="0"/>
        <pt x="84" y="29" on="1"/>
        <pt x="67" y="29" on="0"/>
        <pt x="54" y="34" on="1"/>
        <pt x="40" y="39" on="1"/>
        <pt x="31" y="39" on="0"/>
        <pt x="31" y="22" on="0"/>
        <pt x="41" y="18" on="1"/>
        <pt x="59" y="9" on="0"/>
        <pt x="108" y="9" on="0"/>
        <pt x="147" y="28" on="0"/>
        <pt x="163" y="50" on="1"/>
        <pt x="183" y="77" on="0"/>
        <pt x="214" y="144" on="1"/>
        <pt x="265" y="259" on="1"/>
        <pt x="51" y="684" on="1"/>
        <pt x="-12" y="684" on="1"/>
        <pt x="-12" y="700" on="1"/>
        <pt x="349" y="700" on="1"/>
        <pt x="349" y="684" on="1"/>
        <pt x="281" y="684" on="1"/>
        <pt x="393" y="461" on="1"/>
        <pt x="452" y="592" on="1"/>
        <pt x="477" y="648" on="0"/>
        <pt x="536" y="709" on="0"/>
        <pt x="627" y="709" on="0"/>
        <pt x="696" y="656" on="0"/>
        <pt x="696" y="599" on="1"/>
        <pt x="696" y="564" on="0"/>
        <pt x="643" y="502" on="0"/>
        <pt x="559" y="502" on="0"/>
        <pt x="506" y="552" on="0"/>
        <pt x="506" y="622" on="0"/>
        <pt x="551" y="671" on="0"/>
        <pt x="584" y="671" on="1"/>
        <pt x="599" y="671" on="0"/>
        <pt x="626" y="662" on="0"/>
        <pt x="627" y="662" on="1"/>
        <pt x="637" y="662" on="0"/>
        <pt x="637" y="678" on="0"/>
        <pt x="610" y="691" on="0"/>
        <pt x="560" y="691" on="0"/>
        <pt x="522" y="672" on="0"/>
        <pt x="489" y="627" on="0"/>
        <pt x="471" y="591" on="0"/>
        <pt x="455" y="555" on="1"/>
        <pt x="404" y="439" on="1"/>
        <pt x="613" y="25" on="1"/>
      </contour>
    </TTGlyph>
    <TTGlyph name="Y" xMin="-40" yMin="9" xMax="597" yMax="719">
      <contour>
        <pt x="578" y="605" on="1"/>
        <pt x="578" y="652" on="0"/>
        <pt x="549" y="679" on="1"/>
        <pt x="532" y="694" on="0"/>
        <pt x="508" y="694" on="0"/>
        <pt x="508" y="685" on="1"/>
        <pt x="508" y="678" on="0"/>
        <pt x="522" y="672" on="0"/>
        <pt x="525" y="670" on="1"/>
        <pt x="556" y="649" on="0"/>
        <pt x="556" y="572" on="0"/>
        <pt x="507" y="527" on="0"/>
        <pt x="431" y="527" on="0"/>
        <pt x="379" y="583" on="0"/>
        <pt x="379" y="665" on="0"/>
        <pt x="437" y="719" on="0"/>
        <pt x="546" y="719" on="0"/>
        <pt x="597" y="647" on="0"/>
        <pt x="597" y="559" on="0"/>
        <pt x="567" y="518" on="1"/>
        <pt x="410" y="298" on="1"/>
        <pt x="410" y="25" on="1"/>
        <pt x="474" y="25" on="1"/>
        <pt x="474" y="9" on="1"/>
        <pt x="142" y="9" on="1"/>
        <pt x="142" y="25" on="1"/>
        <pt x="206" y="25" on="1"/>
        <pt x="206" y="282" on="1"/>
        <pt x="18" y="684" on="1"/>
        <pt x="-40" y="684" on="1"/>
        <pt x="-40" y="700" on="1"/>
        <pt x="321" y="700" on="1"/>
        <pt x="321" y="684" on="1"/>
        <pt x="234" y="684" on="1"/>
        <pt x="401" y="318" on="1"/>
        <pt x="547" y="521" on="1"/>
        <pt x="548" y="522" on="0"/>
        <pt x="556" y="535" on="0"/>
        <pt x="560" y="541" on="0"/>
        <pt x="568" y="555" on="0"/>
        <pt x="571" y="565" on="0"/>
        <pt x="574" y="572" on="1"/>
        <pt x="578" y="586" on="0"/>
      </contour>
    </TTGlyph>
    <TTGlyph name="Yacute" xMin="-40" yMin="0" xMax="673" yMax="856">
      <contour>
        <pt x="516" y="617" on="1"/>
        <pt x="516" y="686" on="0"/>
        <pt x="411" y="686" on="1"/>
        <pt x="383" y="686" on="1"/>
        <pt x="383" y="700" on="1"/>
        <pt x="673" y="700" on="1"/>
        <pt x="673" y="686" on="1"/>
        <pt x="582" y="686" on="0"/>
        <pt x="552" y="625" on="1"/>
        <pt x="410" y="300" on="1"/>
        <pt x="410" y="14" on="1"/>
        <pt x="474" y="14" on="1"/>
        <pt x="474" y="0" on="1"/>
        <pt x="142" y="0" on="1"/>
        <pt x="142" y="14" on="1"/>
        <pt x="206" y="14" on="1"/>
        <pt x="206" y="284" on="1"/>
        <pt x="18" y="686" on="1"/>
        <pt x="-40" y="686" on="1"/>
        <pt x="-40" y="700" on="1"/>
        <pt x="321" y="700" on="1"/>
        <pt x="321" y="686" on="1"/>
        <pt x="234" y="686" on="1"/>
        <pt x="402" y="326" on="1"/>
        <pt x="497" y="544" on="1"/>
        <pt x="516" y="585" on="0"/>
      </contour>
      <contour>
        <pt x="482" y="856" on="1"/>
        <pt x="487" y="838" on="1"/>
        <pt x="189" y="757" on="1"/>
        <pt x="184" y="774" on="1"/>
      </contour>
    </TTGlyph>
    <TTGlyph name="Ydieresis" xMin="-40" yMin="9" xMax="673" yMax="876">
      <contour>
        <pt x="515" y="618" on="1"/>
        <pt x="515" y="684" on="0"/>
        <pt x="411" y="684" on="1"/>
        <pt x="383" y="684" on="1"/>
        <pt x="383" y="700" on="1"/>
        <pt x="673" y="700" on="1"/>
        <pt x="673" y="684" on="1"/>
        <pt x="582" y="684" on="0"/>
        <pt x="552" y="623" on="1"/>
        <pt x="410" y="298" on="1"/>
        <pt x="410" y="25" on="1"/>
        <pt x="474" y="25" on="1"/>
        <pt x="474" y="9" on="1"/>
        <pt x="142" y="9" on="1"/>
        <pt x="142" y="25" on="1"/>
        <pt x="206" y="25" on="1"/>
        <pt x="206" y="282" on="1"/>
        <pt x="18" y="684" on="1"/>
        <pt x="-40" y="684" on="1"/>
        <pt x="-40" y="700" on="1"/>
        <pt x="321" y="700" on="1"/>
        <pt x="321" y="684" on="1"/>
        <pt x="234" y="684" on="1"/>
        <pt x="400" y="327" on="1"/>
        <pt x="495" y="545" on="1"/>
        <pt x="515" y="588" on="0"/>
      </contour>
      <contour>
        <pt x="343" y="791" on="0"/>
        <pt x="343" y="841" on="0"/>
        <pt x="379" y="876" on="0"/>
        <pt x="429" y="876" on="0"/>
        <pt x="464" y="841" on="0"/>
        <pt x="464" y="791" on="0"/>
        <pt x="429" y="755" on="0"/>
        <pt x="379" y="755" on="0"/>
      </contour>
      <contour>
        <pt x="163" y="791" on="0"/>
        <pt x="163" y="841" on="0"/>
        <pt x="198" y="876" on="0"/>
        <pt x="248" y="876" on="0"/>
        <pt x="284" y="841" on="0"/>
        <pt x="284" y="791" on="0"/>
        <pt x="248" y="755" on="0"/>
        <pt x="198" y="755" on="0"/>
      </contour>
    </TTGlyph>
    <TTGlyph name="Z" xMin="-18" yMin="-28" xMax="669" yMax="729">
      <contour>
        <pt x="359" y="687" on="0"/>
        <pt x="202" y="710" on="0"/>
        <pt x="102" y="710" on="0"/>
        <pt x="29" y="654" on="0"/>
        <pt x="29" y="625" on="1"/>
        <pt x="29" y="614" on="0"/>
        <pt x="38" y="614" on="1"/>
        <pt x="43" y="614" on="0"/>
        <pt x="47" y="619" on="0"/>
        <pt x="49" y="621" on="0"/>
        <pt x="51" y="629" on="0"/>
        <pt x="52" y="630" on="1"/>
        <pt x="71" y="673" on="0"/>
        <pt x="124" y="673" on="1"/>
        <pt x="162" y="673" on="0"/>
        <pt x="210" y="619" on="0"/>
        <pt x="210" y="539" on="0"/>
        <pt x="154" y="485" on="0"/>
        <pt x="64" y="485" on="0"/>
        <pt x="5" y="556" on="0"/>
        <pt x="5" y="658" on="0"/>
        <pt x="93" y="729" on="0"/>
        <pt x="160" y="729" on="1"/>
        <pt x="202" y="729" on="0"/>
        <pt x="369" y="706" on="0"/>
        <pt x="545" y="706" on="0"/>
        <pt x="650" y="719" on="1"/>
        <pt x="657" y="705" on="1"/>
        <pt x="237" y="28" on="1"/>
        <pt x="300" y="25" on="0"/>
        <pt x="476" y="-9" on="0"/>
        <pt x="510" y="-9" on="1"/>
        <pt x="578" y="-9" on="0"/>
        <pt x="650" y="51" on="0"/>
        <pt x="650" y="149" on="0"/>
        <pt x="601" y="200" on="0"/>
        <pt x="578" y="200" on="1"/>
        <pt x="569" y="200" on="0"/>
        <pt x="569" y="190" on="1"/>
        <pt x="569" y="184" on="0"/>
        <pt x="572" y="183" on="1"/>
        <pt x="584" y="178" on="1"/>
        <pt x="610" y="170" on="0"/>
        <pt x="621" y="138" on="1"/>
        <pt x="626" y="124" on="0"/>
        <pt x="626" y="107" on="1"/>
        <pt x="626" y="70" on="0"/>
        <pt x="572" y="23" on="0"/>
        <pt x="496" y="23" on="0"/>
        <pt x="443" y="80" on="0"/>
        <pt x="443" y="163" on="0"/>
        <pt x="508" y="225" on="0"/>
        <pt x="606" y="225" on="0"/>
        <pt x="669" y="154" on="0"/>
        <pt x="669" y="109" on="1"/>
        <pt x="669" y="44" on="0"/>
        <pt x="582" y="-28" on="0"/>
        <pt x="511" y="-28" on="1"/>
        <pt x="481" y="-28" on="0"/>
        <pt x="280" y="9" on="0"/>
        <pt x="81" y="9" on="0"/>
        <pt x="-9" y="-10" on="1"/>
        <pt x="-18" y="6" on="1"/>
        <pt x="400" y="687" on="1"/>
      </contour>
    </TTGlyph>
    <TTGlyph name="Zcaron" xMin="20" yMin="9" xMax="623" yMax="875">
      <contour>
        <pt x="58" y="387" on="1"/>
        <pt x="58" y="700" on="1"/>
        <pt x="623" y="700" on="1"/>
        <pt x="247" y="25" on="1"/>
        <pt x="310" y="25" on="1"/>
        <pt x="454" y="25" on="0"/>
        <pt x="606" y="175" on="0"/>
        <pt x="606" y="348" on="1"/>
        <pt x="620" y="348" on="1"/>
        <pt x="620" y="9" on="1"/>
        <pt x="20" y="9" on="1"/>
        <pt x="391" y="681" on="1"/>
        <pt x="327" y="681" on="1"/>
        <pt x="198" y="681" on="0"/>
        <pt x="82" y="532" on="0"/>
        <pt x="72" y="387" on="1"/>
      </contour>
      <contour>
        <pt x="532" y="858" on="1"/>
        <pt x="347" y="781" on="1"/>
        <pt x="161" y="858" on="1"/>
        <pt x="167" y="875" on="1"/>
        <pt x="347" y="803" on="1"/>
        <pt x="526" y="875" on="1"/>
      </contour>
    </TTGlyph>
    <TTGlyph name="a" xMin="30" yMin="-10" xMax="611" yMax="488">
      <contour>
        <pt x="337" y="160" on="1"/>
        <pt x="337" y="253" on="1"/>
        <pt x="333" y="253" on="0"/>
        <pt x="330" y="253" on="1"/>
        <pt x="283" y="253" on="0"/>
        <pt x="219" y="202" on="0"/>
        <pt x="219" y="91" on="0"/>
        <pt x="251" y="40" on="0"/>
        <pt x="305" y="40" on="0"/>
        <pt x="337" y="116" on="0"/>
      </contour>
      <contour>
        <pt x="544" y="47" on="1"/>
        <pt x="582" y="47" on="0"/>
        <pt x="593" y="147" on="1"/>
        <pt x="611" y="145" on="1"/>
        <pt x="592" y="-10" on="0"/>
        <pt x="472" y="-10" on="1"/>
        <pt x="422" y="-10" on="0"/>
        <pt x="360" y="57" on="0"/>
        <pt x="356" y="104" on="1"/>
        <pt x="350" y="104" on="1"/>
        <pt x="336" y="50" on="0"/>
        <pt x="270" y="-10" on="0"/>
        <pt x="127" y="-10" on="0"/>
        <pt x="30" y="53" on="0"/>
        <pt x="30" y="122" on="1"/>
        <pt x="30" y="271" on="0"/>
        <pt x="337" y="271" on="1"/>
        <pt x="337" y="304" on="1"/>
        <pt x="337" y="401" on="0"/>
        <pt x="313" y="432" on="1"/>
        <pt x="302" y="446" on="0"/>
        <pt x="259" y="468" on="0"/>
        <pt x="229" y="468" on="1"/>
        <pt x="172" y="468" on="0"/>
        <pt x="85" y="416" on="0"/>
        <pt x="85" y="385" on="1"/>
        <pt x="85" y="376" on="0"/>
        <pt x="94" y="376" on="1"/>
        <pt x="100" y="376" on="0"/>
        <pt x="104" y="383" on="0"/>
        <pt x="106" y="390" on="0"/>
        <pt x="108" y="395" on="0"/>
        <pt x="115" y="407" on="0"/>
        <pt x="143" y="427" on="0"/>
        <pt x="191" y="427" on="0"/>
        <pt x="226" y="384" on="0"/>
        <pt x="226" y="322" on="0"/>
        <pt x="180" y="279" on="0"/>
        <pt x="110" y="279" on="0"/>
        <pt x="61" y="328" on="0"/>
        <pt x="61" y="363" on="1"/>
        <pt x="61" y="421" on="0"/>
        <pt x="167" y="488" on="0"/>
        <pt x="366" y="488" on="0"/>
        <pt x="484" y="436" on="0"/>
        <pt x="526" y="341" on="0"/>
        <pt x="526" y="258" on="1"/>
        <pt x="526" y="88" on="1"/>
        <pt x="526" y="47" on="0"/>
      </contour>
    </TTGlyph>
    <TTGlyph name="aacute" xMin="30" yMin="-10" xMax="611" yMax="629">
      <contour>
        <pt x="337" y="160" on="1"/>
        <pt x="337" y="253" on="1"/>
        <pt x="333" y="253" on="0"/>
        <pt x="330" y="253" on="1"/>
        <pt x="283" y="253" on="0"/>
        <pt x="219" y="202" on="0"/>
        <pt x="219" y="91" on="0"/>
        <pt x="251" y="40" on="0"/>
        <pt x="305" y="40" on="0"/>
        <pt x="337" y="116" on="0"/>
      </contour>
      <contour>
        <pt x="544" y="47" on="1"/>
        <pt x="582" y="47" on="0"/>
        <pt x="593" y="147" on="1"/>
        <pt x="611" y="145" on="1"/>
        <pt x="592" y="-10" on="0"/>
        <pt x="472" y="-10" on="1"/>
        <pt x="422" y="-10" on="0"/>
        <pt x="360" y="57" on="0"/>
        <pt x="356" y="104" on="1"/>
        <pt x="350" y="104" on="1"/>
        <pt x="336" y="50" on="0"/>
        <pt x="270" y="-10" on="0"/>
        <pt x="127" y="-10" on="0"/>
        <pt x="30" y="53" on="0"/>
        <pt x="30" y="122" on="1"/>
        <pt x="30" y="271" on="0"/>
        <pt x="337" y="271" on="1"/>
        <pt x="337" y="304" on="1"/>
        <pt x="337" y="401" on="0"/>
        <pt x="313" y="432" on="1"/>
        <pt x="302" y="446" on="0"/>
        <pt x="259" y="468" on="0"/>
        <pt x="229" y="468" on="1"/>
        <pt x="172" y="468" on="0"/>
        <pt x="85" y="416" on="0"/>
        <pt x="85" y="385" on="1"/>
        <pt x="85" y="376" on="0"/>
        <pt x="94" y="376" on="1"/>
        <pt x="100" y="376" on="0"/>
        <pt x="104" y="383" on="0"/>
        <pt x="106" y="390" on="0"/>
        <pt x="108" y="395" on="0"/>
        <pt x="115" y="407" on="0"/>
        <pt x="143" y="427" on="0"/>
        <pt x="191" y="427" on="0"/>
        <pt x="226" y="384" on="0"/>
        <pt x="226" y="322" on="0"/>
        <pt x="180" y="279" on="0"/>
        <pt x="110" y="279" on="0"/>
        <pt x="61" y="328" on="0"/>
        <pt x="61" y="363" on="1"/>
        <pt x="61" y="421" on="0"/>
        <pt x="167" y="488" on="0"/>
        <pt x="366" y="488" on="0"/>
        <pt x="484" y="436" on="0"/>
        <pt x="526" y="341" on="0"/>
        <pt x="526" y="258" on="1"/>
        <pt x="526" y="88" on="1"/>
        <pt x="526" y="47" on="0"/>
      </contour>
      <contour>
        <pt x="448" y="629" on="1"/>
        <pt x="453" y="611" on="1"/>
        <pt x="155" y="530" on="1"/>
        <pt x="150" y="547" on="1"/>
      </contour>
    </TTGlyph>
    <TTGlyph name="acircumflex" xMin="30" yMin="-10" xMax="611" yMax="629">
      <contour>
        <pt x="337" y="160" on="1"/>
        <pt x="337" y="253" on="1"/>
        <pt x="333" y="253" on="0"/>
        <pt x="330" y="253" on="1"/>
        <pt x="283" y="253" on="0"/>
        <pt x="219" y="202" on="0"/>
        <pt x="219" y="91" on="0"/>
        <pt x="251" y="40" on="0"/>
        <pt x="305" y="40" on="0"/>
        <pt x="337" y="116" on="0"/>
      </contour>
      <contour>
        <pt x="544" y="47" on="1"/>
        <pt x="582" y="47" on="0"/>
        <pt x="593" y="147" on="1"/>
        <pt x="611" y="145" on="1"/>
        <pt x="592" y="-10" on="0"/>
        <pt x="472" y="-10" on="1"/>
        <pt x="422" y="-10" on="0"/>
        <pt x="360" y="57" on="0"/>
        <pt x="356" y="104" on="1"/>
        <pt x="350" y="104" on="1"/>
        <pt x="336" y="50" on="0"/>
        <pt x="270" y="-10" on="0"/>
        <pt x="127" y="-10" on="0"/>
        <pt x="30" y="53" on="0"/>
        <pt x="30" y="122" on="1"/>
        <pt x="30" y="271" on="0"/>
        <pt x="337" y="271" on="1"/>
        <pt x="337" y="304" on="1"/>
        <pt x="337" y="401" on="0"/>
        <pt x="313" y="432" on="1"/>
        <pt x="302" y="446" on="0"/>
        <pt x="259" y="468" on="0"/>
        <pt x="229" y="468" on="1"/>
        <pt x="172" y="468" on="0"/>
        <pt x="85" y="416" on="0"/>
        <pt x="85" y="385" on="1"/>
        <pt x="85" y="376" on="0"/>
        <pt x="94" y="376" on="1"/>
        <pt x="100" y="376" on="0"/>
        <pt x="104" y="383" on="0"/>
        <pt x="106" y="390" on="0"/>
        <pt x="108" y="395" on="0"/>
        <pt x="115" y="407" on="0"/>
        <pt x="143" y="427" on="0"/>
        <pt x="191" y="427" on="0"/>
        <pt x="226" y="384" on="0"/>
        <pt x="226" y="322" on="0"/>
        <pt x="180" y="279" on="0"/>
        <pt x="110" y="279" on="0"/>
        <pt x="61" y="328" on="0"/>
        <pt x="61" y="363" on="1"/>
        <pt x="61" y="421" on="0"/>
        <pt x="167" y="488" on="0"/>
        <pt x="366" y="488" on="0"/>
        <pt x="484" y="436" on="0"/>
        <pt x="526" y="341" on="0"/>
        <pt x="526" y="258" on="1"/>
        <pt x="526" y="88" on="1"/>
        <pt x="526" y="47" on="0"/>
      </contour>
      <contour>
        <pt x="302" y="609" on="1"/>
        <pt x="302" y="629" on="1"/>
        <pt x="487" y="552" on="1"/>
        <pt x="481" y="535" on="1"/>
      </contour>
      <contour>
        <pt x="302" y="629" on="1"/>
        <pt x="302" y="609" on="1"/>
        <pt x="123" y="535" on="1"/>
        <pt x="117" y="552" on="1"/>
      </contour>
    </TTGlyph>
    <TTGlyph name="acute" xMin="17" yMin="530" xMax="320" yMax="629">
      <contour>
        <pt x="315" y="629" on="1"/>
        <pt x="320" y="611" on="1"/>
        <pt x="22" y="530" on="1"/>
        <pt x="17" y="547" on="1"/>
      </contour>
    </TTGlyph>
    <TTGlyph name="adieresis" xMin="30" yMin="-10" xMax="611" yMax="641">
      <contour>
        <pt x="337" y="160" on="1"/>
        <pt x="337" y="253" on="1"/>
        <pt x="333" y="253" on="0"/>
        <pt x="330" y="253" on="1"/>
        <pt x="283" y="253" on="0"/>
        <pt x="219" y="202" on="0"/>
        <pt x="219" y="91" on="0"/>
        <pt x="251" y="40" on="0"/>
        <pt x="305" y="40" on="0"/>
        <pt x="337" y="116" on="0"/>
      </contour>
      <contour>
        <pt x="544" y="47" on="1"/>
        <pt x="582" y="47" on="0"/>
        <pt x="593" y="147" on="1"/>
        <pt x="611" y="145" on="1"/>
        <pt x="592" y="-10" on="0"/>
        <pt x="472" y="-10" on="1"/>
        <pt x="422" y="-10" on="0"/>
        <pt x="360" y="57" on="0"/>
        <pt x="356" y="104" on="1"/>
        <pt x="350" y="104" on="1"/>
        <pt x="336" y="50" on="0"/>
        <pt x="270" y="-10" on="0"/>
        <pt x="127" y="-10" on="0"/>
        <pt x="30" y="53" on="0"/>
        <pt x="30" y="122" on="1"/>
        <pt x="30" y="271" on="0"/>
        <pt x="337" y="271" on="1"/>
        <pt x="337" y="304" on="1"/>
        <pt x="337" y="401" on="0"/>
        <pt x="313" y="432" on="1"/>
        <pt x="302" y="446" on="0"/>
        <pt x="259" y="468" on="0"/>
        <pt x="229" y="468" on="1"/>
        <pt x="172" y="468" on="0"/>
        <pt x="85" y="416" on="0"/>
        <pt x="85" y="385" on="1"/>
        <pt x="85" y="376" on="0"/>
        <pt x="94" y="376" on="1"/>
        <pt x="100" y="376" on="0"/>
        <pt x="104" y="383" on="0"/>
        <pt x="106" y="390" on="0"/>
        <pt x="108" y="395" on="0"/>
        <pt x="115" y="407" on="0"/>
        <pt x="143" y="427" on="0"/>
        <pt x="191" y="427" on="0"/>
        <pt x="226" y="384" on="0"/>
        <pt x="226" y="322" on="0"/>
        <pt x="180" y="279" on="0"/>
        <pt x="110" y="279" on="0"/>
        <pt x="61" y="328" on="0"/>
        <pt x="61" y="363" on="1"/>
        <pt x="61" y="421" on="0"/>
        <pt x="167" y="488" on="0"/>
        <pt x="366" y="488" on="0"/>
        <pt x="484" y="436" on="0"/>
        <pt x="526" y="341" on="0"/>
        <pt x="526" y="258" on="1"/>
        <pt x="526" y="88" on="1"/>
        <pt x="526" y="47" on="0"/>
      </contour>
      <contour>
        <pt x="332" y="556" on="0"/>
        <pt x="332" y="606" on="0"/>
        <pt x="368" y="641" on="0"/>
        <pt x="418" y="641" on="0"/>
        <pt x="453" y="606" on="0"/>
        <pt x="453" y="556" on="0"/>
        <pt x="418" y="520" on="0"/>
        <pt x="368" y="520" on="0"/>
      </contour>
      <contour>
        <pt x="152" y="556" on="0"/>
        <pt x="152" y="606" on="0"/>
        <pt x="187" y="641" on="0"/>
        <pt x="237" y="641" on="0"/>
        <pt x="273" y="606" on="0"/>
        <pt x="273" y="556" on="0"/>
        <pt x="237" y="520" on="0"/>
        <pt x="187" y="520" on="0"/>
      </contour>
    </TTGlyph>
    <TTGlyph name="ae" xMin="78" yMin="-10" xMax="877" yMax="488">
      <contour>
        <pt x="109" y="421" on="0"/>
        <pt x="215" y="488" on="0"/>
        <pt x="418" y="488" on="0"/>
        <pt x="480" y="455" on="1"/>
        <pt x="541" y="488" on="0"/>
        <pt x="696" y="488" on="0"/>
        <pt x="801" y="460" on="0"/>
        <pt x="877" y="387" on="0"/>
        <pt x="877" y="292" on="0"/>
        <pt x="842" y="238" on="0"/>
        <pt x="810" y="224" on="1"/>
        <pt x="751" y="199" on="0"/>
        <pt x="657" y="199" on="1"/>
        <pt x="574" y="199" on="1"/>
        <pt x="574" y="183" on="1"/>
        <pt x="574" y="88" on="0"/>
        <pt x="627" y="11" on="0"/>
        <pt x="732" y="11" on="0"/>
        <pt x="837" y="82" on="0"/>
        <pt x="854" y="167" on="1"/>
        <pt x="872" y="164" on="1"/>
        <pt x="836" y="-10" on="0"/>
        <pt x="651" y="-10" on="1"/>
        <pt x="536" y="-10" on="0"/>
        <pt x="480" y="55" on="1"/>
        <pt x="471" y="48" on="0"/>
        <pt x="437" y="26" on="0"/>
        <pt x="331" y="-10" on="0"/>
        <pt x="279" y="-10" on="1"/>
        <pt x="194" y="-10" on="0"/>
        <pt x="78" y="55" on="0"/>
        <pt x="78" y="122" on="1"/>
        <pt x="78" y="271" on="0"/>
        <pt x="385" y="271" on="1"/>
        <pt x="385" y="304" on="1"/>
        <pt x="385" y="401" on="0"/>
        <pt x="361" y="432" on="1"/>
        <pt x="350" y="446" on="0"/>
        <pt x="307" y="468" on="0"/>
        <pt x="277" y="468" on="1"/>
        <pt x="220" y="468" on="0"/>
        <pt x="133" y="416" on="0"/>
        <pt x="133" y="385" on="1"/>
        <pt x="133" y="376" on="0"/>
        <pt x="142" y="376" on="1"/>
        <pt x="148" y="376" on="0"/>
        <pt x="152" y="383" on="0"/>
        <pt x="154" y="390" on="0"/>
        <pt x="156" y="395" on="0"/>
        <pt x="163" y="407" on="0"/>
        <pt x="191" y="427" on="0"/>
        <pt x="239" y="427" on="0"/>
        <pt x="274" y="384" on="0"/>
        <pt x="274" y="322" on="0"/>
        <pt x="228" y="279" on="0"/>
        <pt x="158" y="279" on="0"/>
        <pt x="109" y="328" on="0"/>
        <pt x="109" y="363" on="1"/>
      </contour>
      <contour>
        <pt x="574" y="337" on="1"/>
        <pt x="574" y="217" on="1"/>
        <pt x="591" y="217" on="1"/>
        <pt x="643" y="217" on="0"/>
        <pt x="695" y="279" on="0"/>
        <pt x="695" y="347" on="1"/>
        <pt x="695" y="470" on="0"/>
        <pt x="635" y="470" on="1"/>
        <pt x="601" y="470" on="0"/>
        <pt x="574" y="403" on="0"/>
      </contour>
      <contour>
        <pt x="267" y="133" on="1"/>
        <pt x="267" y="13" on="0"/>
        <pt x="323" y="13" on="1"/>
        <pt x="385" y="13" on="0"/>
        <pt x="385" y="133" on="1"/>
        <pt x="385" y="253" on="1"/>
        <pt x="380" y="253" on="0"/>
        <pt x="375" y="253" on="1"/>
        <pt x="329" y="253" on="0"/>
        <pt x="267" y="201" on="0"/>
      </contour>
    </TTGlyph>
    <TTGlyph name="agrave" xMin="30" yMin="-10" xMax="611" yMax="629">
      <contour>
        <pt x="337" y="160" on="1"/>
        <pt x="337" y="253" on="1"/>
        <pt x="333" y="253" on="0"/>
        <pt x="330" y="253" on="1"/>
        <pt x="283" y="253" on="0"/>
        <pt x="219" y="202" on="0"/>
        <pt x="219" y="91" on="0"/>
        <pt x="251" y="40" on="0"/>
        <pt x="305" y="40" on="0"/>
        <pt x="337" y="116" on="0"/>
      </contour>
      <contour>
        <pt x="544" y="47" on="1"/>
        <pt x="582" y="47" on="0"/>
        <pt x="593" y="147" on="1"/>
        <pt x="611" y="145" on="1"/>
        <pt x="592" y="-10" on="0"/>
        <pt x="472" y="-10" on="1"/>
        <pt x="422" y="-10" on="0"/>
        <pt x="360" y="57" on="0"/>
        <pt x="356" y="104" on="1"/>
        <pt x="350" y="104" on="1"/>
        <pt x="336" y="50" on="0"/>
        <pt x="270" y="-10" on="0"/>
        <pt x="127" y="-10" on="0"/>
        <pt x="30" y="53" on="0"/>
        <pt x="30" y="122" on="1"/>
        <pt x="30" y="271" on="0"/>
        <pt x="337" y="271" on="1"/>
        <pt x="337" y="304" on="1"/>
        <pt x="337" y="401" on="0"/>
        <pt x="313" y="432" on="1"/>
        <pt x="302" y="446" on="0"/>
        <pt x="259" y="468" on="0"/>
        <pt x="229" y="468" on="1"/>
        <pt x="172" y="468" on="0"/>
        <pt x="85" y="416" on="0"/>
        <pt x="85" y="385" on="1"/>
        <pt x="85" y="376" on="0"/>
        <pt x="94" y="376" on="1"/>
        <pt x="100" y="376" on="0"/>
        <pt x="104" y="383" on="0"/>
        <pt x="106" y="390" on="0"/>
        <pt x="108" y="395" on="0"/>
        <pt x="115" y="407" on="0"/>
        <pt x="143" y="427" on="0"/>
        <pt x="191" y="427" on="0"/>
        <pt x="226" y="384" on="0"/>
        <pt x="226" y="322" on="0"/>
        <pt x="180" y="279" on="0"/>
        <pt x="110" y="279" on="0"/>
        <pt x="61" y="328" on="0"/>
        <pt x="61" y="363" on="1"/>
        <pt x="61" y="421" on="0"/>
        <pt x="167" y="488" on="0"/>
        <pt x="366" y="488" on="0"/>
        <pt x="484" y="436" on="0"/>
        <pt x="526" y="341" on="0"/>
        <pt x="526" y="258" on="1"/>
        <pt x="526" y="88" on="1"/>
        <pt x="526" y="47" on="0"/>
      </contour>
      <contour>
        <pt x="150" y="611" on="1"/>
        <pt x="155" y="629" on="1"/>
        <pt x="453" y="547" on="1"/>
        <pt x="448" y="530" on="1"/>
      </contour>
    </TTGlyph>
    <TTGlyph name="ampersand" xMin="23" yMin="-10" xMax="744" yMax="689">
      <contour>
        <pt x="426" y="631" on="1"/>
        <pt x="388" y="665" on="0"/>
        <pt x="335" y="665" on="1"/>
        <pt x="228" y="665" on="0"/>
        <pt x="228" y="525" on="1"/>
        <pt x="228" y="477" on="0"/>
        <pt x="271" y="405" on="0"/>
        <pt x="312" y="405" on="1"/>
        <pt x="334" y="405" on="0"/>
        <pt x="362" y="416" on="1"/>
        <pt x="372" y="419" on="1"/>
        <pt x="377" y="401" on="1"/>
        <pt x="296" y="367" on="0"/>
        <pt x="237" y="281" on="0"/>
        <pt x="237" y="119" on="0"/>
        <pt x="317" y="28" on="0"/>
        <pt x="449" y="28" on="0"/>
        <pt x="549" y="109" on="0"/>
        <pt x="549" y="234" on="0"/>
        <pt x="487" y="294" on="0"/>
        <pt x="398" y="294" on="0"/>
        <pt x="333" y="245" on="0"/>
        <pt x="333" y="155" on="0"/>
        <pt x="365" y="131" on="1"/>
        <pt x="374" y="125" on="0"/>
        <pt x="380" y="125" on="1"/>
        <pt x="389" y="125" on="0"/>
        <pt x="389" y="134" on="1"/>
        <pt x="389" y="139" on="0"/>
        <pt x="376" y="149" on="0"/>
        <pt x="374" y="150" on="1"/>
        <pt x="354" y="167" on="0"/>
        <pt x="354" y="223" on="0"/>
        <pt x="395" y="260" on="0"/>
        <pt x="458" y="260" on="0"/>
        <pt x="500" y="215" on="0"/>
        <pt x="500" y="143" on="0"/>
        <pt x="448" y="97" on="0"/>
        <pt x="364" y="97" on="0"/>
        <pt x="302" y="165" on="0"/>
        <pt x="302" y="216" on="1"/>
        <pt x="302" y="294" on="0"/>
        <pt x="423" y="374" on="0"/>
        <pt x="503" y="380" on="1"/>
        <pt x="615" y="388" on="0"/>
        <pt x="651" y="402" on="1"/>
        <pt x="715" y="428" on="0"/>
        <pt x="716" y="493" on="1"/>
        <pt x="716" y="537" on="0"/>
        <pt x="684" y="561" on="1"/>
        <pt x="675" y="567" on="0"/>
        <pt x="669" y="567" on="1"/>
        <pt x="660" y="567" on="0"/>
        <pt x="660" y="558" on="1"/>
        <pt x="660" y="553" on="0"/>
        <pt x="673" y="543" on="0"/>
        <pt x="675" y="542" on="1"/>
        <pt x="695" y="525" on="0"/>
        <pt x="695" y="469" on="0"/>
        <pt x="654" y="432" on="0"/>
        <pt x="591" y="432" on="0"/>
        <pt x="549" y="477" on="0"/>
        <pt x="549" y="549" on="0"/>
        <pt x="601" y="595" on="0"/>
        <pt x="684" y="595" on="0"/>
        <pt x="744" y="524" on="0"/>
        <pt x="744" y="427" on="0"/>
        <pt x="697" y="356" on="0"/>
        <pt x="664" y="338" on="1"/>
        <pt x="592" y="300" on="0"/>
        <pt x="540" y="293" on="1"/>
        <pt x="517" y="290" on="1"/>
        <pt x="540" y="277" on="0"/>
        <pt x="569" y="215" on="0"/>
        <pt x="569" y="146" on="0"/>
        <pt x="542" y="83" on="0"/>
        <pt x="486" y="25" on="0"/>
        <pt x="383" y="-10" on="0"/>
        <pt x="232" y="-10" on="0"/>
        <pt x="112" y="26" on="0"/>
        <pt x="81" y="56" on="1"/>
        <pt x="23" y="114" on="0"/>
        <pt x="23" y="261" on="0"/>
        <pt x="131" y="361" on="0"/>
        <pt x="229" y="380" on="1"/>
        <pt x="227" y="390" on="1"/>
        <pt x="138" y="390" on="0"/>
        <pt x="47" y="468" on="0"/>
        <pt x="47" y="589" on="0"/>
        <pt x="178" y="689" on="0"/>
        <pt x="402" y="689" on="0"/>
        <pt x="451" y="633" on="1"/>
        <pt x="475" y="606" on="0"/>
        <pt x="475" y="533" on="0"/>
        <pt x="429" y="481" on="0"/>
        <pt x="357" y="481" on="0"/>
        <pt x="311" y="523" on="0"/>
        <pt x="311" y="586" on="0"/>
        <pt x="349" y="627" on="0"/>
        <pt x="405" y="627" on="0"/>
        <pt x="422" y="607" on="1"/>
        <pt x="430" y="592" on="0"/>
        <pt x="447" y="592" on="0"/>
        <pt x="447" y="611" on="0"/>
      </contour>
    </TTGlyph>
    <TTGlyph name="approxequal" xMin="47" yMin="136" xMax="527" yMax="340">
      <contour>
        <pt x="486" y="297" on="0"/>
        <pt x="436" y="278" on="0"/>
        <pt x="362" y="278" on="0"/>
        <pt x="215" y="322" on="0"/>
        <pt x="184" y="322" on="1"/>
        <pt x="122" y="322" on="0"/>
        <pt x="55" y="275" on="1"/>
        <pt x="47" y="291" on="1"/>
        <pt x="122" y="340" on="0"/>
        <pt x="186" y="340" on="1"/>
        <pt x="224" y="340" on="0"/>
        <pt x="363" y="296" on="0"/>
        <pt x="401" y="296" on="1"/>
        <pt x="463" y="296" on="0"/>
        <pt x="515" y="338" on="1"/>
        <pt x="527" y="324" on="1"/>
      </contour>
      <contour>
        <pt x="486" y="158" on="0"/>
        <pt x="436" y="139" on="0"/>
        <pt x="362" y="139" on="0"/>
        <pt x="215" y="183" on="0"/>
        <pt x="184" y="183" on="1"/>
        <pt x="122" y="183" on="0"/>
        <pt x="55" y="136" on="1"/>
        <pt x="47" y="152" on="1"/>
        <pt x="122" y="201" on="0"/>
        <pt x="186" y="201" on="1"/>
        <pt x="224" y="201" on="0"/>
        <pt x="363" y="157" on="0"/>
        <pt x="401" y="157" on="1"/>
        <pt x="463" y="157" on="0"/>
        <pt x="515" y="199" on="1"/>
        <pt x="527" y="185" on="1"/>
      </contour>
    </TTGlyph>
    <TTGlyph name="aring" xMin="30" yMin="-10" xMax="611" yMax="641">
      <contour>
        <pt x="337" y="160" on="1"/>
        <pt x="337" y="253" on="1"/>
        <pt x="333" y="253" on="0"/>
        <pt x="330" y="253" on="1"/>
        <pt x="283" y="253" on="0"/>
        <pt x="219" y="202" on="0"/>
        <pt x="219" y="91" on="0"/>
        <pt x="251" y="40" on="0"/>
        <pt x="305" y="40" on="0"/>
        <pt x="337" y="116" on="0"/>
      </contour>
      <contour>
        <pt x="544" y="47" on="1"/>
        <pt x="582" y="47" on="0"/>
        <pt x="593" y="147" on="1"/>
        <pt x="611" y="145" on="1"/>
        <pt x="592" y="-10" on="0"/>
        <pt x="472" y="-10" on="1"/>
        <pt x="422" y="-10" on="0"/>
        <pt x="360" y="57" on="0"/>
        <pt x="356" y="104" on="1"/>
        <pt x="350" y="104" on="1"/>
        <pt x="336" y="50" on="0"/>
        <pt x="270" y="-10" on="0"/>
        <pt x="127" y="-10" on="0"/>
        <pt x="30" y="53" on="0"/>
        <pt x="30" y="122" on="1"/>
        <pt x="30" y="271" on="0"/>
        <pt x="337" y="271" on="1"/>
        <pt x="337" y="304" on="1"/>
        <pt x="337" y="401" on="0"/>
        <pt x="313" y="432" on="1"/>
        <pt x="302" y="446" on="0"/>
        <pt x="259" y="468" on="0"/>
        <pt x="229" y="468" on="1"/>
        <pt x="172" y="468" on="0"/>
        <pt x="85" y="416" on="0"/>
        <pt x="85" y="385" on="1"/>
        <pt x="85" y="376" on="0"/>
        <pt x="94" y="376" on="1"/>
        <pt x="100" y="376" on="0"/>
        <pt x="104" y="383" on="0"/>
        <pt x="106" y="390" on="0"/>
        <pt x="108" y="395" on="0"/>
        <pt x="115" y="407" on="0"/>
        <pt x="143" y="427" on="0"/>
        <pt x="191" y="427" on="0"/>
        <pt x="226" y="384" on="0"/>
        <pt x="226" y="322" on="0"/>
        <pt x="180" y="279" on="0"/>
        <pt x="110" y="279" on="0"/>
        <pt x="61" y="328" on="0"/>
        <pt x="61" y="363" on="1"/>
        <pt x="61" y="421" on="0"/>
        <pt x="167" y="488" on="0"/>
        <pt x="366" y="488" on="0"/>
        <pt x="484" y="436" on="0"/>
        <pt x="526" y="341" on="0"/>
        <pt x="526" y="258" on="1"/>
        <pt x="526" y="88" on="1"/>
        <pt x="526" y="47" on="0"/>
      </contour>
      <contour>
        <pt x="249" y="598" on="0"/>
        <pt x="249" y="564" on="0"/>
        <pt x="274" y="538" on="0"/>
        <pt x="307" y="538" on="0"/>
        <pt x="332" y="564" on="0"/>
        <pt x="332" y="598" on="0"/>
        <pt x="307" y="623" on="0"/>
        <pt x="274" y="623" on="0"/>
      </contour>
      <contour>
        <pt x="265" y="520" on="0"/>
        <pt x="231" y="555" on="0"/>
        <pt x="231" y="606" on="0"/>
        <pt x="265" y="641" on="0"/>
        <pt x="315" y="641" on="0"/>
        <pt x="350" y="606" on="0"/>
        <pt x="350" y="555" on="0"/>
        <pt x="315" y="520" on="0"/>
      </contour>
    </TTGlyph>
    <TTGlyph name="asciicircum" xMin="86" yMin="139" xMax="431" yMax="469">
      <contour>
        <pt x="431" y="148" on="1"/>
        <pt x="415" y="139" on="1"/>
        <pt x="258" y="436" on="1"/>
        <pt x="101" y="139" on="1"/>
        <pt x="86" y="149" on="1"/>
        <pt x="252" y="469" on="1"/>
        <pt x="263" y="469" on="1"/>
      </contour>
    </TTGlyph>
    <TTGlyph name="asciitilde" xMin="52" yMin="227" xMax="532" yMax="292">
      <contour>
        <pt x="494" y="249" on="0"/>
        <pt x="442" y="230" on="0"/>
        <pt x="367" y="230" on="0"/>
        <pt x="220" y="274" on="0"/>
        <pt x="189" y="274" on="1"/>
        <pt x="127" y="274" on="0"/>
        <pt x="60" y="227" on="1"/>
        <pt x="52" y="243" on="1"/>
        <pt x="127" y="292" on="0"/>
        <pt x="191" y="292" on="1"/>
        <pt x="229" y="292" on="0"/>
        <pt x="368" y="248" on="0"/>
        <pt x="406" y="248" on="1"/>
        <pt x="468" y="248" on="0"/>
        <pt x="520" y="290" on="1"/>
        <pt x="532" y="276" on="1"/>
      </contour>
    </TTGlyph>
    <TTGlyph name="asterisk" xMin="20" yMin="398" xMax="308" yMax="719">
      <contour>
        <pt x="184" y="719" on="0"/>
        <pt x="212" y="691" on="0"/>
        <pt x="212" y="649" on="0"/>
        <pt x="165" y="586" on="0"/>
        <pt x="164" y="576" on="1"/>
        <pt x="163" y="585" on="0"/>
        <pt x="116" y="649" on="0"/>
        <pt x="116" y="691" on="0"/>
        <pt x="144" y="719" on="0"/>
      </contour>
      <contour>
        <pt x="132" y="567" on="1"/>
        <pt x="79" y="564" on="1"/>
        <pt x="52" y="564" on="0"/>
        <pt x="20" y="592" on="0"/>
        <pt x="20" y="635" on="0"/>
        <pt x="49" y="662" on="0"/>
        <pt x="92" y="662" on="0"/>
        <pt x="122" y="620" on="0"/>
        <pt x="141" y="570" on="0"/>
        <pt x="151" y="564" on="1"/>
        <pt x="143" y="567" on="0"/>
      </contour>
      <contour>
        <pt x="248" y="564" on="1"/>
        <pt x="196" y="567" on="1"/>
        <pt x="184" y="567" on="0"/>
        <pt x="177" y="564" on="1"/>
        <pt x="187" y="570" on="0"/>
        <pt x="206" y="620" on="0"/>
        <pt x="236" y="662" on="0"/>
        <pt x="279" y="662" on="0"/>
        <pt x="308" y="635" on="0"/>
        <pt x="308" y="592" on="0"/>
        <pt x="275" y="564" on="0"/>
      </contour>
      <contour>
        <pt x="79" y="552" on="1"/>
        <pt x="132" y="548" on="1"/>
        <pt x="141" y="548" on="0"/>
        <pt x="151" y="552" on="1"/>
        <pt x="141" y="546" on="0"/>
        <pt x="122" y="496" on="0"/>
        <pt x="92" y="454" on="0"/>
        <pt x="49" y="454" on="0"/>
        <pt x="20" y="481" on="0"/>
        <pt x="20" y="523" on="0"/>
        <pt x="52" y="552" on="0"/>
      </contour>
      <contour>
        <pt x="144" y="398" on="0"/>
        <pt x="116" y="425" on="0"/>
        <pt x="116" y="467" on="0"/>
        <pt x="163" y="530" on="0"/>
        <pt x="164" y="540" on="1"/>
        <pt x="165" y="529" on="0"/>
        <pt x="212" y="466" on="0"/>
        <pt x="212" y="425" on="0"/>
        <pt x="184" y="398" on="0"/>
      </contour>
      <contour>
        <pt x="196" y="548" on="1"/>
        <pt x="248" y="552" on="1"/>
        <pt x="275" y="552" on="0"/>
        <pt x="308" y="523" on="0"/>
        <pt x="308" y="481" on="0"/>
        <pt x="279" y="454" on="0"/>
        <pt x="236" y="454" on="0"/>
        <pt x="206" y="496" on="0"/>
        <pt x="187" y="546" on="0"/>
        <pt x="177" y="552" on="1"/>
        <pt x="187" y="548" on="0"/>
      </contour>
    </TTGlyph>
    <TTGlyph name="at" xMin="50" yMin="-124" xMax="784" yMax="610">
      <contour>
        <pt x="756" y="253" on="1"/>
        <pt x="756" y="398" on="0"/>
        <pt x="560" y="583" on="0"/>
        <pt x="277" y="583" on="0"/>
        <pt x="78" y="383" on="0"/>
        <pt x="78" y="103" on="0"/>
        <pt x="277" y="-97" on="0"/>
        <pt x="417" y="-97" on="1"/>
        <pt x="503" y="-97" on="0"/>
        <pt x="578" y="-57" on="1"/>
        <pt x="592" y="-80" on="1"/>
        <pt x="510" y="-124" on="0"/>
        <pt x="417" y="-124" on="1"/>
        <pt x="265" y="-124" on="0"/>
        <pt x="50" y="91" on="0"/>
        <pt x="50" y="395" on="0"/>
        <pt x="265" y="610" on="0"/>
        <pt x="572" y="610" on="0"/>
        <pt x="784" y="410" on="0"/>
        <pt x="784" y="253" on="1"/>
        <pt x="784" y="159" on="0"/>
        <pt x="675" y="39" on="0"/>
        <pt x="588" y="39" on="1"/>
        <pt x="545" y="39" on="0"/>
        <pt x="487" y="96" on="0"/>
        <pt x="484" y="134" on="1"/>
        <pt x="479" y="134" on="1"/>
        <pt x="468" y="90" on="0"/>
        <pt x="411" y="39" on="0"/>
        <pt x="294" y="39" on="0"/>
        <pt x="214" y="91" on="0"/>
        <pt x="214" y="148" on="1"/>
        <pt x="214" y="271" on="0"/>
        <pt x="466" y="271" on="1"/>
        <pt x="466" y="298" on="1"/>
        <pt x="466" y="377" on="0"/>
        <pt x="448" y="401" on="1"/>
        <pt x="426" y="429" on="0"/>
        <pt x="320" y="429" on="0"/>
        <pt x="283" y="404" on="1"/>
        <pt x="258" y="387" on="0"/>
        <pt x="258" y="362" on="1"/>
        <pt x="258" y="353" on="0"/>
        <pt x="275" y="353" on="0"/>
        <pt x="277" y="364" on="1"/>
        <pt x="286" y="397" on="0"/>
        <pt x="324" y="397" on="1"/>
        <pt x="345" y="397" on="0"/>
        <pt x="380" y="363" on="0"/>
        <pt x="380" y="310" on="0"/>
        <pt x="342" y="275" on="0"/>
        <pt x="280" y="275" on="0"/>
        <pt x="238" y="318" on="0"/>
        <pt x="238" y="348" on="1"/>
        <pt x="238" y="450" on="0"/>
        <pt x="403" y="450" on="1"/>
        <pt x="532" y="450" on="0"/>
        <pt x="622" y="362" on="0"/>
        <pt x="622" y="260" on="1"/>
        <pt x="622" y="121" on="1"/>
        <pt x="622" y="85" on="0"/>
        <pt x="647" y="85" on="1"/>
        <pt x="682" y="85" on="0"/>
        <pt x="756" y="177" on="0"/>
      </contour>
      <contour>
        <pt x="466" y="179" on="1"/>
        <pt x="466" y="253" on="1"/>
        <pt x="462" y="253" on="0"/>
        <pt x="458" y="253" on="1"/>
        <pt x="370" y="253" on="0"/>
        <pt x="370" y="165" on="1"/>
        <pt x="370" y="123" on="0"/>
        <pt x="395" y="81" on="0"/>
        <pt x="440" y="81" on="0"/>
        <pt x="466" y="143" on="0"/>
      </contour>
    </TTGlyph>
    <TTGlyph name="atilde" xMin="30" yMin="-10" xMax="611" yMax="607">
      <contour>
        <pt x="337" y="160" on="1"/>
        <pt x="337" y="253" on="1"/>
        <pt x="333" y="253" on="0"/>
        <pt x="330" y="253" on="1"/>
        <pt x="283" y="253" on="0"/>
        <pt x="219" y="202" on="0"/>
        <pt x="219" y="91" on="0"/>
        <pt x="251" y="40" on="0"/>
        <pt x="305" y="40" on="0"/>
        <pt x="337" y="116" on="0"/>
      </contour>
      <contour>
        <pt x="544" y="47" on="1"/>
        <pt x="582" y="47" on="0"/>
        <pt x="593" y="147" on="1"/>
        <pt x="611" y="145" on="1"/>
        <pt x="592" y="-10" on="0"/>
        <pt x="472" y="-10" on="1"/>
        <pt x="422" y="-10" on="0"/>
        <pt x="360" y="57" on="0"/>
        <pt x="356" y="104" on="1"/>
        <pt x="350" y="104" on="1"/>
        <pt x="336" y="50" on="0"/>
        <pt x="270" y="-10" on="0"/>
        <pt x="127" y="-10" on="0"/>
        <pt x="30" y="53" on="0"/>
        <pt x="30" y="122" on="1"/>
        <pt x="30" y="271" on="0"/>
        <pt x="337" y="271" on="1"/>
        <pt x="337" y="304" on="1"/>
        <pt x="337" y="401" on="0"/>
        <pt x="313" y="432" on="1"/>
        <pt x="302" y="446" on="0"/>
        <pt x="259" y="468" on="0"/>
        <pt x="229" y="468" on="1"/>
        <pt x="172" y="468" on="0"/>
        <pt x="85" y="416" on="0"/>
        <pt x="85" y="385" on="1"/>
        <pt x="85" y="376" on="0"/>
        <pt x="94" y="376" on="1"/>
        <pt x="100" y="376" on="0"/>
        <pt x="104" y="383" on="0"/>
        <pt x="106" y="390" on="0"/>
        <pt x="108" y="395" on="0"/>
        <pt x="115" y="407" on="0"/>
        <pt x="143" y="427" on="0"/>
        <pt x="191" y="427" on="0"/>
        <pt x="226" y="384" on="0"/>
        <pt x="226" y="322" on="0"/>
        <pt x="180" y="279" on="0"/>
        <pt x="110" y="279" on="0"/>
        <pt x="61" y="328" on="0"/>
        <pt x="61" y="363" on="1"/>
        <pt x="61" y="421" on="0"/>
        <pt x="167" y="488" on="0"/>
        <pt x="366" y="488" on="0"/>
        <pt x="484" y="436" on="0"/>
        <pt x="526" y="341" on="0"/>
        <pt x="526" y="258" on="1"/>
        <pt x="526" y="88" on="1"/>
        <pt x="526" y="47" on="0"/>
      </contour>
      <contour>
        <pt x="376" y="554" on="1"/>
        <pt x="349" y="554" on="0"/>
        <pt x="255" y="586" on="0"/>
        <pt x="203" y="586" on="0"/>
        <pt x="162" y="570" on="0"/>
        <pt x="152" y="562" on="1"/>
        <pt x="143" y="553" on="1"/>
        <pt x="129" y="568" on="1"/>
        <pt x="169" y="606" on="0"/>
        <pt x="226" y="606" on="1"/>
        <pt x="261" y="606" on="0"/>
        <pt x="352" y="574" on="0"/>
        <pt x="401" y="574" on="0"/>
        <pt x="442" y="590" on="0"/>
        <pt x="452" y="598" on="1"/>
        <pt x="461" y="607" on="1"/>
        <pt x="475" y="592" on="1"/>
        <pt x="437" y="554" on="0"/>
      </contour>
    </TTGlyph>
    <TTGlyph name="b" xMin="4" yMin="-10" xMax="590" yMax="719">
      <contour>
        <pt x="264" y="61" on="1"/>
        <pt x="264" y="9" on="1"/>
        <pt x="13" y="9" on="1"/>
        <pt x="13" y="25" on="1"/>
        <pt x="75" y="25" on="1"/>
        <pt x="75" y="684" on="1"/>
        <pt x="4" y="684" on="1"/>
        <pt x="4" y="700" on="1"/>
        <pt x="64" y="700" on="1"/>
        <pt x="173" y="700" on="0"/>
        <pt x="264" y="719" on="1"/>
        <pt x="264" y="400" on="1"/>
        <pt x="269" y="400" on="1"/>
        <pt x="288" y="448" on="0"/>
        <pt x="355" y="488" on="0"/>
        <pt x="409" y="488" on="1"/>
        <pt x="503" y="488" on="0"/>
        <pt x="590" y="349" on="0"/>
        <pt x="590" y="131" on="0"/>
        <pt x="491" y="-10" on="0"/>
        <pt x="304" y="-10" on="0"/>
        <pt x="269" y="61" on="1"/>
      </contour>
      <contour>
        <pt x="260" y="239" on="1"/>
        <pt x="260" y="212" on="1"/>
        <pt x="260" y="124" on="0"/>
        <pt x="306" y="27" on="0"/>
        <pt x="336" y="27" on="1"/>
        <pt x="388" y="27" on="0"/>
        <pt x="388" y="239" on="1"/>
        <pt x="388" y="345" on="0"/>
        <pt x="367" y="443" on="0"/>
        <pt x="336" y="443" on="1"/>
        <pt x="300" y="443" on="0"/>
        <pt x="260" y="316" on="0"/>
      </contour>
    </TTGlyph>
    <TTGlyph name="backslash" xMin="10" yMin="-121" xMax="315" yMax="700">
      <contour>
        <pt x="29" y="700" on="1"/>
        <pt x="315" y="-114" on="1"/>
        <pt x="295" y="-121" on="1"/>
        <pt x="10" y="694" on="1"/>
      </contour>
    </TTGlyph>
    <TTGlyph name="bar" xMin="170" yMin="-205" xMax="192" yMax="719">
      <contour>
        <pt x="192" y="719" on="1"/>
        <pt x="192" y="-205" on="1"/>
        <pt x="170" y="-205" on="1"/>
        <pt x="170" y="719" on="1"/>
      </contour>
    </TTGlyph>
    <TTGlyph name="braceleft" xMin="-3" yMin="-205" xMax="252" yMax="700">
      <contour>
        <pt x="146" y="236" on="0"/>
        <pt x="171" y="192" on="0"/>
        <pt x="171" y="125" on="0"/>
        <pt x="125" y="-1" on="0"/>
        <pt x="125" y="-45" on="1"/>
        <pt x="125" y="-166" on="0"/>
        <pt x="202" y="-184" on="1"/>
        <pt x="222" y="-189" on="0"/>
        <pt x="252" y="-189" on="1"/>
        <pt x="252" y="-205" on="1"/>
        <pt x="138" y="-205" on="0"/>
        <pt x="-3" y="-107" on="0"/>
        <pt x="-3" y="-12" on="1"/>
        <pt x="-3" y="32" on="0"/>
        <pt x="42" y="98" on="0"/>
        <pt x="68" y="114" on="1"/>
        <pt x="140" y="157" on="0"/>
        <pt x="140" y="191" on="1"/>
        <pt x="140" y="239" on="0"/>
        <pt x="65" y="239" on="1"/>
        <pt x="65" y="254" on="1"/>
        <pt x="140" y="254" on="0"/>
        <pt x="140" y="304" on="1"/>
        <pt x="140" y="338" on="0"/>
        <pt x="68" y="381" on="1"/>
        <pt x="42" y="397" on="0"/>
        <pt x="-3" y="463" on="0"/>
        <pt x="-3" y="507" on="1"/>
        <pt x="-3" y="602" on="0"/>
        <pt x="138" y="700" on="0"/>
        <pt x="252" y="700" on="1"/>
        <pt x="252" y="684" on="1"/>
        <pt x="222" y="684" on="0"/>
        <pt x="202" y="679" on="1"/>
        <pt x="125" y="661" on="0"/>
        <pt x="125" y="540" on="1"/>
        <pt x="125" y="496" on="0"/>
        <pt x="171" y="370" on="0"/>
        <pt x="171" y="303" on="0"/>
        <pt x="145" y="257" on="0"/>
        <pt x="110" y="247" on="1"/>
      </contour>
    </TTGlyph>
    <TTGlyph name="braceright" xMin="0" yMin="-205" xMax="255" yMax="700">
      <contour>
        <pt x="106" y="259" on="0"/>
        <pt x="81" y="303" on="0"/>
        <pt x="81" y="370" on="0"/>
        <pt x="127" y="496" on="0"/>
        <pt x="127" y="540" on="1"/>
        <pt x="127" y="661" on="0"/>
        <pt x="50" y="679" on="1"/>
        <pt x="30" y="684" on="0"/>
        <pt x="0" y="684" on="1"/>
        <pt x="0" y="700" on="1"/>
        <pt x="114" y="700" on="0"/>
        <pt x="255" y="602" on="0"/>
        <pt x="255" y="507" on="1"/>
        <pt x="255" y="463" on="0"/>
        <pt x="210" y="397" on="0"/>
        <pt x="184" y="381" on="1"/>
        <pt x="112" y="338" on="0"/>
        <pt x="112" y="304" on="1"/>
        <pt x="112" y="255" on="0"/>
        <pt x="187" y="255" on="1"/>
        <pt x="187" y="242" on="1"/>
        <pt x="112" y="242" on="0"/>
        <pt x="112" y="191" on="1"/>
        <pt x="112" y="157" on="0"/>
        <pt x="184" y="114" on="1"/>
        <pt x="210" y="98" on="0"/>
        <pt x="255" y="32" on="0"/>
        <pt x="255" y="-12" on="1"/>
        <pt x="255" y="-107" on="0"/>
        <pt x="114" y="-205" on="0"/>
        <pt x="0" y="-205" on="1"/>
        <pt x="0" y="-189" on="1"/>
        <pt x="30" y="-189" on="0"/>
        <pt x="50" y="-184" on="1"/>
        <pt x="127" y="-166" on="0"/>
        <pt x="127" y="-45" on="1"/>
        <pt x="127" y="-1" on="0"/>
        <pt x="81" y="125" on="0"/>
        <pt x="81" y="192" on="0"/>
        <pt x="107" y="238" on="0"/>
        <pt x="142" y="248" on="1"/>
      </contour>
    </TTGlyph>
    <TTGlyph name="bracketleft" xMin="60" yMin="-214" xMax="306" yMax="700">
      <contour>
        <pt x="306" y="700" on="1"/>
        <pt x="306" y="684" on="1"/>
        <pt x="190" y="684" on="1"/>
        <pt x="190" y="-198" on="1"/>
        <pt x="306" y="-198" on="1"/>
        <pt x="306" y="-214" on="1"/>
        <pt x="60" y="-214" on="1"/>
        <pt x="60" y="700" on="1"/>
      </contour>
    </TTGlyph>
    <TTGlyph name="bracketright" xMin="0" yMin="-214" xMax="246" yMax="700">
      <contour>
        <pt x="116" y="-198" on="1"/>
        <pt x="116" y="684" on="1"/>
        <pt x="0" y="684" on="1"/>
        <pt x="0" y="700" on="1"/>
        <pt x="246" y="700" on="1"/>
        <pt x="246" y="-214" on="1"/>
        <pt x="0" y="-214" on="1"/>
        <pt x="0" y="-198" on="1"/>
      </contour>
    </TTGlyph>
    <TTGlyph name="breve" xMin="51" yMin="531" xMax="243" yMax="625">
      <contour>
        <pt x="187" y="531" on="0"/>
        <pt x="107" y="531" on="0"/>
        <pt x="52" y="586" on="0"/>
        <pt x="51" y="625" on="1"/>
        <pt x="71" y="625" on="1"/>
        <pt x="73" y="594" on="0"/>
        <pt x="116" y="551" on="0"/>
        <pt x="178" y="551" on="0"/>
        <pt x="221" y="594" on="0"/>
        <pt x="223" y="625" on="1"/>
        <pt x="243" y="625" on="1"/>
        <pt x="242" y="586" on="0"/>
      </contour>
    </TTGlyph>
    <TTGlyph name="brokenbar" xMin="100" yMin="-120" xMax="122" yMax="719">
      <contour>
        <pt x="122" y="-120" on="1"/>
        <pt x="100" y="-120" on="1"/>
        <pt x="100" y="232" on="1"/>
        <pt x="122" y="232" on="1"/>
      </contour>
      <contour>
        <pt x="122" y="367" on="1"/>
        <pt x="100" y="367" on="1"/>
        <pt x="100" y="719" on="1"/>
        <pt x="122" y="719" on="1"/>
      </contour>
    </TTGlyph>
    <TTGlyph name="bullet" xMin="122" yMin="224" xMax="421" yMax="535">
      <contour>
        <pt x="122" y="444" on="0"/>
        <pt x="210" y="535" on="0"/>
        <pt x="331" y="535" on="0"/>
        <pt x="421" y="444" on="0"/>
        <pt x="421" y="314" on="0"/>
        <pt x="332" y="224" on="0"/>
        <pt x="209" y="224" on="0"/>
        <pt x="122" y="313" on="0"/>
      </contour>
    </TTGlyph>
    <TTGlyph name="c" xMin="30" yMin="-10" xMax="478" yMax="488">
      <contour>
        <pt x="375" y="18" on="0"/>
        <pt x="447" y="96" on="0"/>
        <pt x="458" y="154" on="1"/>
        <pt x="460" y="164" on="1"/>
        <pt x="478" y="164" on="1"/>
        <pt x="469" y="87" on="0"/>
        <pt x="367" y="-10" on="0"/>
        <pt x="292" y="-10" on="1"/>
        <pt x="170" y="-10" on="0"/>
        <pt x="30" y="120" on="0"/>
        <pt x="30" y="357" on="0"/>
        <pt x="173" y="488" on="0"/>
        <pt x="294" y="488" on="1"/>
        <pt x="379" y="488" on="0"/>
        <pt x="470" y="404" on="0"/>
        <pt x="470" y="312" on="0"/>
        <pt x="423" y="262" on="0"/>
        <pt x="351" y="262" on="0"/>
        <pt x="306" y="306" on="0"/>
        <pt x="306" y="369" on="0"/>
        <pt x="343" y="410" on="0"/>
        <pt x="373" y="410" on="1"/>
        <pt x="415" y="410" on="0"/>
        <pt x="428" y="370" on="1"/>
        <pt x="432" y="357" on="0"/>
        <pt x="439" y="357" on="1"/>
        <pt x="448" y="357" on="0"/>
        <pt x="448" y="367" on="1"/>
        <pt x="448" y="370" on="0"/>
        <pt x="446" y="378" on="1"/>
        <pt x="418" y="460" on="0"/>
        <pt x="327" y="460" on="1"/>
        <pt x="300" y="460" on="0"/>
        <pt x="262" y="431" on="0"/>
        <pt x="243" y="393" on="0"/>
        <pt x="238" y="360" on="1"/>
        <pt x="232" y="319" on="0"/>
        <pt x="232" y="197" on="0"/>
        <pt x="235" y="135" on="0"/>
        <pt x="245" y="73" on="0"/>
        <pt x="255" y="56" on="1"/>
        <pt x="277" y="18" on="0"/>
      </contour>
    </TTGlyph>
    <TTGlyph name="c_h" xMin="30" yMin="-10" xMax="1125" yMax="719">
      <contour>
        <pt x="375" y="18" on="0"/>
        <pt x="447" y="96" on="0"/>
        <pt x="458" y="154" on="1"/>
        <pt x="460" y="164" on="1"/>
        <pt x="478" y="164" on="1"/>
        <pt x="469" y="87" on="0"/>
        <pt x="367" y="-10" on="0"/>
        <pt x="292" y="-10" on="1"/>
        <pt x="170" y="-10" on="0"/>
        <pt x="30" y="120" on="0"/>
        <pt x="30" y="357" on="0"/>
        <pt x="173" y="488" on="0"/>
        <pt x="294" y="488" on="1"/>
        <pt x="379" y="488" on="0"/>
        <pt x="470" y="404" on="0"/>
        <pt x="470" y="312" on="0"/>
        <pt x="423" y="262" on="0"/>
        <pt x="351" y="262" on="0"/>
        <pt x="306" y="306" on="0"/>
        <pt x="306" y="369" on="0"/>
        <pt x="343" y="410" on="0"/>
        <pt x="373" y="410" on="1"/>
        <pt x="415" y="410" on="0"/>
        <pt x="428" y="370" on="1"/>
        <pt x="432" y="357" on="0"/>
        <pt x="439" y="357" on="1"/>
        <pt x="448" y="357" on="0"/>
        <pt x="448" y="367" on="1"/>
        <pt x="448" y="370" on="0"/>
        <pt x="446" y="378" on="1"/>
        <pt x="418" y="460" on="0"/>
        <pt x="327" y="460" on="1"/>
        <pt x="300" y="460" on="0"/>
        <pt x="262" y="431" on="0"/>
        <pt x="243" y="393" on="0"/>
        <pt x="238" y="360" on="1"/>
        <pt x="232" y="319" on="0"/>
        <pt x="232" y="197" on="0"/>
        <pt x="235" y="135" on="0"/>
        <pt x="245" y="73" on="0"/>
        <pt x="255" y="56" on="1"/>
        <pt x="277" y="18" on="0"/>
      </contour>
      <contour>
        <pt x="573" y="684" on="1"/>
        <pt x="502" y="684" on="1"/>
        <pt x="502" y="700" on="1"/>
        <pt x="562" y="700" on="1"/>
        <pt x="671" y="700" on="0"/>
        <pt x="762" y="719" on="1"/>
        <pt x="762" y="400" on="1"/>
        <pt x="767" y="400" on="1"/>
        <pt x="786" y="448" on="0"/>
        <pt x="853" y="488" on="0"/>
        <pt x="907" y="488" on="1"/>
        <pt x="993" y="488" on="0"/>
        <pt x="1063" y="381" on="0"/>
        <pt x="1063" y="282" on="1"/>
        <pt x="1063" y="25" on="1"/>
        <pt x="1125" y="25" on="1"/>
        <pt x="1125" y="9" on="1"/>
        <pt x="816" y="9" on="1"/>
        <pt x="816" y="25" on="1"/>
        <pt x="878" y="25" on="1"/>
        <pt x="878" y="240" on="1"/>
        <pt x="878" y="343" on="0"/>
        <pt x="860" y="438" on="0"/>
        <pt x="829" y="438" on="1"/>
        <pt x="794" y="438" on="0"/>
        <pt x="758" y="311" on="0"/>
        <pt x="758" y="225" on="1"/>
        <pt x="758" y="9" on="1"/>
        <pt x="511" y="9" on="1"/>
        <pt x="511" y="25" on="1"/>
        <pt x="573" y="25" on="1"/>
      </contour>
    </TTGlyph>
    <TTGlyph name="c_t" xMin="30" yMin="-10" xMax="845" yMax="796">
      <contour>
        <pt x="770" y="47" on="1"/>
        <pt x="808" y="47" on="0"/>
        <pt x="819" y="147" on="1"/>
        <pt x="837" y="145" on="1"/>
        <pt x="828" y="71" on="0"/>
        <pt x="762" y="-10" on="0"/>
        <pt x="697" y="-10" on="1"/>
        <pt x="563" y="-10" on="0"/>
        <pt x="563" y="136" on="1"/>
        <pt x="563" y="455" on="1"/>
        <pt x="511" y="455" on="1"/>
        <pt x="511" y="469" on="1"/>
        <pt x="539" y="469" on="1"/>
        <pt x="610" y="469" on="0"/>
        <pt x="701" y="563" on="0"/>
        <pt x="701" y="690" on="0"/>
        <pt x="604" y="778" on="0"/>
        <pt x="402" y="778" on="0"/>
        <pt x="292" y="683" on="0"/>
        <pt x="292" y="621" on="1"/>
        <pt x="292" y="524" on="0"/>
        <pt x="406" y="460" on="1"/>
        <pt x="378" y="457" on="1"/>
        <pt x="336" y="479" on="0"/>
        <pt x="274" y="566" on="0"/>
        <pt x="274" y="619" on="1"/>
        <pt x="274" y="693" on="0"/>
        <pt x="398" y="796" on="0"/>
        <pt x="501" y="796" on="1"/>
        <pt x="626" y="796" on="0"/>
        <pt x="752" y="649" on="0"/>
        <pt x="752" y="469" on="1"/>
        <pt x="845" y="469" on="1"/>
        <pt x="845" y="455" on="1"/>
        <pt x="752" y="455" on="1"/>
        <pt x="752" y="88" on="1"/>
        <pt x="752" y="47" on="0"/>
      </contour>
      <contour>
        <pt x="375" y="18" on="0"/>
        <pt x="447" y="96" on="0"/>
        <pt x="458" y="154" on="1"/>
        <pt x="460" y="164" on="1"/>
        <pt x="478" y="164" on="1"/>
        <pt x="469" y="87" on="0"/>
        <pt x="367" y="-10" on="0"/>
        <pt x="292" y="-10" on="1"/>
        <pt x="170" y="-10" on="0"/>
        <pt x="30" y="120" on="0"/>
        <pt x="30" y="357" on="0"/>
        <pt x="173" y="488" on="0"/>
        <pt x="294" y="488" on="1"/>
        <pt x="379" y="488" on="0"/>
        <pt x="470" y="404" on="0"/>
        <pt x="470" y="312" on="0"/>
        <pt x="423" y="262" on="0"/>
        <pt x="351" y="262" on="0"/>
        <pt x="306" y="306" on="0"/>
        <pt x="306" y="369" on="0"/>
        <pt x="343" y="410" on="0"/>
        <pt x="373" y="410" on="1"/>
        <pt x="415" y="410" on="0"/>
        <pt x="428" y="370" on="1"/>
        <pt x="432" y="357" on="0"/>
        <pt x="439" y="357" on="1"/>
        <pt x="448" y="357" on="0"/>
        <pt x="448" y="367" on="1"/>
        <pt x="448" y="370" on="0"/>
        <pt x="446" y="378" on="1"/>
        <pt x="418" y="460" on="0"/>
        <pt x="327" y="460" on="1"/>
        <pt x="300" y="460" on="0"/>
        <pt x="262" y="431" on="0"/>
        <pt x="243" y="393" on="0"/>
        <pt x="238" y="360" on="1"/>
        <pt x="232" y="319" on="0"/>
        <pt x="232" y="197" on="0"/>
        <pt x="235" y="135" on="0"/>
        <pt x="245" y="73" on="0"/>
        <pt x="255" y="56" on="1"/>
        <pt x="277" y="18" on="0"/>
      </contour>
    </TTGlyph>
    <TTGlyph name="caron" xMin="43" yMin="525" xMax="414" yMax="619">
      <contour>
        <pt x="414" y="602" on="1"/>
        <pt x="229" y="525" on="1"/>
        <pt x="43" y="602" on="1"/>
        <pt x="49" y="619" on="1"/>
        <pt x="229" y="547" on="1"/>
        <pt x="408" y="619" on="1"/>
      </contour>
    </TTGlyph>
    <TTGlyph name="ccedilla" xMin="20" yMin="-249" xMax="468" yMax="488">
      <contour>
        <pt x="365" y="18" on="0"/>
        <pt x="437" y="96" on="0"/>
        <pt x="448" y="154" on="1"/>
        <pt x="450" y="164" on="1"/>
        <pt x="468" y="164" on="1"/>
        <pt x="459" y="87" on="0"/>
        <pt x="357" y="-10" on="0"/>
        <pt x="282" y="-10" on="1"/>
        <pt x="160" y="-10" on="0"/>
        <pt x="20" y="120" on="0"/>
        <pt x="20" y="357" on="0"/>
        <pt x="163" y="488" on="0"/>
        <pt x="284" y="488" on="1"/>
        <pt x="369" y="488" on="0"/>
        <pt x="460" y="404" on="0"/>
        <pt x="460" y="312" on="0"/>
        <pt x="413" y="262" on="0"/>
        <pt x="341" y="262" on="0"/>
        <pt x="296" y="306" on="0"/>
        <pt x="296" y="369" on="0"/>
        <pt x="333" y="410" on="0"/>
        <pt x="363" y="410" on="1"/>
        <pt x="405" y="410" on="0"/>
        <pt x="418" y="370" on="1"/>
        <pt x="422" y="357" on="0"/>
        <pt x="429" y="357" on="1"/>
        <pt x="438" y="357" on="0"/>
        <pt x="438" y="367" on="1"/>
        <pt x="438" y="370" on="0"/>
        <pt x="436" y="378" on="1"/>
        <pt x="408" y="460" on="0"/>
        <pt x="317" y="460" on="1"/>
        <pt x="290" y="460" on="0"/>
        <pt x="252" y="431" on="0"/>
        <pt x="233" y="393" on="0"/>
        <pt x="228" y="360" on="1"/>
        <pt x="222" y="319" on="0"/>
        <pt x="222" y="197" on="0"/>
        <pt x="225" y="135" on="0"/>
        <pt x="235" y="73" on="0"/>
        <pt x="245" y="56" on="1"/>
        <pt x="267" y="18" on="0"/>
      </contour>
      <contour>
        <pt x="204" y="-70" on="1"/>
        <pt x="230" y="-53" on="0"/>
        <pt x="309" y="-53" on="0"/>
        <pt x="369" y="-112" on="0"/>
        <pt x="369" y="-195" on="0"/>
        <pt x="311" y="-249" on="0"/>
        <pt x="239" y="-249" on="0"/>
        <pt x="195" y="-198" on="0"/>
        <pt x="195" y="-134" on="0"/>
        <pt x="240" y="-94" on="0"/>
        <pt x="290" y="-94" on="0"/>
        <pt x="330" y="-130" on="0"/>
        <pt x="332" y="-172" on="0"/>
        <pt x="350" y="-172" on="0"/>
        <pt x="350" y="-160" on="1"/>
        <pt x="350" y="-130" on="0"/>
        <pt x="308" y="-72" on="0"/>
        <pt x="268" y="-72" on="1"/>
        <pt x="245" y="-72" on="0"/>
        <pt x="200" y="-95" on="0"/>
        <pt x="189" y="-112" on="1"/>
        <pt x="172" y="-94" on="1"/>
        <pt x="209" y="4" on="1"/>
        <pt x="229" y="-4" on="1"/>
      </contour>
    </TTGlyph>
    <TTGlyph name="cedilla" xMin="102" yMin="-249" xMax="299" yMax="4">
      <contour>
        <pt x="134" y="-70" on="1"/>
        <pt x="160" y="-53" on="0"/>
        <pt x="239" y="-53" on="0"/>
        <pt x="299" y="-112" on="0"/>
        <pt x="299" y="-195" on="0"/>
        <pt x="241" y="-249" on="0"/>
        <pt x="169" y="-249" on="0"/>
        <pt x="125" y="-198" on="0"/>
        <pt x="125" y="-134" on="0"/>
        <pt x="170" y="-94" on="0"/>
        <pt x="220" y="-94" on="0"/>
        <pt x="260" y="-130" on="0"/>
        <pt x="262" y="-172" on="0"/>
        <pt x="280" y="-172" on="0"/>
        <pt x="280" y="-160" on="1"/>
        <pt x="280" y="-130" on="0"/>
        <pt x="238" y="-72" on="0"/>
        <pt x="198" y="-72" on="1"/>
        <pt x="175" y="-72" on="0"/>
        <pt x="130" y="-95" on="0"/>
        <pt x="119" y="-112" on="1"/>
        <pt x="102" y="-94" on="1"/>
        <pt x="139" y="4" on="1"/>
        <pt x="159" y="-4" on="1"/>
      </contour>
    </TTGlyph>
    <TTGlyph name="cent" xMin="37" yMin="-62" xMax="485" yMax="570">
      <contour>
        <pt x="301" y="-62" on="1"/>
        <pt x="281" y="-62" on="1"/>
        <pt x="281" y="19" on="1"/>
        <pt x="164" y="24" on="0"/>
        <pt x="37" y="153" on="0"/>
        <pt x="37" y="344" on="0"/>
        <pt x="163" y="473" on="0"/>
        <pt x="281" y="478" on="1"/>
        <pt x="281" y="570" on="1"/>
        <pt x="301" y="570" on="1"/>
        <pt x="301" y="479" on="1"/>
        <pt x="386" y="479" on="0"/>
        <pt x="477" y="395" on="0"/>
        <pt x="477" y="303" on="0"/>
        <pt x="430" y="253" on="0"/>
        <pt x="358" y="253" on="0"/>
        <pt x="313" y="297" on="0"/>
        <pt x="313" y="360" on="0"/>
        <pt x="350" y="401" on="0"/>
        <pt x="380" y="401" on="1"/>
        <pt x="422" y="401" on="0"/>
        <pt x="435" y="361" on="1"/>
        <pt x="439" y="348" on="0"/>
        <pt x="446" y="348" on="1"/>
        <pt x="455" y="348" on="0"/>
        <pt x="455" y="358" on="1"/>
        <pt x="455" y="361" on="0"/>
        <pt x="453" y="369" on="1"/>
        <pt x="425" y="451" on="0"/>
        <pt x="334" y="451" on="1"/>
        <pt x="282" y="451" on="0"/>
        <pt x="235" y="358" on="0"/>
        <pt x="235" y="252" on="1"/>
        <pt x="235" y="47" on="0"/>
        <pt x="329" y="47" on="1"/>
        <pt x="382" y="47" on="0"/>
        <pt x="454" y="125" on="0"/>
        <pt x="465" y="183" on="1"/>
        <pt x="467" y="193" on="1"/>
        <pt x="485" y="193" on="1"/>
        <pt x="476" y="116" on="0"/>
        <pt x="375" y="20" on="0"/>
        <pt x="301" y="19" on="1"/>
      </contour>
    </TTGlyph>
    <TTGlyph name="circumflex" xMin="-2" yMin="535" xMax="368" yMax="629">
      <contour>
        <pt x="183" y="609" on="1"/>
        <pt x="183" y="629" on="1"/>
        <pt x="368" y="552" on="1"/>
        <pt x="362" y="535" on="1"/>
      </contour>
      <contour>
        <pt x="183" y="629" on="1"/>
        <pt x="183" y="609" on="1"/>
        <pt x="4" y="535" on="1"/>
        <pt x="-2" y="552" on="1"/>
      </contour>
    </TTGlyph>
    <TTGlyph name="colon" xMin="47" yMin="-10" xMax="237" yMax="488">
      <contour>
        <pt x="47" y="45" on="0"/>
        <pt x="47" y="125" on="0"/>
        <pt x="102" y="180" on="0"/>
        <pt x="182" y="180" on="0"/>
        <pt x="237" y="125" on="0"/>
        <pt x="237" y="45" on="0"/>
        <pt x="182" y="-10" on="0"/>
        <pt x="102" y="-10" on="0"/>
      </contour>
      <contour>
        <pt x="47" y="353" on="0"/>
        <pt x="47" y="433" on="0"/>
        <pt x="102" y="488" on="0"/>
        <pt x="182" y="488" on="0"/>
        <pt x="237" y="433" on="0"/>
        <pt x="237" y="353" on="0"/>
        <pt x="182" y="298" on="0"/>
        <pt x="102" y="298" on="0"/>
      </contour>
    </TTGlyph>
    <TTGlyph name="comma" xMin="54" yMin="-144" xMax="283" yMax="180">
      <contour>
        <pt x="265" y="46" on="1"/>
        <pt x="265" y="115" on="0"/>
        <pt x="211" y="148" on="1"/>
        <pt x="195" y="157" on="0"/>
        <pt x="178" y="157" on="0"/>
        <pt x="178" y="141" on="0"/>
        <pt x="189" y="137" on="1"/>
        <pt x="231" y="119" on="0"/>
        <pt x="231" y="70" on="1"/>
        <pt x="231" y="34" on="0"/>
        <pt x="180" y="-10" on="0"/>
        <pt x="105" y="-10" on="0"/>
        <pt x="54" y="43" on="0"/>
        <pt x="54" y="123" on="0"/>
        <pt x="111" y="180" on="0"/>
        <pt x="205" y="180" on="0"/>
        <pt x="283" y="111" on="0"/>
        <pt x="283" y="45" on="1"/>
        <pt x="283" y="-79" on="0"/>
        <pt x="146" y="-144" on="1"/>
        <pt x="138" y="-128" on="1"/>
        <pt x="265" y="-68" on="0"/>
      </contour>
    </TTGlyph>
    <TTGlyph name="copyright" xMin="50" yMin="-124" xMax="761" yMax="610">
      <contour>
        <pt x="546" y="453" on="1"/>
        <pt x="564" y="453" on="0"/>
        <pt x="572" y="480" on="1"/>
        <pt x="585" y="480" on="1"/>
        <pt x="585" y="290" on="1"/>
        <pt x="572" y="290" on="1"/>
        <pt x="570" y="297" on="0"/>
        <pt x="558" y="342" on="0"/>
        <pt x="551" y="364" on="0"/>
        <pt x="537" y="404" on="0"/>
        <pt x="522" y="426" on="0"/>
        <pt x="512" y="438" on="1"/>
        <pt x="493" y="461" on="0"/>
        <pt x="460" y="461" on="1"/>
        <pt x="374" y="461" on="0"/>
        <pt x="374" y="237" on="1"/>
        <pt x="374" y="122" on="0"/>
        <pt x="433" y="31" on="0"/>
        <pt x="505" y="31" on="1"/>
        <pt x="603" y="31" on="0"/>
        <pt x="733" y="161" on="0"/>
        <pt x="733" y="269" on="1"/>
        <pt x="733" y="409" on="0"/>
        <pt x="555" y="583" on="0"/>
        <pt x="277" y="583" on="0"/>
        <pt x="78" y="383" on="0"/>
        <pt x="78" y="103" on="0"/>
        <pt x="277" y="-97" on="0"/>
        <pt x="417" y="-97" on="1"/>
        <pt x="509" y="-97" on="0"/>
        <pt x="586" y="-56" on="1"/>
        <pt x="592" y="-80" on="1"/>
        <pt x="510" y="-124" on="0"/>
        <pt x="417" y="-124" on="1"/>
        <pt x="265" y="-124" on="0"/>
        <pt x="50" y="91" on="0"/>
        <pt x="50" y="395" on="0"/>
        <pt x="265" y="610" on="0"/>
        <pt x="566" y="610" on="0"/>
        <pt x="761" y="422" on="0"/>
        <pt x="761" y="271" on="1"/>
        <pt x="761" y="155" on="0"/>
        <pt x="611" y="0" on="0"/>
        <pt x="473" y="0" on="1"/>
        <pt x="358" y="0" on="0"/>
        <pt x="212" y="123" on="0"/>
        <pt x="212" y="253" on="1"/>
        <pt x="212" y="344" on="0"/>
        <pt x="339" y="480" on="0"/>
        <pt x="447" y="480" on="1"/>
        <pt x="477" y="480" on="0"/>
        <pt x="539" y="453" on="0"/>
      </contour>
    </TTGlyph>
    <TTGlyph name="currency" xMin="50" yMin="-11" xMax="564" yMax="489">
      <contour>
        <pt x="233" y="454" on="0"/>
        <pt x="381" y="454" on="0"/>
        <pt x="433" y="411" on="1"/>
        <pt x="514" y="489" on="1"/>
        <pt x="564" y="443" on="1"/>
        <pt x="475" y="368" on="1"/>
        <pt x="512" y="310" on="0"/>
        <pt x="512" y="162" on="0"/>
        <pt x="472" y="113" on="1"/>
        <pt x="561" y="34" on="1"/>
        <pt x="510" y="-11" on="1"/>
        <pt x="431" y="70" on="1"/>
        <pt x="381" y="23" on="0"/>
        <pt x="233" y="23" on="0"/>
        <pt x="183" y="70" on="1"/>
        <pt x="104" y="-11" on="1"/>
        <pt x="53" y="34" on="1"/>
        <pt x="142" y="113" on="1"/>
        <pt x="102" y="162" on="0"/>
        <pt x="102" y="310" on="0"/>
        <pt x="139" y="368" on="1"/>
        <pt x="50" y="443" on="1"/>
        <pt x="100" y="489" on="1"/>
        <pt x="181" y="411" on="1"/>
      </contour>
      <contour>
        <pt x="254" y="86" on="0"/>
        <pt x="360" y="86" on="0"/>
        <pt x="360" y="391" on="0"/>
        <pt x="254" y="391" on="0"/>
      </contour>
    </TTGlyph>
    <TTGlyph name="d" xMin="40" yMin="-10" xMax="617" yMax="719">
      <contour>
        <pt x="555" y="25" on="1"/>
        <pt x="617" y="25" on="1"/>
        <pt x="617" y="9" on="1"/>
        <pt x="366" y="9" on="1"/>
        <pt x="366" y="78" on="1"/>
        <pt x="361" y="78" on="1"/>
        <pt x="342" y="30" on="0"/>
        <pt x="275" y="-10" on="0"/>
        <pt x="221" y="-10" on="1"/>
        <pt x="133" y="-10" on="0"/>
        <pt x="40" y="132" on="0"/>
        <pt x="40" y="239" on="1"/>
        <pt x="40" y="488" on="0"/>
        <pt x="235" y="488" on="1"/>
        <pt x="326" y="488" on="0"/>
        <pt x="361" y="417" on="1"/>
        <pt x="366" y="417" on="1"/>
        <pt x="366" y="684" on="1"/>
        <pt x="295" y="684" on="1"/>
        <pt x="295" y="700" on="1"/>
        <pt x="355" y="700" on="1"/>
        <pt x="464" y="700" on="0"/>
        <pt x="555" y="719" on="1"/>
      </contour>
      <contour>
        <pt x="370" y="239" on="1"/>
        <pt x="370" y="266" on="1"/>
        <pt x="370" y="354" on="0"/>
        <pt x="324" y="451" on="0"/>
        <pt x="294" y="451" on="1"/>
        <pt x="266" y="451" on="0"/>
        <pt x="242" y="349" on="0"/>
        <pt x="242" y="140" on="0"/>
        <pt x="263" y="35" on="0"/>
        <pt x="294" y="35" on="1"/>
        <pt x="330" y="35" on="0"/>
        <pt x="370" y="162" on="0"/>
      </contour>
    </TTGlyph>
    <TTGlyph name="dagger" xMin="27" yMin="-117" xMax="529" yMax="719">
      <contour>
        <pt x="239" y="398" on="0"/>
        <pt x="223" y="433" on="0"/>
        <pt x="190" y="433" on="0"/>
        <pt x="161" y="400" on="0"/>
        <pt x="124" y="366" on="0"/>
        <pt x="70" y="366" on="0"/>
        <pt x="27" y="409" on="0"/>
        <pt x="27" y="471" on="0"/>
        <pt x="70" y="514" on="0"/>
        <pt x="121" y="514" on="0"/>
        <pt x="151" y="494" on="0"/>
        <pt x="167" y="470" on="0"/>
        <pt x="200" y="450" on="0"/>
        <pt x="245" y="450" on="0"/>
        <pt x="269" y="481" on="0"/>
        <pt x="269" y="513" on="0"/>
        <pt x="204" y="612" on="0"/>
        <pt x="204" y="676" on="0"/>
        <pt x="247" y="719" on="0"/>
        <pt x="309" y="719" on="0"/>
        <pt x="352" y="676" on="0"/>
        <pt x="352" y="612" on="0"/>
        <pt x="287" y="513" on="0"/>
        <pt x="287" y="481" on="0"/>
        <pt x="311" y="450" on="0"/>
        <pt x="356" y="450" on="0"/>
        <pt x="389" y="470" on="0"/>
        <pt x="397" y="482" on="1"/>
        <pt x="418" y="514" on="0"/>
        <pt x="486" y="514" on="0"/>
        <pt x="529" y="471" on="0"/>
        <pt x="529" y="409" on="0"/>
        <pt x="486" y="366" on="0"/>
        <pt x="432" y="366" on="0"/>
        <pt x="395" y="400" on="0"/>
        <pt x="366" y="433" on="0"/>
        <pt x="333" y="433" on="0"/>
        <pt x="317" y="398" on="0"/>
        <pt x="315" y="358" on="1"/>
        <pt x="287" y="-117" on="1"/>
        <pt x="269" y="-117" on="1"/>
        <pt x="241" y="358" on="1"/>
      </contour>
    </TTGlyph>
    <TTGlyph name="daggerdbl" xMin="27" yMin="-123" xMax="529" yMax="719">
      <contour>
        <pt x="198" y="298" on="1"/>
        <pt x="247" y="347" on="0"/>
        <pt x="247" y="405" on="0"/>
        <pt x="218" y="433" on="0"/>
        <pt x="190" y="433" on="0"/>
        <pt x="161" y="400" on="0"/>
        <pt x="124" y="366" on="0"/>
        <pt x="70" y="366" on="0"/>
        <pt x="27" y="409" on="0"/>
        <pt x="27" y="471" on="0"/>
        <pt x="70" y="514" on="0"/>
        <pt x="121" y="514" on="0"/>
        <pt x="151" y="494" on="0"/>
        <pt x="167" y="470" on="0"/>
        <pt x="200" y="450" on="0"/>
        <pt x="245" y="450" on="0"/>
        <pt x="269" y="481" on="0"/>
        <pt x="269" y="513" on="0"/>
        <pt x="204" y="612" on="0"/>
        <pt x="204" y="676" on="0"/>
        <pt x="247" y="719" on="0"/>
        <pt x="309" y="719" on="0"/>
        <pt x="352" y="676" on="0"/>
        <pt x="352" y="612" on="0"/>
        <pt x="287" y="513" on="0"/>
        <pt x="287" y="481" on="0"/>
        <pt x="311" y="450" on="0"/>
        <pt x="356" y="450" on="0"/>
        <pt x="389" y="470" on="0"/>
        <pt x="397" y="482" on="1"/>
        <pt x="418" y="514" on="0"/>
        <pt x="486" y="514" on="0"/>
        <pt x="529" y="471" on="0"/>
        <pt x="529" y="409" on="0"/>
        <pt x="486" y="366" on="0"/>
        <pt x="432" y="366" on="0"/>
        <pt x="395" y="400" on="0"/>
        <pt x="366" y="433" on="0"/>
        <pt x="338" y="433" on="0"/>
        <pt x="307" y="406" on="0"/>
        <pt x="307" y="349" on="0"/>
        <pt x="358" y="298" on="1"/>
        <pt x="307" y="247" on="0"/>
        <pt x="307" y="190" on="0"/>
        <pt x="338" y="163" on="0"/>
        <pt x="366" y="163" on="0"/>
        <pt x="395" y="196" on="0"/>
        <pt x="432" y="230" on="0"/>
        <pt x="486" y="230" on="0"/>
        <pt x="529" y="187" on="0"/>
        <pt x="529" y="125" on="0"/>
        <pt x="486" y="82" on="0"/>
        <pt x="435" y="82" on="0"/>
        <pt x="405" y="102" on="0"/>
        <pt x="389" y="126" on="0"/>
        <pt x="356" y="146" on="0"/>
        <pt x="311" y="146" on="0"/>
        <pt x="287" y="115" on="0"/>
        <pt x="287" y="83" on="0"/>
        <pt x="352" y="-16" on="0"/>
        <pt x="352" y="-80" on="0"/>
        <pt x="309" y="-123" on="0"/>
        <pt x="247" y="-123" on="0"/>
        <pt x="204" y="-80" on="0"/>
        <pt x="204" y="-16" on="0"/>
        <pt x="269" y="83" on="0"/>
        <pt x="269" y="115" on="0"/>
        <pt x="245" y="146" on="0"/>
        <pt x="200" y="146" on="0"/>
        <pt x="167" y="126" on="0"/>
        <pt x="159" y="114" on="1"/>
        <pt x="138" y="82" on="0"/>
        <pt x="70" y="82" on="0"/>
        <pt x="27" y="125" on="0"/>
        <pt x="27" y="187" on="0"/>
        <pt x="70" y="230" on="0"/>
        <pt x="124" y="230" on="0"/>
        <pt x="161" y="196" on="0"/>
        <pt x="190" y="163" on="0"/>
        <pt x="218" y="163" on="0"/>
        <pt x="247" y="191" on="0"/>
        <pt x="247" y="249" on="0"/>
      </contour>
    </TTGlyph>
    <TTGlyph name="degree" xMin="24" yMin="436" xMax="256" yMax="668">
      <contour>
        <pt x="24" y="504" on="0"/>
        <pt x="24" y="600" on="0"/>
        <pt x="92" y="668" on="0"/>
        <pt x="188" y="668" on="0"/>
        <pt x="256" y="600" on="0"/>
        <pt x="256" y="504" on="0"/>
        <pt x="188" y="436" on="0"/>
        <pt x="92" y="436" on="0"/>
      </contour>
      <contour>
        <pt x="55" y="587" on="0"/>
        <pt x="55" y="517" on="0"/>
        <pt x="105" y="467" on="0"/>
        <pt x="175" y="467" on="0"/>
        <pt x="225" y="517" on="0"/>
        <pt x="225" y="587" on="0"/>
        <pt x="175" y="637" on="0"/>
        <pt x="105" y="637" on="0"/>
      </contour>
    </TTGlyph>
    <TTGlyph name="dieresis" xMin="224" yMin="520" xMax="525" yMax="641">
      <contour>
        <pt x="404" y="556" on="0"/>
        <pt x="404" y="606" on="0"/>
        <pt x="440" y="641" on="0"/>
        <pt x="490" y="641" on="0"/>
        <pt x="525" y="606" on="0"/>
        <pt x="525" y="556" on="0"/>
        <pt x="490" y="520" on="0"/>
        <pt x="440" y="520" on="0"/>
      </contour>
      <contour>
        <pt x="224" y="556" on="0"/>
        <pt x="224" y="606" on="0"/>
        <pt x="259" y="641" on="0"/>
        <pt x="309" y="641" on="0"/>
        <pt x="345" y="606" on="0"/>
        <pt x="345" y="556" on="0"/>
        <pt x="309" y="520" on="0"/>
        <pt x="259" y="520" on="0"/>
      </contour>
    </TTGlyph>
    <TTGlyph name="divide" xMin="17" yMin="-10" xMax="491" yMax="488">
      <contour>
        <pt x="172" y="372" on="0"/>
        <pt x="172" y="440" on="0"/>
        <pt x="219" y="488" on="0"/>
        <pt x="288" y="488" on="0"/>
        <pt x="335" y="440" on="0"/>
        <pt x="335" y="372" on="0"/>
        <pt x="287" y="325" on="0"/>
        <pt x="219" y="325" on="0"/>
      </contour>
      <contour>
        <pt x="193" y="431" on="0"/>
        <pt x="193" y="381" on="0"/>
        <pt x="228" y="346" on="0"/>
        <pt x="278" y="346" on="0"/>
        <pt x="313" y="381" on="0"/>
        <pt x="313" y="432" on="0"/>
        <pt x="278" y="466" on="0"/>
        <pt x="228" y="466" on="0"/>
      </contour>
      <contour>
        <pt x="172" y="37" on="0"/>
        <pt x="172" y="105" on="0"/>
        <pt x="219" y="153" on="0"/>
        <pt x="288" y="153" on="0"/>
        <pt x="335" y="106" on="0"/>
        <pt x="335" y="37" on="0"/>
        <pt x="287" y="-10" on="0"/>
        <pt x="219" y="-10" on="0"/>
      </contour>
      <contour>
        <pt x="193" y="96" on="0"/>
        <pt x="193" y="46" on="0"/>
        <pt x="228" y="11" on="0"/>
        <pt x="278" y="11" on="0"/>
        <pt x="313" y="46" on="0"/>
        <pt x="313" y="96" on="0"/>
        <pt x="278" y="131" on="0"/>
        <pt x="228" y="131" on="0"/>
      </contour>
      <contour>
        <pt x="491" y="247" on="1"/>
        <pt x="491" y="226" on="1"/>
        <pt x="17" y="226" on="1"/>
        <pt x="17" y="247" on="1"/>
      </contour>
    </TTGlyph>
</ttFont>
